<?xml version="1.0"?>
<!-- Generated by SVGo and Plotinum VG -->
<svg width="566.93pt" height="350.38pt" viewBox="0 0 566.93 350.38"
	xmlns="http://www.w3.org/2000/svg"
	xmlns:xlink="http://www.w3.org/1999/xlink">
<g transform="scale(1, -1) translate(0, -350.38)">
<path d="M0,0L566.93,0L566.93,350.38L0,350.38Z" style="fill:#FFFFFF" />
<text x="298.48" y="-3.9023" transform="scale(1, -1)"
	style="font-family:Liberation Serif;font-variant:normal;font-weight:normal;font-style:normal;font-size:12px">Year</text>
<text x="95.614" y="-16.541" transform="scale(1, -1)"
	style="font-family:Liberation Serif;font-variant:normal;font-weight:normal;font-style:normal;font-size:10px">2014</text>
<text x="299.53" y="-16.541" transform="scale(1, -1)"
	style="font-family:Liberation Serif;font-variant:normal;font-weight:normal;font-style:normal;font-size:10px">2018</text>
<text x="503.45" y="-16.541" transform="scale(1, -1)"
	style="font-family:Liberation Serif;font-variant:normal;font-weight:normal;font-style:normal;font-size:10px">2022</text>
<path d="M105.61,24.363L105.61,32.363" style="fill:none;stroke:#000000;stroke-width:0.5" />
<path d="M309.53,24.363L309.53,32.363" style="fill:none;stroke:#000000;stroke-width:0.5" />
<path d="M513.45,24.363L513.45,32.363" style="fill:none;stroke:#000000;stroke-width:0.5" />
<path d="M156.59,28.363L156.59,32.363" style="fill:none;stroke:#000000;stroke-width:0.5" />
<path d="M207.57,28.363L207.57,32.363" style="fill:none;stroke:#000000;stroke-width:0.5" />
<path d="M258.55,28.363L258.55,32.363" style="fill:none;stroke:#000000;stroke-width:0.5" />
<path d="M360.51,28.363L360.51,32.363" style="fill:none;stroke:#000000;stroke-width:0.5" />
<path d="M411.49,28.363L411.49,32.363" style="fill:none;stroke:#000000;stroke-width:0.5" />
<path d="M462.47,28.363L462.47,32.363" style="fill:none;stroke:#000000;stroke-width:0.5" />
<path d="M564.43,28.363L564.43,32.363" style="fill:none;stroke:#000000;stroke-width:0.5" />
<path d="M54.635,32.363L564.43,32.363" style="fill:none;stroke:#000000;stroke-width:0.5" />
<g transform="rotate(90)">
<text x="149.8" y="9.3867" transform="scale(1, -1)"
	style="font-family:Liberation Serif;font-variant:normal;font-weight:normal;font-style:normal;font-size:12px">Contribution count</text>
</g>
<text x="30.885" y="-40.424" transform="scale(1, -1)"
	style="font-family:Liberation Serif;font-variant:normal;font-weight:normal;font-style:normal;font-size:10px">0</text>
<text x="20.885" y="-132.34" transform="scale(1, -1)"
	style="font-family:Liberation Serif;font-variant:normal;font-weight:normal;font-style:normal;font-size:10px">400</text>
<text x="20.885" y="-224.26" transform="scale(1, -1)"
	style="font-family:Liberation Serif;font-variant:normal;font-weight:normal;font-style:normal;font-size:10px">800</text>
<text x="15.885" y="-316.18" transform="scale(1, -1)"
	style="font-family:Liberation Serif;font-variant:normal;font-weight:normal;font-style:normal;font-size:10px">1200</text>
<path d="M38.385,42.709L46.385,42.709" style="fill:none;stroke:#000000;stroke-width:0.5" />
<path d="M38.385,134.63L46.385,134.63" style="fill:none;stroke:#000000;stroke-width:0.5" />
<path d="M38.385,226.55L46.385,226.55" style="fill:none;stroke:#000000;stroke-width:0.5" />
<path d="M38.385,318.47L46.385,318.47" style="fill:none;stroke:#000000;stroke-width:0.5" />
<path d="M42.385,65.689L46.385,65.689" style="fill:none;stroke:#000000;stroke-width:0.5" />
<path d="M42.385,88.669L46.385,88.669" style="fill:none;stroke:#000000;stroke-width:0.5" />
<path d="M42.385,111.65L46.385,111.65" style="fill:none;stroke:#000000;stroke-width:0.5" />
<path d="M42.385,157.61L46.385,157.61" style="fill:none;stroke:#000000;stroke-width:0.5" />
<path d="M42.385,180.59L46.385,180.59" style="fill:none;stroke:#000000;stroke-width:0.5" />
<path d="M42.385,203.57L46.385,203.57" style="fill:none;stroke:#000000;stroke-width:0.5" />
<path d="M42.385,249.53L46.385,249.53" style="fill:none;stroke:#000000;stroke-width:0.5" />
<path d="M42.385,272.51L46.385,272.51" style="fill:none;stroke:#000000;stroke-width:0.5" />
<path d="M42.385,295.49L46.385,295.49" style="fill:none;stroke:#000000;stroke-width:0.5" />
<path d="M42.385,341.45L46.385,341.45" style="fill:none;stroke:#000000;stroke-width:0.5" />
<path d="M46.385,42.709L46.385,347.88" style="fill:none;stroke:#000000;stroke-width:0.5" />
<path d="M54.635,42.709L105.61,42.709L156.59,42.709L207.57,46.156L258.55,51.901L309.53,46.845L360.51,51.212L411.49,141.06L462.47,174.61L513.45,246.31L564.43,347.88" style="fill:none;stroke:#F15A60" />
<path d="M57.135,42.709A2.5,2.5 0 1 1 52.135,42.709A2.5,2.5 0 1 1 57.135,42.709Z" style="fill:none;stroke:#F15A60;stroke-width:0.5" />
<path d="M108.11,42.709A2.5,2.5 0 1 1 103.11,42.709A2.5,2.5 0 1 1 108.11,42.709Z" style="fill:none;stroke:#F15A60;stroke-width:0.5" />
<path d="M159.09,42.709A2.5,2.5 0 1 1 154.09,42.709A2.5,2.5 0 1 1 159.09,42.709Z" style="fill:none;stroke:#F15A60;stroke-width:0.5" />
<path d="M210.07,46.156A2.5,2.5 0 1 1 205.07,46.156A2.5,2.5 0 1 1 210.07,46.156Z" style="fill:none;stroke:#F15A60;stroke-width:0.5" />
<path d="M261.05,51.901A2.5,2.5 0 1 1 256.05,51.901A2.5,2.5 0 1 1 261.05,51.901Z" style="fill:none;stroke:#F15A60;stroke-width:0.5" />
<path d="M312.03,46.845A2.5,2.5 0 1 1 307.03,46.845A2.5,2.5 0 1 1 312.03,46.845Z" style="fill:none;stroke:#F15A60;stroke-width:0.5" />
<path d="M363.01,51.212A2.5,2.5 0 1 1 358.01,51.212A2.5,2.5 0 1 1 363.01,51.212Z" style="fill:none;stroke:#F15A60;stroke-width:0.5" />
<path d="M413.99,141.06A2.5,2.5 0 1 1 408.99,141.06A2.5,2.5 0 1 1 413.99,141.06Z" style="fill:none;stroke:#F15A60;stroke-width:0.5" />
<path d="M464.97,174.61A2.5,2.5 0 1 1 459.97,174.61A2.5,2.5 0 1 1 464.97,174.61Z" style="fill:none;stroke:#F15A60;stroke-width:0.5" />
<path d="M515.95,246.31A2.5,2.5 0 1 1 510.95,246.31A2.5,2.5 0 1 1 515.95,246.31Z" style="fill:none;stroke:#F15A60;stroke-width:0.5" />
<path d="M566.93,347.88A2.5,2.5 0 1 1 561.93,347.88A2.5,2.5 0 1 1 566.93,347.88Z" style="fill:none;stroke:#F15A60;stroke-width:0.5" />
<path d="M54.635,42.709L105.61,42.709L156.59,42.709L207.57,42.709L258.55,42.709L309.53,42.709L360.51,47.305L411.49,60.863L462.47,50.752L513.45,43.628L564.43,48.914" style="fill:none;stroke:#7AC36A;stroke-dasharray:6,2" />
<path d="M52.501,40.575L56.769,40.575L56.769,44.843L52.501,44.843Z" style="fill:none;stroke:#7AC36A;stroke-width:0.5" />
<path d="M103.48,40.575L107.75,40.575L107.75,44.843L103.48,44.843Z" style="fill:none;stroke:#7AC36A;stroke-width:0.5" />
<path d="M154.46,40.575L158.73,40.575L158.73,44.843L154.46,44.843Z" style="fill:none;stroke:#7AC36A;stroke-width:0.5" />
<path d="M205.44,40.575L209.71,40.575L209.71,44.843L205.44,44.843Z" style="fill:none;stroke:#7AC36A;stroke-width:0.5" />
<path d="M256.42,40.575L260.69,40.575L260.69,44.843L256.42,44.843Z" style="fill:none;stroke:#7AC36A;stroke-width:0.5" />
<path d="M307.4,40.575L311.67,40.575L311.67,44.843L307.4,44.843Z" style="fill:none;stroke:#7AC36A;stroke-width:0.5" />
<path d="M358.38,45.171L362.65,45.171L362.65,49.439L358.38,49.439Z" style="fill:none;stroke:#7AC36A;stroke-width:0.5" />
<path d="M409.36,58.729L413.62,58.729L413.62,62.997L409.36,62.997Z" style="fill:none;stroke:#7AC36A;stroke-width:0.5" />
<path d="M460.34,48.618L464.6,48.618L464.6,52.886L460.34,52.886Z" style="fill:none;stroke:#7AC36A;stroke-width:0.5" />
<path d="M511.32,41.494L515.58,41.494L515.58,45.762L511.32,45.762Z" style="fill:none;stroke:#7AC36A;stroke-width:0.5" />
<path d="M562.3,46.78L566.56,46.78L566.56,51.047L562.3,51.047Z" style="fill:none;stroke:#7AC36A;stroke-width:0.5" />
<path d="M54.635,42.709L105.61,42.709L156.59,42.709L207.57,42.709L258.55,42.709L309.53,42.939L360.51,51.441L411.49,72.813L462.47,69.366L513.45,61.093L564.43,103.38" style="fill:none;stroke:#5A9BD4;stroke-dasharray:2,2" />
<path d="M54.635,45.834L51.928,41.146L57.341,41.146Z" style="fill:none;stroke:#5A9BD4;stroke-width:0.5" />
<path d="M105.61,45.834L102.91,41.146L108.32,41.146Z" style="fill:none;stroke:#5A9BD4;stroke-width:0.5" />
<path d="M156.59,45.834L153.89,41.146L159.3,41.146Z" style="fill:none;stroke:#5A9BD4;stroke-width:0.5" />
<path d="M207.57,45.834L204.87,41.146L210.28,41.146Z" style="fill:none;stroke:#5A9BD4;stroke-width:0.5" />
<path d="M258.55,45.834L255.85,41.146L261.26,41.146Z" style="fill:none;stroke:#5A9BD4;stroke-width:0.5" />
<path d="M309.53,46.064L306.83,41.376L312.24,41.376Z" style="fill:none;stroke:#5A9BD4;stroke-width:0.5" />
<path d="M360.51,54.566L357.81,49.879L363.22,49.879Z" style="fill:none;stroke:#5A9BD4;stroke-width:0.5" />
<path d="M411.49,75.938L408.78,71.25L414.2,71.25Z" style="fill:none;stroke:#5A9BD4;stroke-width:0.5" />
<path d="M462.47,72.491L459.76,67.803L465.18,67.803Z" style="fill:none;stroke:#5A9BD4;stroke-width:0.5" />
<path d="M513.45,64.218L510.74,59.53L516.16,59.53Z" style="fill:none;stroke:#5A9BD4;stroke-width:0.5" />
<path d="M564.43,106.5L561.72,101.81L567.14,101.81Z" style="fill:none;stroke:#5A9BD4;stroke-width:0.5" />
<path d="M54.635,42.709L105.61,42.709L156.59,42.709L207.57,42.709L258.55,42.709L309.53,42.709L360.51,42.709L411.49,42.709L462.47,43.398L513.45,43.858L564.43,73.732" style="fill:none;stroke:#FAA75B;stroke-dasharray:1,1" />
<path d="M52.867,40.941L56.403,44.477" style="fill:none;stroke:#FAA75B;stroke-width:0.5" />
<path d="M52.867,44.477L56.403,40.941" style="fill:none;stroke:#FAA75B;stroke-width:0.5" />
<path d="M103.85,40.941L107.38,44.477" style="fill:none;stroke:#FAA75B;stroke-width:0.5" />
<path d="M103.85,44.477L107.38,40.941" style="fill:none;stroke:#FAA75B;stroke-width:0.5" />
<path d="M154.83,40.941L158.36,44.477" style="fill:none;stroke:#FAA75B;stroke-width:0.5" />
<path d="M154.83,44.477L158.36,40.941" style="fill:none;stroke:#FAA75B;stroke-width:0.5" />
<path d="M205.81,40.941L209.34,44.477" style="fill:none;stroke:#FAA75B;stroke-width:0.5" />
<path d="M205.81,44.477L209.34,40.941" style="fill:none;stroke:#FAA75B;stroke-width:0.5" />
<path d="M256.78,40.941L260.32,44.477" style="fill:none;stroke:#FAA75B;stroke-width:0.5" />
<path d="M256.78,44.477L260.32,40.941" style="fill:none;stroke:#FAA75B;stroke-width:0.5" />
<path d="M307.76,40.941L311.3,44.477" style="fill:none;stroke:#FAA75B;stroke-width:0.5" />
<path d="M307.76,44.477L311.3,40.941" style="fill:none;stroke:#FAA75B;stroke-width:0.5" />
<path d="M358.74,40.941L362.28,44.477" style="fill:none;stroke:#FAA75B;stroke-width:0.5" />
<path d="M358.74,44.477L362.28,40.941" style="fill:none;stroke:#FAA75B;stroke-width:0.5" />
<path d="M409.72,40.941L413.26,44.477" style="fill:none;stroke:#FAA75B;stroke-width:0.5" />
<path d="M409.72,44.477L413.26,40.941" style="fill:none;stroke:#FAA75B;stroke-width:0.5" />
<path d="M460.7,41.631L464.24,45.166" style="fill:none;stroke:#FAA75B;stroke-width:0.5" />
<path d="M460.7,45.166L464.24,41.631" style="fill:none;stroke:#FAA75B;stroke-width:0.5" />
<path d="M511.68,42.09L515.22,45.626" style="fill:none;stroke:#FAA75B;stroke-width:0.5" />
<path d="M511.68,45.626L515.22,42.09" style="fill:none;stroke:#FAA75B;stroke-width:0.5" />
<path d="M562.66,71.964L566.2,75.5" style="fill:none;stroke:#FAA75B;stroke-width:0.5" />
<path d="M562.66,75.5L566.2,71.964" style="fill:none;stroke:#FAA75B;stroke-width:0.5" />
<path d="M546.93,75.852L566.93,75.852" style="fill:none;stroke:#F15A60" />
<path d="M559.43,75.852A2.5,2.5 0 1 1 554.43,75.852A2.5,2.5 0 1 1 559.43,75.852Z" style="fill:none;stroke:#F15A60;stroke-width:0.5" />
<text x="502.6" y="-73.364" transform="scale(1, -1)"
	style="font-family:Liberation Serif;font-variant:normal;font-weight:normal;font-style:normal;font-size:12px">commits</text>
<path d="M546.93,65.668L566.93,65.668" style="fill:none;stroke:#7AC36A;stroke-dasharray:6,2" />
<path d="M554.8,63.534L559.06,63.534L559.06,67.802L554.8,67.802Z" style="fill:none;stroke:#7AC36A;stroke-width:0.5" />
<text x="515.26" y="-63.181" transform="scale(1, -1)"
	style="font-family:Liberation Serif;font-variant:normal;font-weight:normal;font-style:normal;font-size:12px">issues</text>
<path d="M546.93,55.484L566.93,55.484" style="fill:none;stroke:#5A9BD4;stroke-dasharray:2,2" />
<path d="M556.93,58.609L554.22,53.922L559.64,53.922Z" style="fill:none;stroke:#5A9BD4;stroke-width:0.5" />
<text x="524.58" y="-52.997" transform="scale(1, -1)"
	style="font-family:Liberation Serif;font-variant:normal;font-weight:normal;font-style:normal;font-size:12px">PRs</text>
<path d="M546.93,45.301L566.93,45.301" style="fill:none;stroke:#FAA75B;stroke-dasharray:1,1" />
<path d="M555.16,43.533L558.7,47.069" style="fill:none;stroke:#FAA75B;stroke-width:0.5" />
<path d="M555.16,47.069L558.7,43.533" style="fill:none;stroke:#FAA75B;stroke-width:0.5" />
<text x="506.61" y="-42.813" transform="scale(1, -1)"
	style="font-family:Liberation Serif;font-variant:normal;font-weight:normal;font-style:normal;font-size:12px">reviews</text>
</g>
</svg>
