<?xml version="1.0"?>
<!-- Generated by SVGo and Plotinum VG -->
<svg width="566.93pt" height="350.38pt" viewBox="0 0 566.93 350.38"
	xmlns="http://www.w3.org/2000/svg"
	xmlns:xlink="http://www.w3.org/1999/xlink">
<g transform="scale(1, -1) translate(0, -350.38)">
<path d="M0,0L566.93,0L566.93,350.38L0,350.38Z" style="fill:#FFFFFF" />
<text x="298.48" y="-3.9023" transform="scale(1, -1)"
	style="font-family:Liberation Serif;font-variant:normal;font-weight:normal;font-style:normal;font-size:12px">Year</text>
<text x="95.614" y="-16.541" transform="scale(1, -1)"
	style="font-family:Liberation Serif;font-variant:normal;font-weight:normal;font-style:normal;font-size:10px">2014</text>
<text x="299.53" y="-16.541" transform="scale(1, -1)"
	style="font-family:Liberation Serif;font-variant:normal;font-weight:normal;font-style:normal;font-size:10px">2018</text>
<text x="503.45" y="-16.541" transform="scale(1, -1)"
	style="font-family:Liberation Serif;font-variant:normal;font-weight:normal;font-style:normal;font-size:10px">2022</text>
<path d="M105.61,24.363L105.61,32.363" style="fill:none;stroke:#000000;stroke-width:0.5" />
<path d="M309.53,24.363L309.53,32.363" style="fill:none;stroke:#000000;stroke-width:0.5" />
<path d="M513.45,24.363L513.45,32.363" style="fill:none;stroke:#000000;stroke-width:0.5" />
<path d="M156.59,28.363L156.59,32.363" style="fill:none;stroke:#000000;stroke-width:0.5" />
<path d="M207.57,28.363L207.57,32.363" style="fill:none;stroke:#000000;stroke-width:0.5" />
<path d="M258.55,28.363L258.55,32.363" style="fill:none;stroke:#000000;stroke-width:0.5" />
<path d="M360.51,28.363L360.51,32.363" style="fill:none;stroke:#000000;stroke-width:0.5" />
<path d="M411.49,28.363L411.49,32.363" style="fill:none;stroke:#000000;stroke-width:0.5" />
<path d="M462.47,28.363L462.47,32.363" style="fill:none;stroke:#000000;stroke-width:0.5" />
<path d="M564.43,28.363L564.43,32.363" style="fill:none;stroke:#000000;stroke-width:0.5" />
<path d="M54.635,32.363L564.43,32.363" style="fill:none;stroke:#000000;stroke-width:0.5" />
<g transform="rotate(90)">
<text x="149.8" y="9.3867" transform="scale(1, -1)"
	style="font-family:Liberation Serif;font-variant:normal;font-weight:normal;font-style:normal;font-size:12px">Contribution count</text>
</g>
<text x="30.885" y="-40.424" transform="scale(1, -1)"
	style="font-family:Liberation Serif;font-variant:normal;font-weight:normal;font-style:normal;font-size:10px">0</text>
<text x="20.885" y="-139.25" transform="scale(1, -1)"
	style="font-family:Liberation Serif;font-variant:normal;font-weight:normal;font-style:normal;font-size:10px">500</text>
<text x="15.885" y="-238.07" transform="scale(1, -1)"
	style="font-family:Liberation Serif;font-variant:normal;font-weight:normal;font-style:normal;font-size:10px">1000</text>
<text x="15.885" y="-336.9" transform="scale(1, -1)"
	style="font-family:Liberation Serif;font-variant:normal;font-weight:normal;font-style:normal;font-size:10px">1500</text>
<path d="M38.385,42.709L46.385,42.709" style="fill:none;stroke:#000000;stroke-width:0.5" />
<path d="M38.385,141.53L46.385,141.53" style="fill:none;stroke:#000000;stroke-width:0.5" />
<path d="M38.385,240.36L46.385,240.36" style="fill:none;stroke:#000000;stroke-width:0.5" />
<path d="M38.385,339.18L46.385,339.18" style="fill:none;stroke:#000000;stroke-width:0.5" />
<path d="M42.385,62.474L46.385,62.474" style="fill:none;stroke:#000000;stroke-width:0.5" />
<path d="M42.385,82.239L46.385,82.239" style="fill:none;stroke:#000000;stroke-width:0.5" />
<path d="M42.385,102L46.385,102" style="fill:none;stroke:#000000;stroke-width:0.5" />
<path d="M42.385,121.77L46.385,121.77" style="fill:none;stroke:#000000;stroke-width:0.5" />
<path d="M42.385,161.3L46.385,161.3" style="fill:none;stroke:#000000;stroke-width:0.5" />
<path d="M42.385,181.06L46.385,181.06" style="fill:none;stroke:#000000;stroke-width:0.5" />
<path d="M42.385,200.83L46.385,200.83" style="fill:none;stroke:#000000;stroke-width:0.5" />
<path d="M42.385,220.59L46.385,220.59" style="fill:none;stroke:#000000;stroke-width:0.5" />
<path d="M42.385,260.12L46.385,260.12" style="fill:none;stroke:#000000;stroke-width:0.5" />
<path d="M42.385,279.89L46.385,279.89" style="fill:none;stroke:#000000;stroke-width:0.5" />
<path d="M42.385,299.65L46.385,299.65" style="fill:none;stroke:#000000;stroke-width:0.5" />
<path d="M42.385,319.42L46.385,319.42" style="fill:none;stroke:#000000;stroke-width:0.5" />
<path d="M46.385,42.709L46.385,347.88" style="fill:none;stroke:#000000;stroke-width:0.5" />
<path d="M54.635,42.709L105.61,42.709L156.59,42.709L207.57,45.674L258.55,50.615L309.53,46.267L360.51,50.022L411.49,127.3L462.47,156.16L513.45,217.83L564.43,347.88" style="fill:none;stroke:#F15A60" />
<path d="M57.135,42.709A2.5,2.5 0 1 1 52.135,42.709A2.5,2.5 0 1 1 57.135,42.709Z" style="fill:none;stroke:#F15A60;stroke-width:0.5" />
<path d="M108.11,42.709A2.5,2.5 0 1 1 103.11,42.709A2.5,2.5 0 1 1 108.11,42.709Z" style="fill:none;stroke:#F15A60;stroke-width:0.5" />
<path d="M159.09,42.709A2.5,2.5 0 1 1 154.09,42.709A2.5,2.5 0 1 1 159.09,42.709Z" style="fill:none;stroke:#F15A60;stroke-width:0.5" />
<path d="M210.07,45.674A2.5,2.5 0 1 1 205.07,45.674A2.5,2.5 0 1 1 210.07,45.674Z" style="fill:none;stroke:#F15A60;stroke-width:0.5" />
<path d="M261.05,50.615A2.5,2.5 0 1 1 256.05,50.615A2.5,2.5 0 1 1 261.05,50.615Z" style="fill:none;stroke:#F15A60;stroke-width:0.5" />
<path d="M312.03,46.267A2.5,2.5 0 1 1 307.03,46.267A2.5,2.5 0 1 1 312.03,46.267Z" style="fill:none;stroke:#F15A60;stroke-width:0.5" />
<path d="M363.01,50.022A2.5,2.5 0 1 1 358.01,50.022A2.5,2.5 0 1 1 363.01,50.022Z" style="fill:none;stroke:#F15A60;stroke-width:0.5" />
<path d="M413.99,127.3A2.5,2.5 0 1 1 408.99,127.3A2.5,2.5 0 1 1 413.99,127.3Z" style="fill:none;stroke:#F15A60;stroke-width:0.5" />
<path d="M464.97,156.16A2.5,2.5 0 1 1 459.97,156.16A2.5,2.5 0 1 1 464.97,156.16Z" style="fill:none;stroke:#F15A60;stroke-width:0.5" />
<path d="M515.95,217.83A2.5,2.5 0 1 1 510.95,217.83A2.5,2.5 0 1 1 515.95,217.83Z" style="fill:none;stroke:#F15A60;stroke-width:0.5" />
<path d="M566.93,347.88A2.5,2.5 0 1 1 561.93,347.88A2.5,2.5 0 1 1 566.93,347.88Z" style="fill:none;stroke:#F15A60;stroke-width:0.5" />
<path d="M54.635,42.709L105.61,42.709L156.59,42.709L207.57,42.709L258.55,42.709L309.53,42.709L360.51,46.662L411.49,58.323L462.47,49.627L513.45,43.5L564.43,48.441" style="fill:none;stroke:#7AC36A;stroke-dasharray:6,2" />
<path d="M52.501,40.575L56.769,40.575L56.769,44.843L52.501,44.843Z" style="fill:none;stroke:#7AC36A;stroke-width:0.5" />
<path d="M103.48,40.575L107.75,40.575L107.75,44.843L103.48,44.843Z" style="fill:none;stroke:#7AC36A;stroke-width:0.5" />
<path d="M154.46,40.575L158.73,40.575L158.73,44.843L154.46,44.843Z" style="fill:none;stroke:#7AC36A;stroke-width:0.5" />
<path d="M205.44,40.575L209.71,40.575L209.71,44.843L205.44,44.843Z" style="fill:none;stroke:#7AC36A;stroke-width:0.5" />
<path d="M256.42,40.575L260.69,40.575L260.69,44.843L256.42,44.843Z" style="fill:none;stroke:#7AC36A;stroke-width:0.5" />
<path d="M307.4,40.575L311.67,40.575L311.67,44.843L307.4,44.843Z" style="fill:none;stroke:#7AC36A;stroke-width:0.5" />
<path d="M358.38,44.528L362.65,44.528L362.65,48.796L358.38,48.796Z" style="fill:none;stroke:#7AC36A;stroke-width:0.5" />
<path d="M409.36,56.189L413.62,56.189L413.62,60.457L409.36,60.457Z" style="fill:none;stroke:#7AC36A;stroke-width:0.5" />
<path d="M460.34,47.493L464.6,47.493L464.6,51.761L460.34,51.761Z" style="fill:none;stroke:#7AC36A;stroke-width:0.5" />
<path d="M511.32,41.366L515.58,41.366L515.58,45.633L511.32,45.633Z" style="fill:none;stroke:#7AC36A;stroke-width:0.5" />
<path d="M562.3,46.307L566.56,46.307L566.56,50.575L562.3,50.575Z" style="fill:none;stroke:#7AC36A;stroke-width:0.5" />
<path d="M54.635,42.709L105.61,42.709L156.59,42.709L207.57,42.709L258.55,42.709L309.53,42.907L360.51,50.22L411.49,68.601L462.47,65.636L513.45,58.521L564.43,107.14" style="fill:none;stroke:#5A9BD4;stroke-dasharray:2,2" />
<path d="M54.635,45.834L51.928,41.146L57.341,41.146Z" style="fill:none;stroke:#5A9BD4;stroke-width:0.5" />
<path d="M105.61,45.834L102.91,41.146L108.32,41.146Z" style="fill:none;stroke:#5A9BD4;stroke-width:0.5" />
<path d="M156.59,45.834L153.89,41.146L159.3,41.146Z" style="fill:none;stroke:#5A9BD4;stroke-width:0.5" />
<path d="M207.57,45.834L204.87,41.146L210.28,41.146Z" style="fill:none;stroke:#5A9BD4;stroke-width:0.5" />
<path d="M258.55,45.834L255.85,41.146L261.26,41.146Z" style="fill:none;stroke:#5A9BD4;stroke-width:0.5" />
<path d="M309.53,46.032L306.83,41.344L312.24,41.344Z" style="fill:none;stroke:#5A9BD4;stroke-width:0.5" />
<path d="M360.51,53.345L357.81,48.657L363.22,48.657Z" style="fill:none;stroke:#5A9BD4;stroke-width:0.5" />
<path d="M411.49,71.726L408.78,67.039L414.2,67.039Z" style="fill:none;stroke:#5A9BD4;stroke-width:0.5" />
<path d="M462.47,68.761L459.76,64.074L465.18,64.074Z" style="fill:none;stroke:#5A9BD4;stroke-width:0.5" />
<path d="M513.45,61.646L510.74,56.959L516.16,56.959Z" style="fill:none;stroke:#5A9BD4;stroke-width:0.5" />
<path d="M564.43,110.27L561.72,105.58L567.14,105.58Z" style="fill:none;stroke:#5A9BD4;stroke-width:0.5" />
<path d="M54.635,42.709L105.61,42.709L156.59,42.709L207.57,42.709L258.55,42.709L309.53,42.709L360.51,42.709L411.49,42.709L462.47,43.302L513.45,43.697L564.43,76.31" style="fill:none;stroke:#FAA75B;stroke-dasharray:1,1" />
<path d="M52.867,40.941L56.403,44.477" style="fill:none;stroke:#FAA75B;stroke-width:0.5" />
<path d="M52.867,44.477L56.403,40.941" style="fill:none;stroke:#FAA75B;stroke-width:0.5" />
<path d="M103.85,40.941L107.38,44.477" style="fill:none;stroke:#FAA75B;stroke-width:0.5" />
<path d="M103.85,44.477L107.38,40.941" style="fill:none;stroke:#FAA75B;stroke-width:0.5" />
<path d="M154.83,40.941L158.36,44.477" style="fill:none;stroke:#FAA75B;stroke-width:0.5" />
<path d="M154.83,44.477L158.36,40.941" style="fill:none;stroke:#FAA75B;stroke-width:0.5" />
<path d="M205.81,40.941L209.34,44.477" style="fill:none;stroke:#FAA75B;stroke-width:0.5" />
<path d="M205.81,44.477L209.34,40.941" style="fill:none;stroke:#FAA75B;stroke-width:0.5" />
<path d="M256.78,40.941L260.32,44.477" style="fill:none;stroke:#FAA75B;stroke-width:0.5" />
<path d="M256.78,44.477L260.32,40.941" style="fill:none;stroke:#FAA75B;stroke-width:0.5" />
<path d="M307.76,40.941L311.3,44.477" style="fill:none;stroke:#FAA75B;stroke-width:0.5" />
<path d="M307.76,44.477L311.3,40.941" style="fill:none;stroke:#FAA75B;stroke-width:0.5" />
<path d="M358.74,40.941L362.28,44.477" style="fill:none;stroke:#FAA75B;stroke-width:0.5" />
<path d="M358.74,44.477L362.28,40.941" style="fill:none;stroke:#FAA75B;stroke-width:0.5" />
<path d="M409.72,40.941L413.26,44.477" style="fill:none;stroke:#FAA75B;stroke-width:0.5" />
<path d="M409.72,44.477L413.26,40.941" style="fill:none;stroke:#FAA75B;stroke-width:0.5" />
<path d="M460.7,41.534L464.24,45.07" style="fill:none;stroke:#FAA75B;stroke-width:0.5" />
<path d="M460.7,45.07L464.24,41.534" style="fill:none;stroke:#FAA75B;stroke-width:0.5" />
<path d="M511.68,41.929L515.22,45.465" style="fill:none;stroke:#FAA75B;stroke-width:0.5" />
<path d="M511.68,45.465L515.22,41.929" style="fill:none;stroke:#FAA75B;stroke-width:0.5" />
<path d="M562.66,74.542L566.2,78.077" style="fill:none;stroke:#FAA75B;stroke-width:0.5" />
<path d="M562.66,78.077L566.2,74.542" style="fill:none;stroke:#FAA75B;stroke-width:0.5" />
<path d="M546.93,75.852L566.93,75.852" style="fill:none;stroke:#F15A60" />
<path d="M559.43,75.852A2.5,2.5 0 1 1 554.43,75.852A2.5,2.5 0 1 1 559.43,75.852Z" style="fill:none;stroke:#F15A60;stroke-width:0.5" />
<text x="502.6" y="-73.364" transform="scale(1, -1)"
	style="font-family:Liberation Serif;font-variant:normal;font-weight:normal;font-style:normal;font-size:12px">commits</text>
<path d="M546.93,65.668L566.93,65.668" style="fill:none;stroke:#7AC36A;stroke-dasharray:6,2" />
<path d="M554.8,63.534L559.06,63.534L559.06,67.802L554.8,67.802Z" style="fill:none;stroke:#7AC36A;stroke-width:0.5" />
<text x="515.26" y="-63.181" transform="scale(1, -1)"
	style="font-family:Liberation Serif;font-variant:normal;font-weight:normal;font-style:normal;font-size:12px">issues</text>
<path d="M546.93,55.484L566.93,55.484" style="fill:none;stroke:#5A9BD4;stroke-dasharray:2,2" />
<path d="M556.93,58.609L554.22,53.922L559.64,53.922Z" style="fill:none;stroke:#5A9BD4;stroke-width:0.5" />
<text x="524.58" y="-52.997" transform="scale(1, -1)"
	style="font-family:Liberation Serif;font-variant:normal;font-weight:normal;font-style:normal;font-size:12px">PRs</text>
<path d="M546.93,45.301L566.93,45.301" style="fill:none;stroke:#FAA75B;stroke-dasharray:1,1" />
<path d="M555.16,43.533L558.7,47.069" style="fill:none;stroke:#FAA75B;stroke-width:0.5" />
<path d="M555.16,47.069L558.7,43.533" style="fill:none;stroke:#FAA75B;stroke-width:0.5" />
<text x="506.61" y="-42.813" transform="scale(1, -1)"
	style="font-family:Liberation Serif;font-variant:normal;font-weight:normal;font-style:normal;font-size:12px">reviews</text>
</g>
</svg>
