<?xml version="1.0"?>
<!-- Generated by SVGo and Plotinum VG -->
<svg width="566.93pt" height="350.38pt" viewBox="0 0 566.93 350.38"
	xmlns="http://www.w3.org/2000/svg"
	xmlns:xlink="http://www.w3.org/1999/xlink">
<g transform="scale(1, -1) translate(0, -350.38)">
<path d="M0,0L566.93,0L566.93,350.38L0,350.38Z" style="fill:#FFFFFF" />
<text x="292.23" y="-3.9023" transform="scale(1, -1)"
	style="font-family:Liberation Serif;font-variant:normal;font-weight:normal;font-style:normal;font-size:12px">Year</text>
<text x="124.18" y="-16.541" transform="scale(1, -1)"
	style="font-family:Liberation Serif;font-variant:normal;font-weight:normal;font-style:normal;font-size:10px">2015</text>
<text x="335.56" y="-16.541" transform="scale(1, -1)"
	style="font-family:Liberation Serif;font-variant:normal;font-weight:normal;font-style:normal;font-size:10px">2020</text>
<text x="546.93" y="-16.541" transform="scale(1, -1)"
	style="font-family:Liberation Serif;font-variant:normal;font-weight:normal;font-style:normal;font-size:10px">2025</text>
<path d="M134.18,24.363L134.18,32.363" style="fill:none;stroke:#000000;stroke-width:0.5" />
<path d="M345.56,24.363L345.56,32.363" style="fill:none;stroke:#000000;stroke-width:0.5" />
<path d="M556.93,24.363L556.93,32.363" style="fill:none;stroke:#000000;stroke-width:0.5" />
<path d="M91.909,28.363L91.909,32.363" style="fill:none;stroke:#000000;stroke-width:0.5" />
<path d="M176.46,28.363L176.46,32.363" style="fill:none;stroke:#000000;stroke-width:0.5" />
<path d="M218.73,28.363L218.73,32.363" style="fill:none;stroke:#000000;stroke-width:0.5" />
<path d="M261.01,28.363L261.01,32.363" style="fill:none;stroke:#000000;stroke-width:0.5" />
<path d="M303.28,28.363L303.28,32.363" style="fill:none;stroke:#000000;stroke-width:0.5" />
<path d="M387.83,28.363L387.83,32.363" style="fill:none;stroke:#000000;stroke-width:0.5" />
<path d="M430.11,28.363L430.11,32.363" style="fill:none;stroke:#000000;stroke-width:0.5" />
<path d="M472.38,28.363L472.38,32.363" style="fill:none;stroke:#000000;stroke-width:0.5" />
<path d="M514.65,28.363L514.65,32.363" style="fill:none;stroke:#000000;stroke-width:0.5" />
<path d="M49.635,32.363L556.93,32.363" style="fill:none;stroke:#000000;stroke-width:0.5" />
<g transform="rotate(90)">
<text x="160.99" y="9.3867" transform="scale(1, -1)"
	style="font-family:Liberation Serif;font-variant:normal;font-weight:normal;font-style:normal;font-size:12px">Contributions</text>
</g>
<text x="25.885" y="-37.828" transform="scale(1, -1)"
	style="font-family:Liberation Serif;font-variant:normal;font-weight:normal;font-style:normal;font-size:10px">0</text>
<text x="20.885" y="-131.66" transform="scale(1, -1)"
	style="font-family:Liberation Serif;font-variant:normal;font-weight:normal;font-style:normal;font-size:10px">50</text>
<text x="15.885" y="-225.49" transform="scale(1, -1)"
	style="font-family:Liberation Serif;font-variant:normal;font-weight:normal;font-style:normal;font-size:10px">100</text>
<text x="15.885" y="-319.32" transform="scale(1, -1)"
	style="font-family:Liberation Serif;font-variant:normal;font-weight:normal;font-style:normal;font-size:10px">150</text>
<path d="M33.385,40.113L41.385,40.113" style="fill:none;stroke:#000000;stroke-width:0.5" />
<path d="M33.385,133.95L41.385,133.95" style="fill:none;stroke:#000000;stroke-width:0.5" />
<path d="M33.385,227.78L41.385,227.78" style="fill:none;stroke:#000000;stroke-width:0.5" />
<path d="M33.385,321.61L41.385,321.61" style="fill:none;stroke:#000000;stroke-width:0.5" />
<path d="M37.385,58.88L41.385,58.88" style="fill:none;stroke:#000000;stroke-width:0.5" />
<path d="M37.385,77.646L41.385,77.646" style="fill:none;stroke:#000000;stroke-width:0.5" />
<path d="M37.385,96.412L41.385,96.412" style="fill:none;stroke:#000000;stroke-width:0.5" />
<path d="M37.385,115.18L41.385,115.18" style="fill:none;stroke:#000000;stroke-width:0.5" />
<path d="M37.385,152.71L41.385,152.71" style="fill:none;stroke:#000000;stroke-width:0.5" />
<path d="M37.385,171.48L41.385,171.48" style="fill:none;stroke:#000000;stroke-width:0.5" />
<path d="M37.385,190.24L41.385,190.24" style="fill:none;stroke:#000000;stroke-width:0.5" />
<path d="M37.385,209.01L41.385,209.01" style="fill:none;stroke:#000000;stroke-width:0.5" />
<path d="M37.385,246.54L41.385,246.54" style="fill:none;stroke:#000000;stroke-width:0.5" />
<path d="M37.385,265.31L41.385,265.31" style="fill:none;stroke:#000000;stroke-width:0.5" />
<path d="M37.385,284.08L41.385,284.08" style="fill:none;stroke:#000000;stroke-width:0.5" />
<path d="M37.385,302.84L41.385,302.84" style="fill:none;stroke:#000000;stroke-width:0.5" />
<path d="M37.385,340.37L41.385,340.37" style="fill:none;stroke:#000000;stroke-width:0.5" />
<path d="M41.385,40.113L41.385,347.88" style="fill:none;stroke:#000000;stroke-width:0.5" />
<path d="M49.635,40.113L91.909,40.113L134.18,40.113L176.46,40.113L218.73,40.113L261.01,40.113L303.28,77.646L345.56,188.37L387.83,105.8L430.11,47.62L472.38,73.893L514.65,43.867L556.93,41.99" style="fill:none;stroke:#F15A60" />
<path d="M52.135,40.113A2.5,2.5 0 1 1 47.135,40.113A2.5,2.5 0 1 1 52.135,40.113Z" style="fill:none;stroke:#F15A60;stroke-width:0.5" />
<path d="M94.409,40.113A2.5,2.5 0 1 1 89.409,40.113A2.5,2.5 0 1 1 94.409,40.113Z" style="fill:none;stroke:#F15A60;stroke-width:0.5" />
<path d="M136.68,40.113A2.5,2.5 0 1 1 131.68,40.113A2.5,2.5 0 1 1 136.68,40.113Z" style="fill:none;stroke:#F15A60;stroke-width:0.5" />
<path d="M178.96,40.113A2.5,2.5 0 1 1 173.96,40.113A2.5,2.5 0 1 1 178.96,40.113Z" style="fill:none;stroke:#F15A60;stroke-width:0.5" />
<path d="M221.23,40.113A2.5,2.5 0 1 1 216.23,40.113A2.5,2.5 0 1 1 221.23,40.113Z" style="fill:none;stroke:#F15A60;stroke-width:0.5" />
<path d="M263.51,40.113A2.5,2.5 0 1 1 258.51,40.113A2.5,2.5 0 1 1 263.51,40.113Z" style="fill:none;stroke:#F15A60;stroke-width:0.5" />
<path d="M305.78,77.646A2.5,2.5 0 1 1 300.78,77.646A2.5,2.5 0 1 1 305.78,77.646Z" style="fill:none;stroke:#F15A60;stroke-width:0.5" />
<path d="M348.06,188.37A2.5,2.5 0 1 1 343.06,188.37A2.5,2.5 0 1 1 348.06,188.37Z" style="fill:none;stroke:#F15A60;stroke-width:0.5" />
<path d="M390.33,105.8A2.5,2.5 0 1 1 385.33,105.8A2.5,2.5 0 1 1 390.33,105.8Z" style="fill:none;stroke:#F15A60;stroke-width:0.5" />
<path d="M432.61,47.62A2.5,2.5 0 1 1 427.61,47.62A2.5,2.5 0 1 1 432.61,47.62Z" style="fill:none;stroke:#F15A60;stroke-width:0.5" />
<path d="M474.88,73.893A2.5,2.5 0 1 1 469.88,73.893A2.5,2.5 0 1 1 474.88,73.893Z" style="fill:none;stroke:#F15A60;stroke-width:0.5" />
<path d="M517.15,43.867A2.5,2.5 0 1 1 512.15,43.867A2.5,2.5 0 1 1 517.15,43.867Z" style="fill:none;stroke:#F15A60;stroke-width:0.5" />
<path d="M559.43,41.99A2.5,2.5 0 1 1 554.43,41.99A2.5,2.5 0 1 1 559.43,41.99Z" style="fill:none;stroke:#F15A60;stroke-width:0.5" />
<path d="M49.635,40.113L91.909,40.113L134.18,40.113L176.46,40.113L218.73,40.113L261.01,41.99L303.28,111.43L345.56,285.95L387.83,257.8L430.11,190.24L472.38,347.88L514.65,231.53L556.93,40.113" style="fill:none;stroke:#7AC36A;stroke-dasharray:6,2" />
<path d="M47.501,37.979L51.769,37.979L51.769,42.247L47.501,42.247Z" style="fill:none;stroke:#7AC36A;stroke-width:0.5" />
<path d="M89.775,37.979L94.043,37.979L94.043,42.247L89.775,42.247Z" style="fill:none;stroke:#7AC36A;stroke-width:0.5" />
<path d="M132.05,37.979L136.32,37.979L136.32,42.247L132.05,42.247Z" style="fill:none;stroke:#7AC36A;stroke-width:0.5" />
<path d="M174.32,37.979L178.59,37.979L178.59,42.247L174.32,42.247Z" style="fill:none;stroke:#7AC36A;stroke-width:0.5" />
<path d="M216.6,37.979L220.87,37.979L220.87,42.247L216.6,42.247Z" style="fill:none;stroke:#7AC36A;stroke-width:0.5" />
<path d="M258.87,39.856L263.14,39.856L263.14,44.124L258.87,44.124Z" style="fill:none;stroke:#7AC36A;stroke-width:0.5" />
<path d="M301.15,109.29L305.42,109.29L305.42,113.56L301.15,113.56Z" style="fill:none;stroke:#7AC36A;stroke-width:0.5" />
<path d="M343.42,283.82L347.69,283.82L347.69,288.09L343.42,288.09Z" style="fill:none;stroke:#7AC36A;stroke-width:0.5" />
<path d="M385.7,255.67L389.96,255.67L389.96,259.94L385.7,259.94Z" style="fill:none;stroke:#7AC36A;stroke-width:0.5" />
<path d="M427.97,188.11L432.24,188.11L432.24,192.38L427.97,192.38Z" style="fill:none;stroke:#7AC36A;stroke-width:0.5" />
<path d="M470.25,345.75L474.51,345.75L474.51,350.02L470.25,350.02Z" style="fill:none;stroke:#7AC36A;stroke-width:0.5" />
<path d="M512.52,229.4L516.79,229.4L516.79,233.66L512.52,233.66Z" style="fill:none;stroke:#7AC36A;stroke-width:0.5" />
<path d="M554.8,37.979L559.06,37.979L559.06,42.247L554.8,42.247Z" style="fill:none;stroke:#7AC36A;stroke-width:0.5" />
<path d="M49.635,40.113L91.909,40.113L134.18,40.113L176.46,40.113L218.73,40.113L261.01,40.113L303.28,40.113L345.56,40.113L387.83,45.743L430.11,49.496L472.38,205.26L514.65,66.386L556.93,41.99" style="fill:none;stroke:#5A9BD4;stroke-dasharray:2,2" />
<path d="M49.635,43.238L46.928,38.551L52.341,38.551Z" style="fill:none;stroke:#5A9BD4;stroke-width:0.5" />
<path d="M91.909,43.238L89.203,38.551L94.616,38.551Z" style="fill:none;stroke:#5A9BD4;stroke-width:0.5" />
<path d="M134.18,43.238L131.48,38.551L136.89,38.551Z" style="fill:none;stroke:#5A9BD4;stroke-width:0.5" />
<path d="M176.46,43.238L173.75,38.551L179.16,38.551Z" style="fill:none;stroke:#5A9BD4;stroke-width:0.5" />
<path d="M218.73,43.238L216.03,38.551L221.44,38.551Z" style="fill:none;stroke:#5A9BD4;stroke-width:0.5" />
<path d="M261.01,43.238L258.3,38.551L263.71,38.551Z" style="fill:none;stroke:#5A9BD4;stroke-width:0.5" />
<path d="M303.28,43.238L300.58,38.551L305.99,38.551Z" style="fill:none;stroke:#5A9BD4;stroke-width:0.5" />
<path d="M345.56,43.238L342.85,38.551L348.26,38.551Z" style="fill:none;stroke:#5A9BD4;stroke-width:0.5" />
<path d="M387.83,48.868L385.12,44.181L390.54,44.181Z" style="fill:none;stroke:#5A9BD4;stroke-width:0.5" />
<path d="M430.11,52.621L427.4,47.934L432.81,47.934Z" style="fill:none;stroke:#5A9BD4;stroke-width:0.5" />
<path d="M472.38,208.38L469.67,203.69L475.09,203.69Z" style="fill:none;stroke:#5A9BD4;stroke-width:0.5" />
<path d="M514.65,69.511L511.95,64.824L517.36,64.824Z" style="fill:none;stroke:#5A9BD4;stroke-width:0.5" />
<path d="M556.93,45.115L554.22,40.427L559.64,40.427Z" style="fill:none;stroke:#5A9BD4;stroke-width:0.5" />
<path d="M546.93,63.072L566.93,63.072" style="fill:none;stroke:#F15A60" />
<path d="M559.43,63.072A2.5,2.5 0 1 1 554.43,63.072A2.5,2.5 0 1 1 559.43,63.072Z" style="fill:none;stroke:#F15A60;stroke-width:0.5" />
<text x="515.26" y="-60.585" transform="scale(1, -1)"
	style="font-family:Liberation Serif;font-variant:normal;font-weight:normal;font-style:normal;font-size:12px">issues</text>
<path d="M546.93,52.889L566.93,52.889" style="fill:none;stroke:#7AC36A;stroke-dasharray:6,2" />
<path d="M554.8,50.755L559.06,50.755L559.06,55.023L554.8,55.023Z" style="fill:none;stroke:#7AC36A;stroke-width:0.5" />
<text x="524.58" y="-50.401" transform="scale(1, -1)"
	style="font-family:Liberation Serif;font-variant:normal;font-weight:normal;font-style:normal;font-size:12px">PRs</text>
<path d="M546.93,42.705L566.93,42.705" style="fill:none;stroke:#5A9BD4;stroke-dasharray:2,2" />
<path d="M556.93,45.83L554.22,41.143L559.64,41.143Z" style="fill:none;stroke:#5A9BD4;stroke-width:0.5" />
<text x="506.61" y="-40.218" transform="scale(1, -1)"
	style="font-family:Liberation Serif;font-variant:normal;font-weight:normal;font-style:normal;font-size:12px">reviews</text>
</g>
</svg>
