<?xml version="1.0"?>
<!-- Generated by SVGo and Plotinum VG -->
<svg width="566.93pt" height="350.38pt" viewBox="0 0 566.93 350.38"
	xmlns="http://www.w3.org/2000/svg"
	xmlns:xlink="http://www.w3.org/1999/xlink">
<g transform="scale(1, -1) translate(0, -350.38)">
<path d="M0,0L566.93,0L566.93,350.38L0,350.38Z" style="fill:#FFFFFF" />
<text x="292.23" y="-3.9023" transform="scale(1, -1)"
	style="font-family:Liberation Serif;font-variant:normal;font-weight:normal;font-style:normal;font-size:12px">Year</text>
<text x="124.18" y="-16.541" transform="scale(1, -1)"
	style="font-family:Liberation Serif;font-variant:normal;font-weight:normal;font-style:normal;font-size:10px">2015</text>
<text x="335.56" y="-16.541" transform="scale(1, -1)"
	style="font-family:Liberation Serif;font-variant:normal;font-weight:normal;font-style:normal;font-size:10px">2020</text>
<text x="546.93" y="-16.541" transform="scale(1, -1)"
	style="font-family:Liberation Serif;font-variant:normal;font-weight:normal;font-style:normal;font-size:10px">2025</text>
<path d="M134.18,24.363L134.18,32.363" style="fill:none;stroke:#000000;stroke-width:0.5" />
<path d="M345.56,24.363L345.56,32.363" style="fill:none;stroke:#000000;stroke-width:0.5" />
<path d="M556.93,24.363L556.93,32.363" style="fill:none;stroke:#000000;stroke-width:0.5" />
<path d="M91.909,28.363L91.909,32.363" style="fill:none;stroke:#000000;stroke-width:0.5" />
<path d="M176.46,28.363L176.46,32.363" style="fill:none;stroke:#000000;stroke-width:0.5" />
<path d="M218.73,28.363L218.73,32.363" style="fill:none;stroke:#000000;stroke-width:0.5" />
<path d="M261.01,28.363L261.01,32.363" style="fill:none;stroke:#000000;stroke-width:0.5" />
<path d="M303.28,28.363L303.28,32.363" style="fill:none;stroke:#000000;stroke-width:0.5" />
<path d="M387.83,28.363L387.83,32.363" style="fill:none;stroke:#000000;stroke-width:0.5" />
<path d="M430.11,28.363L430.11,32.363" style="fill:none;stroke:#000000;stroke-width:0.5" />
<path d="M472.38,28.363L472.38,32.363" style="fill:none;stroke:#000000;stroke-width:0.5" />
<path d="M514.65,28.363L514.65,32.363" style="fill:none;stroke:#000000;stroke-width:0.5" />
<path d="M49.635,32.363L556.93,32.363" style="fill:none;stroke:#000000;stroke-width:0.5" />
<g transform="rotate(90)">
<text x="160.99" y="9.3867" transform="scale(1, -1)"
	style="font-family:Liberation Serif;font-variant:normal;font-weight:normal;font-style:normal;font-size:12px">Contributions</text>
</g>
<text x="25.885" y="-37.828" transform="scale(1, -1)"
	style="font-family:Liberation Serif;font-variant:normal;font-weight:normal;font-style:normal;font-size:10px">0</text>
<text x="20.885" y="-131.8" transform="scale(1, -1)"
	style="font-family:Liberation Serif;font-variant:normal;font-weight:normal;font-style:normal;font-size:10px">40</text>
<text x="20.885" y="-225.78" transform="scale(1, -1)"
	style="font-family:Liberation Serif;font-variant:normal;font-weight:normal;font-style:normal;font-size:10px">80</text>
<text x="15.885" y="-319.75" transform="scale(1, -1)"
	style="font-family:Liberation Serif;font-variant:normal;font-weight:normal;font-style:normal;font-size:10px">120</text>
<path d="M33.385,40.113L41.385,40.113" style="fill:none;stroke:#000000;stroke-width:0.5" />
<path d="M33.385,134.09L41.385,134.09" style="fill:none;stroke:#000000;stroke-width:0.5" />
<path d="M33.385,228.06L41.385,228.06" style="fill:none;stroke:#000000;stroke-width:0.5" />
<path d="M33.385,322.04L41.385,322.04" style="fill:none;stroke:#000000;stroke-width:0.5" />
<path d="M37.385,63.607L41.385,63.607" style="fill:none;stroke:#000000;stroke-width:0.5" />
<path d="M37.385,87.101L41.385,87.101" style="fill:none;stroke:#000000;stroke-width:0.5" />
<path d="M37.385,110.59L41.385,110.59" style="fill:none;stroke:#000000;stroke-width:0.5" />
<path d="M37.385,157.58L41.385,157.58" style="fill:none;stroke:#000000;stroke-width:0.5" />
<path d="M37.385,181.08L41.385,181.08" style="fill:none;stroke:#000000;stroke-width:0.5" />
<path d="M37.385,204.57L41.385,204.57" style="fill:none;stroke:#000000;stroke-width:0.5" />
<path d="M37.385,251.56L41.385,251.56" style="fill:none;stroke:#000000;stroke-width:0.5" />
<path d="M37.385,275.05L41.385,275.05" style="fill:none;stroke:#000000;stroke-width:0.5" />
<path d="M37.385,298.54L41.385,298.54" style="fill:none;stroke:#000000;stroke-width:0.5" />
<path d="M37.385,345.53L41.385,345.53" style="fill:none;stroke:#000000;stroke-width:0.5" />
<path d="M41.385,40.113L41.385,347.88" style="fill:none;stroke:#000000;stroke-width:0.5" />
<path d="M49.635,40.113L91.909,40.113L134.18,40.113L176.46,40.113L218.73,40.113L261.01,40.113L303.28,87.101L345.56,225.71L387.83,122.34L430.11,49.511L472.38,54.21L514.65,44.812L556.93,150.53" style="fill:none;stroke:#F15A60" />
<path d="M52.135,40.113A2.5,2.5 0 1 1 47.135,40.113A2.5,2.5 0 1 1 52.135,40.113Z" style="fill:none;stroke:#F15A60;stroke-width:0.5" />
<path d="M94.409,40.113A2.5,2.5 0 1 1 89.409,40.113A2.5,2.5 0 1 1 94.409,40.113Z" style="fill:none;stroke:#F15A60;stroke-width:0.5" />
<path d="M136.68,40.113A2.5,2.5 0 1 1 131.68,40.113A2.5,2.5 0 1 1 136.68,40.113Z" style="fill:none;stroke:#F15A60;stroke-width:0.5" />
<path d="M178.96,40.113A2.5,2.5 0 1 1 173.96,40.113A2.5,2.5 0 1 1 178.96,40.113Z" style="fill:none;stroke:#F15A60;stroke-width:0.5" />
<path d="M221.23,40.113A2.5,2.5 0 1 1 216.23,40.113A2.5,2.5 0 1 1 221.23,40.113Z" style="fill:none;stroke:#F15A60;stroke-width:0.5" />
<path d="M263.51,40.113A2.5,2.5 0 1 1 258.51,40.113A2.5,2.5 0 1 1 263.51,40.113Z" style="fill:none;stroke:#F15A60;stroke-width:0.5" />
<path d="M305.78,87.101A2.5,2.5 0 1 1 300.78,87.101A2.5,2.5 0 1 1 305.78,87.101Z" style="fill:none;stroke:#F15A60;stroke-width:0.5" />
<path d="M348.06,225.71A2.5,2.5 0 1 1 343.06,225.71A2.5,2.5 0 1 1 348.06,225.71Z" style="fill:none;stroke:#F15A60;stroke-width:0.5" />
<path d="M390.33,122.34A2.5,2.5 0 1 1 385.33,122.34A2.5,2.5 0 1 1 390.33,122.34Z" style="fill:none;stroke:#F15A60;stroke-width:0.5" />
<path d="M432.61,49.511A2.5,2.5 0 1 1 427.61,49.511A2.5,2.5 0 1 1 432.61,49.511Z" style="fill:none;stroke:#F15A60;stroke-width:0.5" />
<path d="M474.88,54.21A2.5,2.5 0 1 1 469.88,54.21A2.5,2.5 0 1 1 474.88,54.21Z" style="fill:none;stroke:#F15A60;stroke-width:0.5" />
<path d="M517.15,44.812A2.5,2.5 0 1 1 512.15,44.812A2.5,2.5 0 1 1 517.15,44.812Z" style="fill:none;stroke:#F15A60;stroke-width:0.5" />
<path d="M559.43,150.53A2.5,2.5 0 1 1 554.43,150.53A2.5,2.5 0 1 1 559.43,150.53Z" style="fill:none;stroke:#F15A60;stroke-width:0.5" />
<path d="M49.635,40.113L91.909,40.113L134.18,40.113L176.46,40.113L218.73,40.113L261.01,42.463L303.28,129.39L345.56,347.88L387.83,312.64L430.11,228.06L472.38,275.05L514.65,246.86L556.93,263.3" style="fill:none;stroke:#7AC36A;stroke-dasharray:6,2" />
<path d="M47.501,37.979L51.769,37.979L51.769,42.247L47.501,42.247Z" style="fill:none;stroke:#7AC36A;stroke-width:0.5" />
<path d="M89.775,37.979L94.043,37.979L94.043,42.247L89.775,42.247Z" style="fill:none;stroke:#7AC36A;stroke-width:0.5" />
<path d="M132.05,37.979L136.32,37.979L136.32,42.247L132.05,42.247Z" style="fill:none;stroke:#7AC36A;stroke-width:0.5" />
<path d="M174.32,37.979L178.59,37.979L178.59,42.247L174.32,42.247Z" style="fill:none;stroke:#7AC36A;stroke-width:0.5" />
<path d="M216.6,37.979L220.87,37.979L220.87,42.247L216.6,42.247Z" style="fill:none;stroke:#7AC36A;stroke-width:0.5" />
<path d="M258.87,40.329L263.14,40.329L263.14,44.597L258.87,44.597Z" style="fill:none;stroke:#7AC36A;stroke-width:0.5" />
<path d="M301.15,127.26L305.42,127.26L305.42,131.52L301.15,131.52Z" style="fill:none;stroke:#7AC36A;stroke-width:0.5" />
<path d="M343.42,345.75L347.69,345.75L347.69,350.02L343.42,350.02Z" style="fill:none;stroke:#7AC36A;stroke-width:0.5" />
<path d="M385.7,310.51L389.96,310.51L389.96,314.77L385.7,314.77Z" style="fill:none;stroke:#7AC36A;stroke-width:0.5" />
<path d="M427.97,225.93L432.24,225.93L432.24,230.2L427.97,230.2Z" style="fill:none;stroke:#7AC36A;stroke-width:0.5" />
<path d="M470.25,272.92L474.51,272.92L474.51,277.18L470.25,277.18Z" style="fill:none;stroke:#7AC36A;stroke-width:0.5" />
<path d="M512.52,244.72L516.79,244.72L516.79,248.99L512.52,248.99Z" style="fill:none;stroke:#7AC36A;stroke-width:0.5" />
<path d="M554.8,261.17L559.06,261.17L559.06,265.44L554.8,265.44Z" style="fill:none;stroke:#7AC36A;stroke-width:0.5" />
<path d="M49.635,40.113L91.909,40.113L134.18,40.113L176.46,40.113L218.73,40.113L261.01,40.113L303.28,40.113L345.56,40.113L387.83,47.161L430.11,51.86L472.38,47.161L514.65,56.559L556.93,115.29" style="fill:none;stroke:#5A9BD4;stroke-dasharray:2,2" />
<path d="M49.635,43.238L46.928,38.551L52.341,38.551Z" style="fill:none;stroke:#5A9BD4;stroke-width:0.5" />
<path d="M91.909,43.238L89.203,38.551L94.616,38.551Z" style="fill:none;stroke:#5A9BD4;stroke-width:0.5" />
<path d="M134.18,43.238L131.48,38.551L136.89,38.551Z" style="fill:none;stroke:#5A9BD4;stroke-width:0.5" />
<path d="M176.46,43.238L173.75,38.551L179.16,38.551Z" style="fill:none;stroke:#5A9BD4;stroke-width:0.5" />
<path d="M218.73,43.238L216.03,38.551L221.44,38.551Z" style="fill:none;stroke:#5A9BD4;stroke-width:0.5" />
<path d="M261.01,43.238L258.3,38.551L263.71,38.551Z" style="fill:none;stroke:#5A9BD4;stroke-width:0.5" />
<path d="M303.28,43.238L300.58,38.551L305.99,38.551Z" style="fill:none;stroke:#5A9BD4;stroke-width:0.5" />
<path d="M345.56,43.238L342.85,38.551L348.26,38.551Z" style="fill:none;stroke:#5A9BD4;stroke-width:0.5" />
<path d="M387.83,50.286L385.12,45.599L390.54,45.599Z" style="fill:none;stroke:#5A9BD4;stroke-width:0.5" />
<path d="M430.11,54.985L427.4,50.298L432.81,50.298Z" style="fill:none;stroke:#5A9BD4;stroke-width:0.5" />
<path d="M472.38,50.286L469.67,45.599L475.09,45.599Z" style="fill:none;stroke:#5A9BD4;stroke-width:0.5" />
<path d="M514.65,59.684L511.95,54.996L517.36,54.996Z" style="fill:none;stroke:#5A9BD4;stroke-width:0.5" />
<path d="M556.93,118.42L554.22,113.73L559.64,113.73Z" style="fill:none;stroke:#5A9BD4;stroke-width:0.5" />
<path d="M546.93,63.072L566.93,63.072" style="fill:none;stroke:#F15A60" />
<path d="M559.43,63.072A2.5,2.5 0 1 1 554.43,63.072A2.5,2.5 0 1 1 559.43,63.072Z" style="fill:none;stroke:#F15A60;stroke-width:0.5" />
<text x="515.26" y="-60.585" transform="scale(1, -1)"
	style="font-family:Liberation Serif;font-variant:normal;font-weight:normal;font-style:normal;font-size:12px">issues</text>
<path d="M546.93,52.889L566.93,52.889" style="fill:none;stroke:#7AC36A;stroke-dasharray:6,2" />
<path d="M554.8,50.755L559.06,50.755L559.06,55.023L554.8,55.023Z" style="fill:none;stroke:#7AC36A;stroke-width:0.5" />
<text x="524.58" y="-50.401" transform="scale(1, -1)"
	style="font-family:Liberation Serif;font-variant:normal;font-weight:normal;font-style:normal;font-size:12px">PRs</text>
<path d="M546.93,42.705L566.93,42.705" style="fill:none;stroke:#5A9BD4;stroke-dasharray:2,2" />
<path d="M556.93,45.83L554.22,41.143L559.64,41.143Z" style="fill:none;stroke:#5A9BD4;stroke-width:0.5" />
<text x="506.61" y="-40.218" transform="scale(1, -1)"
	style="font-family:Liberation Serif;font-variant:normal;font-weight:normal;font-style:normal;font-size:12px">reviews</text>
</g>
</svg>
