<?xml version="1.0"?>
<!-- Generated by SVGo and Plotinum VG -->
<svg width="566.93pt" height="350.38pt" viewBox="0 0 566.93 350.38"
	xmlns="http://www.w3.org/2000/svg"
	xmlns:xlink="http://www.w3.org/1999/xlink">
<g transform="scale(1, -1) translate(0, -350.38)">
<path d="M0,0L566.93,0L566.93,350.38L0,350.38Z" style="fill:#FFFFFF" />
<text x="298.48" y="-3.9023" transform="scale(1, -1)"
	style="font-family:Liberation Serif;font-variant:normal;font-weight:normal;font-style:normal;font-size:12px">Year</text>
<text x="95.614" y="-16.541" transform="scale(1, -1)"
	style="font-family:Liberation Serif;font-variant:normal;font-weight:normal;font-style:normal;font-size:10px">2014</text>
<text x="299.53" y="-16.541" transform="scale(1, -1)"
	style="font-family:Liberation Serif;font-variant:normal;font-weight:normal;font-style:normal;font-size:10px">2018</text>
<text x="503.45" y="-16.541" transform="scale(1, -1)"
	style="font-family:Liberation Serif;font-variant:normal;font-weight:normal;font-style:normal;font-size:10px">2022</text>
<path d="M105.61,24.363L105.61,32.363" style="fill:none;stroke:#000000;stroke-width:0.5" />
<path d="M309.53,24.363L309.53,32.363" style="fill:none;stroke:#000000;stroke-width:0.5" />
<path d="M513.45,24.363L513.45,32.363" style="fill:none;stroke:#000000;stroke-width:0.5" />
<path d="M156.59,28.363L156.59,32.363" style="fill:none;stroke:#000000;stroke-width:0.5" />
<path d="M207.57,28.363L207.57,32.363" style="fill:none;stroke:#000000;stroke-width:0.5" />
<path d="M258.55,28.363L258.55,32.363" style="fill:none;stroke:#000000;stroke-width:0.5" />
<path d="M360.51,28.363L360.51,32.363" style="fill:none;stroke:#000000;stroke-width:0.5" />
<path d="M411.49,28.363L411.49,32.363" style="fill:none;stroke:#000000;stroke-width:0.5" />
<path d="M462.47,28.363L462.47,32.363" style="fill:none;stroke:#000000;stroke-width:0.5" />
<path d="M564.43,28.363L564.43,32.363" style="fill:none;stroke:#000000;stroke-width:0.5" />
<path d="M54.635,32.363L564.43,32.363" style="fill:none;stroke:#000000;stroke-width:0.5" />
<g transform="rotate(90)">
<text x="149.8" y="9.3867" transform="scale(1, -1)"
	style="font-family:Liberation Serif;font-variant:normal;font-weight:normal;font-style:normal;font-size:12px">Contribution count</text>
</g>
<text x="30.885" y="-40.424" transform="scale(1, -1)"
	style="font-family:Liberation Serif;font-variant:normal;font-weight:normal;font-style:normal;font-size:10px">0</text>
<text x="20.885" y="-140.15" transform="scale(1, -1)"
	style="font-family:Liberation Serif;font-variant:normal;font-weight:normal;font-style:normal;font-size:10px">400</text>
<text x="20.885" y="-239.88" transform="scale(1, -1)"
	style="font-family:Liberation Serif;font-variant:normal;font-weight:normal;font-style:normal;font-size:10px">800</text>
<text x="15.885" y="-339.61" transform="scale(1, -1)"
	style="font-family:Liberation Serif;font-variant:normal;font-weight:normal;font-style:normal;font-size:10px">1200</text>
<path d="M38.385,42.709L46.385,42.709" style="fill:none;stroke:#000000;stroke-width:0.5" />
<path d="M38.385,142.44L46.385,142.44" style="fill:none;stroke:#000000;stroke-width:0.5" />
<path d="M38.385,242.17L46.385,242.17" style="fill:none;stroke:#000000;stroke-width:0.5" />
<path d="M38.385,341.9L46.385,341.9" style="fill:none;stroke:#000000;stroke-width:0.5" />
<path d="M42.385,67.641L46.385,67.641" style="fill:none;stroke:#000000;stroke-width:0.5" />
<path d="M42.385,92.574L46.385,92.574" style="fill:none;stroke:#000000;stroke-width:0.5" />
<path d="M42.385,117.51L46.385,117.51" style="fill:none;stroke:#000000;stroke-width:0.5" />
<path d="M42.385,167.37L46.385,167.37" style="fill:none;stroke:#000000;stroke-width:0.5" />
<path d="M42.385,192.3L46.385,192.3" style="fill:none;stroke:#000000;stroke-width:0.5" />
<path d="M42.385,217.24L46.385,217.24" style="fill:none;stroke:#000000;stroke-width:0.5" />
<path d="M42.385,267.1L46.385,267.1" style="fill:none;stroke:#000000;stroke-width:0.5" />
<path d="M42.385,292.03L46.385,292.03" style="fill:none;stroke:#000000;stroke-width:0.5" />
<path d="M42.385,316.97L46.385,316.97" style="fill:none;stroke:#000000;stroke-width:0.5" />
<path d="M46.385,42.709L46.385,347.88" style="fill:none;stroke:#000000;stroke-width:0.5" />
<path d="M54.635,42.709L105.61,42.709L156.59,42.709L207.57,46.449L258.55,52.682L309.53,47.197L360.51,51.934L411.49,149.42L462.47,185.82L513.45,263.61L564.43,347.88" style="fill:none;stroke:#F15A60" />
<path d="M57.135,42.709A2.5,2.5 0 1 1 52.135,42.709A2.5,2.5 0 1 1 57.135,42.709Z" style="fill:none;stroke:#F15A60;stroke-width:0.5" />
<path d="M108.11,42.709A2.5,2.5 0 1 1 103.11,42.709A2.5,2.5 0 1 1 108.11,42.709Z" style="fill:none;stroke:#F15A60;stroke-width:0.5" />
<path d="M159.09,42.709A2.5,2.5 0 1 1 154.09,42.709A2.5,2.5 0 1 1 159.09,42.709Z" style="fill:none;stroke:#F15A60;stroke-width:0.5" />
<path d="M210.07,46.449A2.5,2.5 0 1 1 205.07,46.449A2.5,2.5 0 1 1 210.07,46.449Z" style="fill:none;stroke:#F15A60;stroke-width:0.5" />
<path d="M261.05,52.682A2.5,2.5 0 1 1 256.05,52.682A2.5,2.5 0 1 1 261.05,52.682Z" style="fill:none;stroke:#F15A60;stroke-width:0.5" />
<path d="M312.03,47.197A2.5,2.5 0 1 1 307.03,47.197A2.5,2.5 0 1 1 312.03,47.197Z" style="fill:none;stroke:#F15A60;stroke-width:0.5" />
<path d="M363.01,51.934A2.5,2.5 0 1 1 358.01,51.934A2.5,2.5 0 1 1 363.01,51.934Z" style="fill:none;stroke:#F15A60;stroke-width:0.5" />
<path d="M413.99,149.42A2.5,2.5 0 1 1 408.99,149.42A2.5,2.5 0 1 1 413.99,149.42Z" style="fill:none;stroke:#F15A60;stroke-width:0.5" />
<path d="M464.97,185.82A2.5,2.5 0 1 1 459.97,185.82A2.5,2.5 0 1 1 464.97,185.82Z" style="fill:none;stroke:#F15A60;stroke-width:0.5" />
<path d="M515.95,263.61A2.5,2.5 0 1 1 510.95,263.61A2.5,2.5 0 1 1 515.95,263.61Z" style="fill:none;stroke:#F15A60;stroke-width:0.5" />
<path d="M566.93,347.88A2.5,2.5 0 1 1 561.93,347.88A2.5,2.5 0 1 1 566.93,347.88Z" style="fill:none;stroke:#F15A60;stroke-width:0.5" />
<path d="M54.635,42.709L105.61,42.709L156.59,42.709L207.57,42.709L258.55,42.709L309.53,42.709L360.51,47.695L411.49,62.406L462.47,51.435L513.45,43.706L564.43,47.197" style="fill:none;stroke:#7AC36A;stroke-dasharray:6,2" />
<path d="M52.501,40.575L56.769,40.575L56.769,44.843L52.501,44.843Z" style="fill:none;stroke:#7AC36A;stroke-width:0.5" />
<path d="M103.48,40.575L107.75,40.575L107.75,44.843L103.48,44.843Z" style="fill:none;stroke:#7AC36A;stroke-width:0.5" />
<path d="M154.46,40.575L158.73,40.575L158.73,44.843L154.46,44.843Z" style="fill:none;stroke:#7AC36A;stroke-width:0.5" />
<path d="M205.44,40.575L209.71,40.575L209.71,44.843L205.44,44.843Z" style="fill:none;stroke:#7AC36A;stroke-width:0.5" />
<path d="M256.42,40.575L260.69,40.575L260.69,44.843L256.42,44.843Z" style="fill:none;stroke:#7AC36A;stroke-width:0.5" />
<path d="M307.4,40.575L311.67,40.575L311.67,44.843L307.4,44.843Z" style="fill:none;stroke:#7AC36A;stroke-width:0.5" />
<path d="M358.38,45.562L362.65,45.562L362.65,49.829L358.38,49.829Z" style="fill:none;stroke:#7AC36A;stroke-width:0.5" />
<path d="M409.36,60.272L413.62,60.272L413.62,64.539L409.36,64.539Z" style="fill:none;stroke:#7AC36A;stroke-width:0.5" />
<path d="M460.34,49.301L464.6,49.301L464.6,53.569L460.34,53.569Z" style="fill:none;stroke:#7AC36A;stroke-width:0.5" />
<path d="M511.32,41.572L515.58,41.572L515.58,45.84L511.32,45.84Z" style="fill:none;stroke:#7AC36A;stroke-width:0.5" />
<path d="M562.3,45.063L566.56,45.063L566.56,49.331L562.3,49.331Z" style="fill:none;stroke:#7AC36A;stroke-width:0.5" />
<path d="M54.635,42.709L105.61,42.709L156.59,42.709L207.57,42.709L258.55,42.709L309.53,42.958L360.51,52.183L411.49,75.37L462.47,71.631L513.45,62.655L564.43,83.598" style="fill:none;stroke:#5A9BD4;stroke-dasharray:2,2" />
<path d="M54.635,45.834L51.928,41.146L57.341,41.146Z" style="fill:none;stroke:#5A9BD4;stroke-width:0.5" />
<path d="M105.61,45.834L102.91,41.146L108.32,41.146Z" style="fill:none;stroke:#5A9BD4;stroke-width:0.5" />
<path d="M156.59,45.834L153.89,41.146L159.3,41.146Z" style="fill:none;stroke:#5A9BD4;stroke-width:0.5" />
<path d="M207.57,45.834L204.87,41.146L210.28,41.146Z" style="fill:none;stroke:#5A9BD4;stroke-width:0.5" />
<path d="M258.55,45.834L255.85,41.146L261.26,41.146Z" style="fill:none;stroke:#5A9BD4;stroke-width:0.5" />
<path d="M309.53,46.083L306.83,41.396L312.24,41.396Z" style="fill:none;stroke:#5A9BD4;stroke-width:0.5" />
<path d="M360.51,55.308L357.81,50.621L363.22,50.621Z" style="fill:none;stroke:#5A9BD4;stroke-width:0.5" />
<path d="M411.49,78.495L408.78,73.808L414.2,73.808Z" style="fill:none;stroke:#5A9BD4;stroke-width:0.5" />
<path d="M462.47,74.756L459.76,70.068L465.18,70.068Z" style="fill:none;stroke:#5A9BD4;stroke-width:0.5" />
<path d="M513.45,65.78L510.74,61.092L516.16,61.092Z" style="fill:none;stroke:#5A9BD4;stroke-width:0.5" />
<path d="M564.43,86.723L561.72,82.036L567.14,82.036Z" style="fill:none;stroke:#5A9BD4;stroke-width:0.5" />
<path d="M54.635,42.709L105.61,42.709L156.59,42.709L207.57,42.709L258.55,42.709L309.53,42.709L360.51,42.709L411.49,42.709L462.47,43.457L513.45,43.956L564.43,64.649" style="fill:none;stroke:#FAA75B;stroke-dasharray:1,1" />
<path d="M52.867,40.941L56.403,44.477" style="fill:none;stroke:#FAA75B;stroke-width:0.5" />
<path d="M52.867,44.477L56.403,40.941" style="fill:none;stroke:#FAA75B;stroke-width:0.5" />
<path d="M103.85,40.941L107.38,44.477" style="fill:none;stroke:#FAA75B;stroke-width:0.5" />
<path d="M103.85,44.477L107.38,40.941" style="fill:none;stroke:#FAA75B;stroke-width:0.5" />
<path d="M154.83,40.941L158.36,44.477" style="fill:none;stroke:#FAA75B;stroke-width:0.5" />
<path d="M154.83,44.477L158.36,40.941" style="fill:none;stroke:#FAA75B;stroke-width:0.5" />
<path d="M205.81,40.941L209.34,44.477" style="fill:none;stroke:#FAA75B;stroke-width:0.5" />
<path d="M205.81,44.477L209.34,40.941" style="fill:none;stroke:#FAA75B;stroke-width:0.5" />
<path d="M256.78,40.941L260.32,44.477" style="fill:none;stroke:#FAA75B;stroke-width:0.5" />
<path d="M256.78,44.477L260.32,40.941" style="fill:none;stroke:#FAA75B;stroke-width:0.5" />
<path d="M307.76,40.941L311.3,44.477" style="fill:none;stroke:#FAA75B;stroke-width:0.5" />
<path d="M307.76,44.477L311.3,40.941" style="fill:none;stroke:#FAA75B;stroke-width:0.5" />
<path d="M358.74,40.941L362.28,44.477" style="fill:none;stroke:#FAA75B;stroke-width:0.5" />
<path d="M358.74,44.477L362.28,40.941" style="fill:none;stroke:#FAA75B;stroke-width:0.5" />
<path d="M409.72,40.941L413.26,44.477" style="fill:none;stroke:#FAA75B;stroke-width:0.5" />
<path d="M409.72,44.477L413.26,40.941" style="fill:none;stroke:#FAA75B;stroke-width:0.5" />
<path d="M460.7,41.689L464.24,45.225" style="fill:none;stroke:#FAA75B;stroke-width:0.5" />
<path d="M460.7,45.225L464.24,41.689" style="fill:none;stroke:#FAA75B;stroke-width:0.5" />
<path d="M511.68,42.188L515.22,45.723" style="fill:none;stroke:#FAA75B;stroke-width:0.5" />
<path d="M511.68,45.723L515.22,42.188" style="fill:none;stroke:#FAA75B;stroke-width:0.5" />
<path d="M562.66,62.882L566.2,66.417" style="fill:none;stroke:#FAA75B;stroke-width:0.5" />
<path d="M562.66,66.417L566.2,62.882" style="fill:none;stroke:#FAA75B;stroke-width:0.5" />
<path d="M546.93,75.852L566.93,75.852" style="fill:none;stroke:#F15A60" />
<path d="M559.43,75.852A2.5,2.5 0 1 1 554.43,75.852A2.5,2.5 0 1 1 559.43,75.852Z" style="fill:none;stroke:#F15A60;stroke-width:0.5" />
<text x="502.6" y="-73.364" transform="scale(1, -1)"
	style="font-family:Liberation Serif;font-variant:normal;font-weight:normal;font-style:normal;font-size:12px">commits</text>
<path d="M546.93,65.668L566.93,65.668" style="fill:none;stroke:#7AC36A;stroke-dasharray:6,2" />
<path d="M554.8,63.534L559.06,63.534L559.06,67.802L554.8,67.802Z" style="fill:none;stroke:#7AC36A;stroke-width:0.5" />
<text x="515.26" y="-63.181" transform="scale(1, -1)"
	style="font-family:Liberation Serif;font-variant:normal;font-weight:normal;font-style:normal;font-size:12px">issues</text>
<path d="M546.93,55.484L566.93,55.484" style="fill:none;stroke:#5A9BD4;stroke-dasharray:2,2" />
<path d="M556.93,58.609L554.22,53.922L559.64,53.922Z" style="fill:none;stroke:#5A9BD4;stroke-width:0.5" />
<text x="524.58" y="-52.997" transform="scale(1, -1)"
	style="font-family:Liberation Serif;font-variant:normal;font-weight:normal;font-style:normal;font-size:12px">PRs</text>
<path d="M546.93,45.301L566.93,45.301" style="fill:none;stroke:#FAA75B;stroke-dasharray:1,1" />
<path d="M555.16,43.533L558.7,47.069" style="fill:none;stroke:#FAA75B;stroke-width:0.5" />
<path d="M555.16,47.069L558.7,43.533" style="fill:none;stroke:#FAA75B;stroke-width:0.5" />
<text x="506.61" y="-42.813" transform="scale(1, -1)"
	style="font-family:Liberation Serif;font-variant:normal;font-weight:normal;font-style:normal;font-size:12px">reviews</text>
</g>
</svg>
