<?xml version="1.0"?>
<!-- Generated by SVGo and Plotinum VG -->
<svg width="566.93pt" height="350.38pt" viewBox="0 0 566.93 350.38"
	xmlns="http://www.w3.org/2000/svg"
	xmlns:xlink="http://www.w3.org/1999/xlink">
<g transform="scale(1, -1) translate(0, -350.38)">
<path d="M0,0L566.93,0L566.93,350.38L0,350.38Z" style="fill:#FFFFFF" />
<text x="295.98" y="-3.9023" transform="scale(1, -1)"
	style="font-family:Liberation Serif;font-variant:normal;font-weight:normal;font-style:normal;font-size:12px">Year</text>
<text x="118.83" y="-16.541" transform="scale(1, -1)"
	style="font-family:Liberation Serif;font-variant:normal;font-weight:normal;font-style:normal;font-size:10px">2015</text>
<text x="316.83" y="-16.541" transform="scale(1, -1)"
	style="font-family:Liberation Serif;font-variant:normal;font-weight:normal;font-style:normal;font-size:10px">2020</text>
<text x="514.83" y="-16.541" transform="scale(1, -1)"
	style="font-family:Liberation Serif;font-variant:normal;font-weight:normal;font-style:normal;font-size:10px">2025</text>
<path d="M128.83,24.363L128.83,32.363" style="fill:none;stroke:#000000;stroke-width:0.5" />
<path d="M326.83,24.363L326.83,32.363" style="fill:none;stroke:#000000;stroke-width:0.5" />
<path d="M524.83,24.363L524.83,32.363" style="fill:none;stroke:#000000;stroke-width:0.5" />
<path d="M89.234,28.363L89.234,32.363" style="fill:none;stroke:#000000;stroke-width:0.5" />
<path d="M168.43,28.363L168.43,32.363" style="fill:none;stroke:#000000;stroke-width:0.5" />
<path d="M208.03,28.363L208.03,32.363" style="fill:none;stroke:#000000;stroke-width:0.5" />
<path d="M247.63,28.363L247.63,32.363" style="fill:none;stroke:#000000;stroke-width:0.5" />
<path d="M287.23,28.363L287.23,32.363" style="fill:none;stroke:#000000;stroke-width:0.5" />
<path d="M366.43,28.363L366.43,32.363" style="fill:none;stroke:#000000;stroke-width:0.5" />
<path d="M406.03,28.363L406.03,32.363" style="fill:none;stroke:#000000;stroke-width:0.5" />
<path d="M445.63,28.363L445.63,32.363" style="fill:none;stroke:#000000;stroke-width:0.5" />
<path d="M485.23,28.363L485.23,32.363" style="fill:none;stroke:#000000;stroke-width:0.5" />
<path d="M564.43,28.363L564.43,32.363" style="fill:none;stroke:#000000;stroke-width:0.5" />
<path d="M49.635,32.363L564.43,32.363" style="fill:none;stroke:#000000;stroke-width:0.5" />
<g transform="rotate(90)">
<text x="160.99" y="9.3867" transform="scale(1, -1)"
	style="font-family:Liberation Serif;font-variant:normal;font-weight:normal;font-style:normal;font-size:12px">Contributions</text>
</g>
<text x="25.885" y="-37.828" transform="scale(1, -1)"
	style="font-family:Liberation Serif;font-variant:normal;font-weight:normal;font-style:normal;font-size:10px">0</text>
<text x="20.885" y="-127.04" transform="scale(1, -1)"
	style="font-family:Liberation Serif;font-variant:normal;font-weight:normal;font-style:normal;font-size:10px">40</text>
<text x="20.885" y="-216.24" transform="scale(1, -1)"
	style="font-family:Liberation Serif;font-variant:normal;font-weight:normal;font-style:normal;font-size:10px">80</text>
<text x="15.885" y="-305.45" transform="scale(1, -1)"
	style="font-family:Liberation Serif;font-variant:normal;font-weight:normal;font-style:normal;font-size:10px">120</text>
<path d="M33.385,40.113L41.385,40.113" style="fill:none;stroke:#000000;stroke-width:0.5" />
<path d="M33.385,129.32L41.385,129.32" style="fill:none;stroke:#000000;stroke-width:0.5" />
<path d="M33.385,218.53L41.385,218.53" style="fill:none;stroke:#000000;stroke-width:0.5" />
<path d="M33.385,307.74L41.385,307.74" style="fill:none;stroke:#000000;stroke-width:0.5" />
<path d="M37.385,62.415L41.385,62.415" style="fill:none;stroke:#000000;stroke-width:0.5" />
<path d="M37.385,84.717L41.385,84.717" style="fill:none;stroke:#000000;stroke-width:0.5" />
<path d="M37.385,107.02L41.385,107.02" style="fill:none;stroke:#000000;stroke-width:0.5" />
<path d="M37.385,151.62L41.385,151.62" style="fill:none;stroke:#000000;stroke-width:0.5" />
<path d="M37.385,173.93L41.385,173.93" style="fill:none;stroke:#000000;stroke-width:0.5" />
<path d="M37.385,196.23L41.385,196.23" style="fill:none;stroke:#000000;stroke-width:0.5" />
<path d="M37.385,240.83L41.385,240.83" style="fill:none;stroke:#000000;stroke-width:0.5" />
<path d="M37.385,263.13L41.385,263.13" style="fill:none;stroke:#000000;stroke-width:0.5" />
<path d="M37.385,285.44L41.385,285.44" style="fill:none;stroke:#000000;stroke-width:0.5" />
<path d="M37.385,330.04L41.385,330.04" style="fill:none;stroke:#000000;stroke-width:0.5" />
<path d="M41.385,40.113L41.385,347.88" style="fill:none;stroke:#000000;stroke-width:0.5" />
<path d="M49.635,40.113L89.234,40.113L128.83,40.113L168.43,40.113L208.03,40.113L247.63,40.113L287.23,84.717L326.83,216.3L366.43,118.17L406.03,49.034L445.63,53.495L485.23,44.574L524.83,196.23L564.43,102.56" style="fill:none;stroke:#F15A60" />
<path d="M52.135,40.113A2.5,2.5 0 1 1 47.135,40.113A2.5,2.5 0 1 1 52.135,40.113Z" style="fill:none;stroke:#F15A60;stroke-width:0.5" />
<path d="M91.734,40.113A2.5,2.5 0 1 1 86.734,40.113A2.5,2.5 0 1 1 91.734,40.113Z" style="fill:none;stroke:#F15A60;stroke-width:0.5" />
<path d="M131.33,40.113A2.5,2.5 0 1 1 126.33,40.113A2.5,2.5 0 1 1 131.33,40.113Z" style="fill:none;stroke:#F15A60;stroke-width:0.5" />
<path d="M170.93,40.113A2.5,2.5 0 1 1 165.93,40.113A2.5,2.5 0 1 1 170.93,40.113Z" style="fill:none;stroke:#F15A60;stroke-width:0.5" />
<path d="M210.53,40.113A2.5,2.5 0 1 1 205.53,40.113A2.5,2.5 0 1 1 210.53,40.113Z" style="fill:none;stroke:#F15A60;stroke-width:0.5" />
<path d="M250.13,40.113A2.5,2.5 0 1 1 245.13,40.113A2.5,2.5 0 1 1 250.13,40.113Z" style="fill:none;stroke:#F15A60;stroke-width:0.5" />
<path d="M289.73,84.717A2.5,2.5 0 1 1 284.73,84.717A2.5,2.5 0 1 1 289.73,84.717Z" style="fill:none;stroke:#F15A60;stroke-width:0.5" />
<path d="M329.33,216.3A2.5,2.5 0 1 1 324.33,216.3A2.5,2.5 0 1 1 329.33,216.3Z" style="fill:none;stroke:#F15A60;stroke-width:0.5" />
<path d="M368.93,118.17A2.5,2.5 0 1 1 363.93,118.17A2.5,2.5 0 1 1 368.93,118.17Z" style="fill:none;stroke:#F15A60;stroke-width:0.5" />
<path d="M408.53,49.034A2.5,2.5 0 1 1 403.53,49.034A2.5,2.5 0 1 1 408.53,49.034Z" style="fill:none;stroke:#F15A60;stroke-width:0.5" />
<path d="M448.13,53.495A2.5,2.5 0 1 1 443.13,53.495A2.5,2.5 0 1 1 448.13,53.495Z" style="fill:none;stroke:#F15A60;stroke-width:0.5" />
<path d="M487.73,44.574A2.5,2.5 0 1 1 482.73,44.574A2.5,2.5 0 1 1 487.73,44.574Z" style="fill:none;stroke:#F15A60;stroke-width:0.5" />
<path d="M527.33,196.23A2.5,2.5 0 1 1 522.33,196.23A2.5,2.5 0 1 1 527.33,196.23Z" style="fill:none;stroke:#F15A60;stroke-width:0.5" />
<path d="M566.93,102.56A2.5,2.5 0 1 1 561.93,102.56A2.5,2.5 0 1 1 566.93,102.56Z" style="fill:none;stroke:#F15A60;stroke-width:0.5" />
<path d="M49.635,40.113L89.234,40.113L128.83,40.113L168.43,40.113L208.03,40.113L247.63,42.343L287.23,124.86L326.83,332.27L366.43,298.82L406.03,218.53L445.63,263.13L485.23,236.37L524.83,347.88L564.43,113.71" style="fill:none;stroke:#7AC36A;stroke-dasharray:6,2" />
<path d="M47.501,37.979L51.769,37.979L51.769,42.247L47.501,42.247Z" style="fill:none;stroke:#7AC36A;stroke-width:0.5" />
<path d="M87.1,37.979L91.368,37.979L91.368,42.247L87.1,42.247Z" style="fill:none;stroke:#7AC36A;stroke-width:0.5" />
<path d="M126.7,37.979L130.97,37.979L130.97,42.247L126.7,42.247Z" style="fill:none;stroke:#7AC36A;stroke-width:0.5" />
<path d="M166.3,37.979L170.57,37.979L170.57,42.247L166.3,42.247Z" style="fill:none;stroke:#7AC36A;stroke-width:0.5" />
<path d="M205.9,37.979L210.17,37.979L210.17,42.247L205.9,42.247Z" style="fill:none;stroke:#7AC36A;stroke-width:0.5" />
<path d="M245.5,40.21L249.77,40.21L249.77,44.477L245.5,44.477Z" style="fill:none;stroke:#7AC36A;stroke-width:0.5" />
<path d="M285.1,122.73L289.37,122.73L289.37,126.99L285.1,126.99Z" style="fill:none;stroke:#7AC36A;stroke-width:0.5" />
<path d="M324.7,330.14L328.97,330.14L328.97,334.4L324.7,334.4Z" style="fill:none;stroke:#7AC36A;stroke-width:0.5" />
<path d="M364.3,296.68L368.57,296.68L368.57,300.95L364.3,300.95Z" style="fill:none;stroke:#7AC36A;stroke-width:0.5" />
<path d="M403.9,216.4L408.16,216.4L408.16,220.66L403.9,220.66Z" style="fill:none;stroke:#7AC36A;stroke-width:0.5" />
<path d="M443.5,261L447.76,261L447.76,265.27L443.5,265.27Z" style="fill:none;stroke:#7AC36A;stroke-width:0.5" />
<path d="M483.1,234.24L487.36,234.24L487.36,238.51L483.1,238.51Z" style="fill:none;stroke:#7AC36A;stroke-width:0.5" />
<path d="M522.7,345.75L526.96,345.75L526.96,350.02L522.7,350.02Z" style="fill:none;stroke:#7AC36A;stroke-width:0.5" />
<path d="M562.3,111.58L566.56,111.58L566.56,115.84L562.3,115.84Z" style="fill:none;stroke:#7AC36A;stroke-width:0.5" />
<path d="M49.635,40.113L89.234,40.113L128.83,40.113L168.43,40.113L208.03,40.113L247.63,40.113L287.23,40.113L326.83,40.113L366.43,46.804L406.03,51.264L445.63,46.804L485.23,55.725L524.83,144.93L564.43,55.725" style="fill:none;stroke:#5A9BD4;stroke-dasharray:2,2" />
<path d="M49.635,43.238L46.928,38.551L52.341,38.551Z" style="fill:none;stroke:#5A9BD4;stroke-width:0.5" />
<path d="M89.234,43.238L86.528,38.551L91.941,38.551Z" style="fill:none;stroke:#5A9BD4;stroke-width:0.5" />
<path d="M128.83,43.238L126.13,38.551L131.54,38.551Z" style="fill:none;stroke:#5A9BD4;stroke-width:0.5" />
<path d="M168.43,43.238L165.73,38.551L171.14,38.551Z" style="fill:none;stroke:#5A9BD4;stroke-width:0.5" />
<path d="M208.03,43.238L205.33,38.551L210.74,38.551Z" style="fill:none;stroke:#5A9BD4;stroke-width:0.5" />
<path d="M247.63,43.238L244.93,38.551L250.34,38.551Z" style="fill:none;stroke:#5A9BD4;stroke-width:0.5" />
<path d="M287.23,43.238L284.53,38.551L289.94,38.551Z" style="fill:none;stroke:#5A9BD4;stroke-width:0.5" />
<path d="M326.83,43.238L324.13,38.551L329.54,38.551Z" style="fill:none;stroke:#5A9BD4;stroke-width:0.5" />
<path d="M366.43,49.929L363.72,45.241L369.14,45.241Z" style="fill:none;stroke:#5A9BD4;stroke-width:0.5" />
<path d="M406.03,54.389L403.32,49.702L408.74,49.702Z" style="fill:none;stroke:#5A9BD4;stroke-width:0.5" />
<path d="M445.63,49.929L442.92,45.241L448.34,45.241Z" style="fill:none;stroke:#5A9BD4;stroke-width:0.5" />
<path d="M485.23,58.85L482.52,54.162L487.94,54.162Z" style="fill:none;stroke:#5A9BD4;stroke-width:0.5" />
<path d="M524.83,148.06L522.12,143.37L527.54,143.37Z" style="fill:none;stroke:#5A9BD4;stroke-width:0.5" />
<path d="M564.43,58.85L561.72,54.162L567.14,54.162Z" style="fill:none;stroke:#5A9BD4;stroke-width:0.5" />
<path d="M546.93,63.072L566.93,63.072" style="fill:none;stroke:#F15A60" />
<path d="M559.43,63.072A2.5,2.5 0 1 1 554.43,63.072A2.5,2.5 0 1 1 559.43,63.072Z" style="fill:none;stroke:#F15A60;stroke-width:0.5" />
<text x="515.26" y="-60.585" transform="scale(1, -1)"
	style="font-family:Liberation Serif;font-variant:normal;font-weight:normal;font-style:normal;font-size:12px">issues</text>
<path d="M546.93,52.889L566.93,52.889" style="fill:none;stroke:#7AC36A;stroke-dasharray:6,2" />
<path d="M554.8,50.755L559.06,50.755L559.06,55.023L554.8,55.023Z" style="fill:none;stroke:#7AC36A;stroke-width:0.5" />
<text x="524.58" y="-50.401" transform="scale(1, -1)"
	style="font-family:Liberation Serif;font-variant:normal;font-weight:normal;font-style:normal;font-size:12px">PRs</text>
<path d="M546.93,42.705L566.93,42.705" style="fill:none;stroke:#5A9BD4;stroke-dasharray:2,2" />
<path d="M556.93,45.83L554.22,41.143L559.64,41.143Z" style="fill:none;stroke:#5A9BD4;stroke-width:0.5" />
<text x="506.61" y="-40.218" transform="scale(1, -1)"
	style="font-family:Liberation Serif;font-variant:normal;font-weight:normal;font-style:normal;font-size:12px">reviews</text>
</g>
</svg>
