<?xml version="1.0"?>
<!-- Generated by SVGo and Plotinum VG -->
<svg width="566.93pt" height="350.38pt" viewBox="0 0 566.93 350.38"
	xmlns="http://www.w3.org/2000/svg"
	xmlns:xlink="http://www.w3.org/1999/xlink">
<g transform="scale(1, -1) translate(0, -350.38)">
<path d="M0,0L566.93,0L566.93,350.38L0,350.38Z" style="fill:#FFFFFF" />
<text x="292.23" y="-3.9023" transform="scale(1, -1)"
	style="font-family:Liberation Serif;font-variant:normal;font-weight:normal;font-style:normal;font-size:12px">Year</text>
<text x="124.18" y="-16.541" transform="scale(1, -1)"
	style="font-family:Liberation Serif;font-variant:normal;font-weight:normal;font-style:normal;font-size:10px">2015</text>
<text x="335.56" y="-16.541" transform="scale(1, -1)"
	style="font-family:Liberation Serif;font-variant:normal;font-weight:normal;font-style:normal;font-size:10px">2020</text>
<text x="546.93" y="-16.541" transform="scale(1, -1)"
	style="font-family:Liberation Serif;font-variant:normal;font-weight:normal;font-style:normal;font-size:10px">2025</text>
<path d="M134.18,24.363L134.18,32.363" style="fill:none;stroke:#000000;stroke-width:0.5" />
<path d="M345.56,24.363L345.56,32.363" style="fill:none;stroke:#000000;stroke-width:0.5" />
<path d="M556.93,24.363L556.93,32.363" style="fill:none;stroke:#000000;stroke-width:0.5" />
<path d="M91.909,28.363L91.909,32.363" style="fill:none;stroke:#000000;stroke-width:0.5" />
<path d="M176.46,28.363L176.46,32.363" style="fill:none;stroke:#000000;stroke-width:0.5" />
<path d="M218.73,28.363L218.73,32.363" style="fill:none;stroke:#000000;stroke-width:0.5" />
<path d="M261.01,28.363L261.01,32.363" style="fill:none;stroke:#000000;stroke-width:0.5" />
<path d="M303.28,28.363L303.28,32.363" style="fill:none;stroke:#000000;stroke-width:0.5" />
<path d="M387.83,28.363L387.83,32.363" style="fill:none;stroke:#000000;stroke-width:0.5" />
<path d="M430.11,28.363L430.11,32.363" style="fill:none;stroke:#000000;stroke-width:0.5" />
<path d="M472.38,28.363L472.38,32.363" style="fill:none;stroke:#000000;stroke-width:0.5" />
<path d="M514.65,28.363L514.65,32.363" style="fill:none;stroke:#000000;stroke-width:0.5" />
<path d="M49.635,32.363L556.93,32.363" style="fill:none;stroke:#000000;stroke-width:0.5" />
<g transform="rotate(90)">
<text x="160.99" y="9.3867" transform="scale(1, -1)"
	style="font-family:Liberation Serif;font-variant:normal;font-weight:normal;font-style:normal;font-size:12px">Contributions</text>
</g>
<text x="25.885" y="-37.828" transform="scale(1, -1)"
	style="font-family:Liberation Serif;font-variant:normal;font-weight:normal;font-style:normal;font-size:10px">0</text>
<text x="20.885" y="-164.31" transform="scale(1, -1)"
	style="font-family:Liberation Serif;font-variant:normal;font-weight:normal;font-style:normal;font-size:10px">60</text>
<text x="15.885" y="-290.79" transform="scale(1, -1)"
	style="font-family:Liberation Serif;font-variant:normal;font-weight:normal;font-style:normal;font-size:10px">120</text>
<path d="M33.385,40.113L41.385,40.113" style="fill:none;stroke:#000000;stroke-width:0.5" />
<path d="M33.385,166.59L41.385,166.59" style="fill:none;stroke:#000000;stroke-width:0.5" />
<path d="M33.385,293.07L41.385,293.07" style="fill:none;stroke:#000000;stroke-width:0.5" />
<path d="M37.385,103.35L41.385,103.35" style="fill:none;stroke:#000000;stroke-width:0.5" />
<path d="M37.385,229.83L41.385,229.83" style="fill:none;stroke:#000000;stroke-width:0.5" />
<path d="M41.385,40.113L41.385,347.88" style="fill:none;stroke:#000000;stroke-width:0.5" />
<path d="M49.635,40.113L91.909,40.113L134.18,40.113L176.46,40.113L218.73,40.113L261.01,40.113L303.28,82.273L345.56,206.65L387.83,113.89L430.11,48.545L472.38,52.761L514.65,44.329L556.93,189.78" style="fill:none;stroke:#F15A60" />
<path d="M52.135,40.113A2.5,2.5 0 1 1 47.135,40.113A2.5,2.5 0 1 1 52.135,40.113Z" style="fill:none;stroke:#F15A60;stroke-width:0.5" />
<path d="M94.409,40.113A2.5,2.5 0 1 1 89.409,40.113A2.5,2.5 0 1 1 94.409,40.113Z" style="fill:none;stroke:#F15A60;stroke-width:0.5" />
<path d="M136.68,40.113A2.5,2.5 0 1 1 131.68,40.113A2.5,2.5 0 1 1 136.68,40.113Z" style="fill:none;stroke:#F15A60;stroke-width:0.5" />
<path d="M178.96,40.113A2.5,2.5 0 1 1 173.96,40.113A2.5,2.5 0 1 1 178.96,40.113Z" style="fill:none;stroke:#F15A60;stroke-width:0.5" />
<path d="M221.23,40.113A2.5,2.5 0 1 1 216.23,40.113A2.5,2.5 0 1 1 221.23,40.113Z" style="fill:none;stroke:#F15A60;stroke-width:0.5" />
<path d="M263.51,40.113A2.5,2.5 0 1 1 258.51,40.113A2.5,2.5 0 1 1 263.51,40.113Z" style="fill:none;stroke:#F15A60;stroke-width:0.5" />
<path d="M305.78,82.273A2.5,2.5 0 1 1 300.78,82.273A2.5,2.5 0 1 1 305.78,82.273Z" style="fill:none;stroke:#F15A60;stroke-width:0.5" />
<path d="M348.06,206.65A2.5,2.5 0 1 1 343.06,206.65A2.5,2.5 0 1 1 348.06,206.65Z" style="fill:none;stroke:#F15A60;stroke-width:0.5" />
<path d="M390.33,113.89A2.5,2.5 0 1 1 385.33,113.89A2.5,2.5 0 1 1 390.33,113.89Z" style="fill:none;stroke:#F15A60;stroke-width:0.5" />
<path d="M432.61,48.545A2.5,2.5 0 1 1 427.61,48.545A2.5,2.5 0 1 1 432.61,48.545Z" style="fill:none;stroke:#F15A60;stroke-width:0.5" />
<path d="M474.88,52.761A2.5,2.5 0 1 1 469.88,52.761A2.5,2.5 0 1 1 474.88,52.761Z" style="fill:none;stroke:#F15A60;stroke-width:0.5" />
<path d="M517.15,44.329A2.5,2.5 0 1 1 512.15,44.329A2.5,2.5 0 1 1 517.15,44.329Z" style="fill:none;stroke:#F15A60;stroke-width:0.5" />
<path d="M559.43,189.78A2.5,2.5 0 1 1 554.43,189.78A2.5,2.5 0 1 1 559.43,189.78Z" style="fill:none;stroke:#F15A60;stroke-width:0.5" />
<path d="M49.635,40.113L91.909,40.113L134.18,40.113L176.46,40.113L218.73,40.113L261.01,42.221L303.28,120.22L345.56,316.26L387.83,284.64L430.11,208.75L472.38,250.91L514.65,225.62L556.93,347.88" style="fill:none;stroke:#7AC36A;stroke-dasharray:6,2" />
<path d="M47.501,37.979L51.769,37.979L51.769,42.247L47.501,42.247Z" style="fill:none;stroke:#7AC36A;stroke-width:0.5" />
<path d="M89.775,37.979L94.043,37.979L94.043,42.247L89.775,42.247Z" style="fill:none;stroke:#7AC36A;stroke-width:0.5" />
<path d="M132.05,37.979L136.32,37.979L136.32,42.247L132.05,42.247Z" style="fill:none;stroke:#7AC36A;stroke-width:0.5" />
<path d="M174.32,37.979L178.59,37.979L178.59,42.247L174.32,42.247Z" style="fill:none;stroke:#7AC36A;stroke-width:0.5" />
<path d="M216.6,37.979L220.87,37.979L220.87,42.247L216.6,42.247Z" style="fill:none;stroke:#7AC36A;stroke-width:0.5" />
<path d="M258.87,40.087L263.14,40.087L263.14,44.355L258.87,44.355Z" style="fill:none;stroke:#7AC36A;stroke-width:0.5" />
<path d="M301.15,118.08L305.42,118.08L305.42,122.35L301.15,122.35Z" style="fill:none;stroke:#7AC36A;stroke-width:0.5" />
<path d="M343.42,314.13L347.69,314.13L347.69,318.4L343.42,318.4Z" style="fill:none;stroke:#7AC36A;stroke-width:0.5" />
<path d="M385.7,282.51L389.96,282.51L389.96,286.78L385.7,286.78Z" style="fill:none;stroke:#7AC36A;stroke-width:0.5" />
<path d="M427.97,206.62L432.24,206.62L432.24,210.89L427.97,210.89Z" style="fill:none;stroke:#7AC36A;stroke-width:0.5" />
<path d="M470.25,248.78L474.51,248.78L474.51,253.05L470.25,253.05Z" style="fill:none;stroke:#7AC36A;stroke-width:0.5" />
<path d="M512.52,223.48L516.79,223.48L516.79,227.75L512.52,227.75Z" style="fill:none;stroke:#7AC36A;stroke-width:0.5" />
<path d="M554.8,345.75L559.06,345.75L559.06,350.02L554.8,350.02Z" style="fill:none;stroke:#7AC36A;stroke-width:0.5" />
<path d="M49.635,40.113L91.909,40.113L134.18,40.113L176.46,40.113L218.73,40.113L261.01,40.113L303.28,40.113L345.56,40.113L387.83,46.437L430.11,50.653L472.38,46.437L514.65,54.869L556.93,141.3" style="fill:none;stroke:#5A9BD4;stroke-dasharray:2,2" />
<path d="M49.635,43.238L46.928,38.551L52.341,38.551Z" style="fill:none;stroke:#5A9BD4;stroke-width:0.5" />
<path d="M91.909,43.238L89.203,38.551L94.616,38.551Z" style="fill:none;stroke:#5A9BD4;stroke-width:0.5" />
<path d="M134.18,43.238L131.48,38.551L136.89,38.551Z" style="fill:none;stroke:#5A9BD4;stroke-width:0.5" />
<path d="M176.46,43.238L173.75,38.551L179.16,38.551Z" style="fill:none;stroke:#5A9BD4;stroke-width:0.5" />
<path d="M218.73,43.238L216.03,38.551L221.44,38.551Z" style="fill:none;stroke:#5A9BD4;stroke-width:0.5" />
<path d="M261.01,43.238L258.3,38.551L263.71,38.551Z" style="fill:none;stroke:#5A9BD4;stroke-width:0.5" />
<path d="M303.28,43.238L300.58,38.551L305.99,38.551Z" style="fill:none;stroke:#5A9BD4;stroke-width:0.5" />
<path d="M345.56,43.238L342.85,38.551L348.26,38.551Z" style="fill:none;stroke:#5A9BD4;stroke-width:0.5" />
<path d="M387.83,49.562L385.12,44.875L390.54,44.875Z" style="fill:none;stroke:#5A9BD4;stroke-width:0.5" />
<path d="M430.11,53.778L427.4,49.091L432.81,49.091Z" style="fill:none;stroke:#5A9BD4;stroke-width:0.5" />
<path d="M472.38,49.562L469.67,44.875L475.09,44.875Z" style="fill:none;stroke:#5A9BD4;stroke-width:0.5" />
<path d="M514.65,57.994L511.95,53.307L517.36,53.307Z" style="fill:none;stroke:#5A9BD4;stroke-width:0.5" />
<path d="M556.93,144.42L554.22,139.73L559.64,139.73Z" style="fill:none;stroke:#5A9BD4;stroke-width:0.5" />
<path d="M546.93,63.072L566.93,63.072" style="fill:none;stroke:#F15A60" />
<path d="M559.43,63.072A2.5,2.5 0 1 1 554.43,63.072A2.5,2.5 0 1 1 559.43,63.072Z" style="fill:none;stroke:#F15A60;stroke-width:0.5" />
<text x="515.26" y="-60.585" transform="scale(1, -1)"
	style="font-family:Liberation Serif;font-variant:normal;font-weight:normal;font-style:normal;font-size:12px">issues</text>
<path d="M546.93,52.889L566.93,52.889" style="fill:none;stroke:#7AC36A;stroke-dasharray:6,2" />
<path d="M554.8,50.755L559.06,50.755L559.06,55.023L554.8,55.023Z" style="fill:none;stroke:#7AC36A;stroke-width:0.5" />
<text x="524.58" y="-50.401" transform="scale(1, -1)"
	style="font-family:Liberation Serif;font-variant:normal;font-weight:normal;font-style:normal;font-size:12px">PRs</text>
<path d="M546.93,42.705L566.93,42.705" style="fill:none;stroke:#5A9BD4;stroke-dasharray:2,2" />
<path d="M556.93,45.83L554.22,41.143L559.64,41.143Z" style="fill:none;stroke:#5A9BD4;stroke-width:0.5" />
<text x="506.61" y="-40.218" transform="scale(1, -1)"
	style="font-family:Liberation Serif;font-variant:normal;font-weight:normal;font-style:normal;font-size:12px">reviews</text>
</g>
</svg>
