<?xml version="1.0"?>
<!-- Generated by SVGo and Plotinum VG -->
<svg width="566.93pt" height="350.38pt" viewBox="0 0 566.93 350.38"
	xmlns="http://www.w3.org/2000/svg"
	xmlns:xlink="http://www.w3.org/1999/xlink">
<g transform="scale(1, -1) translate(0, -350.38)">
<path d="M0,0L566.93,0L566.93,350.38L0,350.38Z" style="fill:#FFFFFF" />
<text x="298.48" y="-3.9023" transform="scale(1, -1)"
	style="font-family:Liberation Serif;font-variant:normal;font-weight:normal;font-style:normal;font-size:12px">Year</text>
<text x="44.635" y="-16.541" transform="scale(1, -1)"
	style="font-family:Liberation Serif;font-variant:normal;font-weight:normal;font-style:normal;font-size:10px">2013</text>
<text x="183.67" y="-16.541" transform="scale(1, -1)"
	style="font-family:Liberation Serif;font-variant:normal;font-weight:normal;font-style:normal;font-size:10px">2016</text>
<text x="322.7" y="-16.541" transform="scale(1, -1)"
	style="font-family:Liberation Serif;font-variant:normal;font-weight:normal;font-style:normal;font-size:10px">2019</text>
<text x="461.74" y="-16.541" transform="scale(1, -1)"
	style="font-family:Liberation Serif;font-variant:normal;font-weight:normal;font-style:normal;font-size:10px">2022</text>
<path d="M54.635,24.363L54.635,32.363" style="fill:none;stroke:#000000;stroke-width:0.5" />
<path d="M193.67,24.363L193.67,32.363" style="fill:none;stroke:#000000;stroke-width:0.5" />
<path d="M332.7,24.363L332.7,32.363" style="fill:none;stroke:#000000;stroke-width:0.5" />
<path d="M471.74,24.363L471.74,32.363" style="fill:none;stroke:#000000;stroke-width:0.5" />
<path d="M100.98,28.363L100.98,32.363" style="fill:none;stroke:#000000;stroke-width:0.5" />
<path d="M147.32,28.363L147.32,32.363" style="fill:none;stroke:#000000;stroke-width:0.5" />
<path d="M240.01,28.363L240.01,32.363" style="fill:none;stroke:#000000;stroke-width:0.5" />
<path d="M286.36,28.363L286.36,32.363" style="fill:none;stroke:#000000;stroke-width:0.5" />
<path d="M379.05,28.363L379.05,32.363" style="fill:none;stroke:#000000;stroke-width:0.5" />
<path d="M425.39,28.363L425.39,32.363" style="fill:none;stroke:#000000;stroke-width:0.5" />
<path d="M518.08,28.363L518.08,32.363" style="fill:none;stroke:#000000;stroke-width:0.5" />
<path d="M564.43,28.363L564.43,32.363" style="fill:none;stroke:#000000;stroke-width:0.5" />
<path d="M54.635,32.363L564.43,32.363" style="fill:none;stroke:#000000;stroke-width:0.5" />
<g transform="rotate(90)">
<text x="149.8" y="9.3867" transform="scale(1, -1)"
	style="font-family:Liberation Serif;font-variant:normal;font-weight:normal;font-style:normal;font-size:12px">Contribution count</text>
</g>
<text x="30.885" y="-40.424" transform="scale(1, -1)"
	style="font-family:Liberation Serif;font-variant:normal;font-weight:normal;font-style:normal;font-size:10px">0</text>
<text x="20.885" y="-135.67" transform="scale(1, -1)"
	style="font-family:Liberation Serif;font-variant:normal;font-weight:normal;font-style:normal;font-size:10px">500</text>
<text x="15.885" y="-230.92" transform="scale(1, -1)"
	style="font-family:Liberation Serif;font-variant:normal;font-weight:normal;font-style:normal;font-size:10px">1000</text>
<text x="15.885" y="-326.17" transform="scale(1, -1)"
	style="font-family:Liberation Serif;font-variant:normal;font-weight:normal;font-style:normal;font-size:10px">1500</text>
<path d="M38.385,42.709L46.385,42.709" style="fill:none;stroke:#000000;stroke-width:0.5" />
<path d="M38.385,137.96L46.385,137.96" style="fill:none;stroke:#000000;stroke-width:0.5" />
<path d="M38.385,233.2L46.385,233.2" style="fill:none;stroke:#000000;stroke-width:0.5" />
<path d="M38.385,328.45L46.385,328.45" style="fill:none;stroke:#000000;stroke-width:0.5" />
<path d="M42.385,61.758L46.385,61.758" style="fill:none;stroke:#000000;stroke-width:0.5" />
<path d="M42.385,80.808L46.385,80.808" style="fill:none;stroke:#000000;stroke-width:0.5" />
<path d="M42.385,99.857L46.385,99.857" style="fill:none;stroke:#000000;stroke-width:0.5" />
<path d="M42.385,118.91L46.385,118.91" style="fill:none;stroke:#000000;stroke-width:0.5" />
<path d="M42.385,157.01L46.385,157.01" style="fill:none;stroke:#000000;stroke-width:0.5" />
<path d="M42.385,176.06L46.385,176.06" style="fill:none;stroke:#000000;stroke-width:0.5" />
<path d="M42.385,195.1L46.385,195.1" style="fill:none;stroke:#000000;stroke-width:0.5" />
<path d="M42.385,214.15L46.385,214.15" style="fill:none;stroke:#000000;stroke-width:0.5" />
<path d="M42.385,252.25L46.385,252.25" style="fill:none;stroke:#000000;stroke-width:0.5" />
<path d="M42.385,271.3L46.385,271.3" style="fill:none;stroke:#000000;stroke-width:0.5" />
<path d="M42.385,290.35L46.385,290.35" style="fill:none;stroke:#000000;stroke-width:0.5" />
<path d="M42.385,309.4L46.385,309.4" style="fill:none;stroke:#000000;stroke-width:0.5" />
<path d="M42.385,347.5L46.385,347.5" style="fill:none;stroke:#000000;stroke-width:0.5" />
<path d="M46.385,42.709L46.385,347.88" style="fill:none;stroke:#000000;stroke-width:0.5" />
<path d="M54.635,42.709L100.98,42.709L147.32,42.709L193.67,45.566L240.01,50.329L286.36,46.138L332.7,49.757L379.05,124.24L425.39,152.05L471.74,211.49L518.08,302.16L564.43,347.88" style="fill:none;stroke:#F15A60" />
<path d="M57.135,42.709A2.5,2.5 0 1 1 52.135,42.709A2.5,2.5 0 1 1 57.135,42.709Z" style="fill:none;stroke:#F15A60;stroke-width:0.5" />
<path d="M103.48,42.709A2.5,2.5 0 1 1 98.48,42.709A2.5,2.5 0 1 1 103.48,42.709Z" style="fill:none;stroke:#F15A60;stroke-width:0.5" />
<path d="M149.82,42.709A2.5,2.5 0 1 1 144.82,42.709A2.5,2.5 0 1 1 149.82,42.709Z" style="fill:none;stroke:#F15A60;stroke-width:0.5" />
<path d="M196.17,45.566A2.5,2.5 0 1 1 191.17,45.566A2.5,2.5 0 1 1 196.17,45.566Z" style="fill:none;stroke:#F15A60;stroke-width:0.5" />
<path d="M242.51,50.329A2.5,2.5 0 1 1 237.51,50.329A2.5,2.5 0 1 1 242.51,50.329Z" style="fill:none;stroke:#F15A60;stroke-width:0.5" />
<path d="M288.86,46.138A2.5,2.5 0 1 1 283.86,46.138A2.5,2.5 0 1 1 288.86,46.138Z" style="fill:none;stroke:#F15A60;stroke-width:0.5" />
<path d="M335.2,49.757A2.5,2.5 0 1 1 330.2,49.757A2.5,2.5 0 1 1 335.2,49.757Z" style="fill:none;stroke:#F15A60;stroke-width:0.5" />
<path d="M381.55,124.24A2.5,2.5 0 1 1 376.55,124.24A2.5,2.5 0 1 1 381.55,124.24Z" style="fill:none;stroke:#F15A60;stroke-width:0.5" />
<path d="M427.89,152.05A2.5,2.5 0 1 1 422.89,152.05A2.5,2.5 0 1 1 427.89,152.05Z" style="fill:none;stroke:#F15A60;stroke-width:0.5" />
<path d="M474.24,211.49A2.5,2.5 0 1 1 469.24,211.49A2.5,2.5 0 1 1 474.24,211.49Z" style="fill:none;stroke:#F15A60;stroke-width:0.5" />
<path d="M520.58,302.16A2.5,2.5 0 1 1 515.58,302.16A2.5,2.5 0 1 1 520.58,302.16Z" style="fill:none;stroke:#F15A60;stroke-width:0.5" />
<path d="M566.93,347.88A2.5,2.5 0 1 1 561.93,347.88A2.5,2.5 0 1 1 566.93,347.88Z" style="fill:none;stroke:#F15A60;stroke-width:0.5" />
<path d="M54.635,42.709L100.98,42.709L147.32,42.709L193.67,42.709L240.01,42.709L286.36,42.709L332.7,46.519L379.05,57.758L425.39,49.376L471.74,43.471L518.08,46.138L564.43,42.709" style="fill:none;stroke:#7AC36A;stroke-dasharray:6,2" />
<path d="M52.501,40.575L56.769,40.575L56.769,44.843L52.501,44.843Z" style="fill:none;stroke:#7AC36A;stroke-width:0.5" />
<path d="M98.846,40.575L103.11,40.575L103.11,44.843L98.846,44.843Z" style="fill:none;stroke:#7AC36A;stroke-width:0.5" />
<path d="M145.19,40.575L149.46,40.575L149.46,44.843L145.19,44.843Z" style="fill:none;stroke:#7AC36A;stroke-width:0.5" />
<path d="M191.54,40.575L195.8,40.575L195.8,44.843L191.54,44.843Z" style="fill:none;stroke:#7AC36A;stroke-width:0.5" />
<path d="M237.88,40.575L242.15,40.575L242.15,44.843L237.88,44.843Z" style="fill:none;stroke:#7AC36A;stroke-width:0.5" />
<path d="M284.23,40.575L288.49,40.575L288.49,44.843L284.23,44.843Z" style="fill:none;stroke:#7AC36A;stroke-width:0.5" />
<path d="M330.57,44.385L334.84,44.385L334.84,48.653L330.57,48.653Z" style="fill:none;stroke:#7AC36A;stroke-width:0.5" />
<path d="M376.92,55.624L381.18,55.624L381.18,59.892L376.92,59.892Z" style="fill:none;stroke:#7AC36A;stroke-width:0.5" />
<path d="M423.26,47.242L427.53,47.242L427.53,51.51L423.26,51.51Z" style="fill:none;stroke:#7AC36A;stroke-width:0.5" />
<path d="M469.61,41.337L473.87,41.337L473.87,45.605L469.61,45.605Z" style="fill:none;stroke:#7AC36A;stroke-width:0.5" />
<path d="M515.95,44.004L520.22,44.004L520.22,48.272L515.95,48.272Z" style="fill:none;stroke:#7AC36A;stroke-width:0.5" />
<path d="M562.3,40.575L566.56,40.575L566.56,44.843L562.3,44.843Z" style="fill:none;stroke:#7AC36A;stroke-width:0.5" />
<path d="M54.635,42.709L100.98,42.709L147.32,42.709L193.67,42.709L240.01,42.709L286.36,42.899L332.7,49.948L379.05,67.664L425.39,64.806L471.74,57.949L518.08,73.95L564.43,51.281" style="fill:none;stroke:#5A9BD4;stroke-dasharray:2,2" />
<path d="M54.635,45.834L51.928,41.146L57.341,41.146Z" style="fill:none;stroke:#5A9BD4;stroke-width:0.5" />
<path d="M100.98,45.834L98.273,41.146L103.69,41.146Z" style="fill:none;stroke:#5A9BD4;stroke-width:0.5" />
<path d="M147.32,45.834L144.62,41.146L150.03,41.146Z" style="fill:none;stroke:#5A9BD4;stroke-width:0.5" />
<path d="M193.67,45.834L190.96,41.146L196.38,41.146Z" style="fill:none;stroke:#5A9BD4;stroke-width:0.5" />
<path d="M240.01,45.834L237.31,41.146L242.72,41.146Z" style="fill:none;stroke:#5A9BD4;stroke-width:0.5" />
<path d="M286.36,46.024L283.65,41.337L289.07,41.337Z" style="fill:none;stroke:#5A9BD4;stroke-width:0.5" />
<path d="M332.7,53.073L330,48.385L335.41,48.385Z" style="fill:none;stroke:#5A9BD4;stroke-width:0.5" />
<path d="M379.05,70.789L376.34,66.101L381.76,66.101Z" style="fill:none;stroke:#5A9BD4;stroke-width:0.5" />
<path d="M425.39,67.931L422.69,63.244L428.1,63.244Z" style="fill:none;stroke:#5A9BD4;stroke-width:0.5" />
<path d="M471.74,61.074L469.03,56.386L474.45,56.386Z" style="fill:none;stroke:#5A9BD4;stroke-width:0.5" />
<path d="M518.08,77.075L515.38,72.388L520.79,72.388Z" style="fill:none;stroke:#5A9BD4;stroke-width:0.5" />
<path d="M564.43,54.406L561.72,49.719L567.14,49.719Z" style="fill:none;stroke:#5A9BD4;stroke-width:0.5" />
<path d="M54.635,42.709L100.98,42.709L147.32,42.709L193.67,42.709L240.01,42.709L286.36,42.709L332.7,42.709L379.05,42.709L425.39,43.28L471.74,43.661L518.08,59.473L564.43,44.233" style="fill:none;stroke:#FAA75B;stroke-dasharray:1,1" />
<path d="M52.867,40.941L56.403,44.477" style="fill:none;stroke:#FAA75B;stroke-width:0.5" />
<path d="M52.867,44.477L56.403,40.941" style="fill:none;stroke:#FAA75B;stroke-width:0.5" />
<path d="M99.212,40.941L102.75,44.477" style="fill:none;stroke:#FAA75B;stroke-width:0.5" />
<path d="M99.212,44.477L102.75,40.941" style="fill:none;stroke:#FAA75B;stroke-width:0.5" />
<path d="M145.56,40.941L149.09,44.477" style="fill:none;stroke:#FAA75B;stroke-width:0.5" />
<path d="M145.56,44.477L149.09,40.941" style="fill:none;stroke:#FAA75B;stroke-width:0.5" />
<path d="M191.9,40.941L195.44,44.477" style="fill:none;stroke:#FAA75B;stroke-width:0.5" />
<path d="M191.9,44.477L195.44,40.941" style="fill:none;stroke:#FAA75B;stroke-width:0.5" />
<path d="M238.25,40.941L241.78,44.477" style="fill:none;stroke:#FAA75B;stroke-width:0.5" />
<path d="M238.25,44.477L241.78,40.941" style="fill:none;stroke:#FAA75B;stroke-width:0.5" />
<path d="M284.59,40.941L288.13,44.477" style="fill:none;stroke:#FAA75B;stroke-width:0.5" />
<path d="M284.59,44.477L288.13,40.941" style="fill:none;stroke:#FAA75B;stroke-width:0.5" />
<path d="M330.94,40.941L334.47,44.477" style="fill:none;stroke:#FAA75B;stroke-width:0.5" />
<path d="M330.94,44.477L334.47,40.941" style="fill:none;stroke:#FAA75B;stroke-width:0.5" />
<path d="M377.28,40.941L380.82,44.477" style="fill:none;stroke:#FAA75B;stroke-width:0.5" />
<path d="M377.28,44.477L380.82,40.941" style="fill:none;stroke:#FAA75B;stroke-width:0.5" />
<path d="M423.63,41.513L427.16,45.048" style="fill:none;stroke:#FAA75B;stroke-width:0.5" />
<path d="M423.63,45.048L427.16,41.513" style="fill:none;stroke:#FAA75B;stroke-width:0.5" />
<path d="M469.97,41.894L473.51,45.429" style="fill:none;stroke:#FAA75B;stroke-width:0.5" />
<path d="M469.97,45.429L473.51,41.894" style="fill:none;stroke:#FAA75B;stroke-width:0.5" />
<path d="M516.32,57.705L519.85,61.24" style="fill:none;stroke:#FAA75B;stroke-width:0.5" />
<path d="M516.32,61.24L519.85,57.705" style="fill:none;stroke:#FAA75B;stroke-width:0.5" />
<path d="M562.66,42.465L566.2,46.001" style="fill:none;stroke:#FAA75B;stroke-width:0.5" />
<path d="M562.66,46.001L566.2,42.465" style="fill:none;stroke:#FAA75B;stroke-width:0.5" />
<path d="M546.93,75.852L566.93,75.852" style="fill:none;stroke:#F15A60" />
<path d="M559.43,75.852A2.5,2.5 0 1 1 554.43,75.852A2.5,2.5 0 1 1 559.43,75.852Z" style="fill:none;stroke:#F15A60;stroke-width:0.5" />
<text x="502.6" y="-73.364" transform="scale(1, -1)"
	style="font-family:Liberation Serif;font-variant:normal;font-weight:normal;font-style:normal;font-size:12px">commits</text>
<path d="M546.93,65.668L566.93,65.668" style="fill:none;stroke:#7AC36A;stroke-dasharray:6,2" />
<path d="M554.8,63.534L559.06,63.534L559.06,67.802L554.8,67.802Z" style="fill:none;stroke:#7AC36A;stroke-width:0.5" />
<text x="515.26" y="-63.181" transform="scale(1, -1)"
	style="font-family:Liberation Serif;font-variant:normal;font-weight:normal;font-style:normal;font-size:12px">issues</text>
<path d="M546.93,55.484L566.93,55.484" style="fill:none;stroke:#5A9BD4;stroke-dasharray:2,2" />
<path d="M556.93,58.609L554.22,53.922L559.64,53.922Z" style="fill:none;stroke:#5A9BD4;stroke-width:0.5" />
<text x="524.58" y="-52.997" transform="scale(1, -1)"
	style="font-family:Liberation Serif;font-variant:normal;font-weight:normal;font-style:normal;font-size:12px">PRs</text>
<path d="M546.93,45.301L566.93,45.301" style="fill:none;stroke:#FAA75B;stroke-dasharray:1,1" />
<path d="M555.16,43.533L558.7,47.069" style="fill:none;stroke:#FAA75B;stroke-width:0.5" />
<path d="M555.16,47.069L558.7,43.533" style="fill:none;stroke:#FAA75B;stroke-width:0.5" />
<text x="506.61" y="-42.813" transform="scale(1, -1)"
	style="font-family:Liberation Serif;font-variant:normal;font-weight:normal;font-style:normal;font-size:12px">reviews</text>
</g>
</svg>
