<?xml version="1.0"?>
<!-- Generated by SVGo and Plotinum VG -->
<svg width="566.93pt" height="350.38pt" viewBox="0 0 566.93 350.38"
	xmlns="http://www.w3.org/2000/svg"
	xmlns:xlink="http://www.w3.org/1999/xlink">
<g transform="scale(1, -1) translate(0, -350.38)">
<path d="M0,0L566.93,0L566.93,350.38L0,350.38Z" style="fill:#FFFFFF" />
<text x="298.48" y="-3.9023" transform="scale(1, -1)"
	style="font-family:Liberation Serif;font-variant:normal;font-weight:normal;font-style:normal;font-size:12px">Year</text>
<text x="44.635" y="-16.541" transform="scale(1, -1)"
	style="font-family:Liberation Serif;font-variant:normal;font-weight:normal;font-style:normal;font-size:10px">2013</text>
<text x="183.67" y="-16.541" transform="scale(1, -1)"
	style="font-family:Liberation Serif;font-variant:normal;font-weight:normal;font-style:normal;font-size:10px">2016</text>
<text x="322.7" y="-16.541" transform="scale(1, -1)"
	style="font-family:Liberation Serif;font-variant:normal;font-weight:normal;font-style:normal;font-size:10px">2019</text>
<text x="461.74" y="-16.541" transform="scale(1, -1)"
	style="font-family:Liberation Serif;font-variant:normal;font-weight:normal;font-style:normal;font-size:10px">2022</text>
<path d="M54.635,24.363L54.635,32.363" style="fill:none;stroke:#000000;stroke-width:0.5" />
<path d="M193.67,24.363L193.67,32.363" style="fill:none;stroke:#000000;stroke-width:0.5" />
<path d="M332.7,24.363L332.7,32.363" style="fill:none;stroke:#000000;stroke-width:0.5" />
<path d="M471.74,24.363L471.74,32.363" style="fill:none;stroke:#000000;stroke-width:0.5" />
<path d="M100.98,28.363L100.98,32.363" style="fill:none;stroke:#000000;stroke-width:0.5" />
<path d="M147.32,28.363L147.32,32.363" style="fill:none;stroke:#000000;stroke-width:0.5" />
<path d="M240.01,28.363L240.01,32.363" style="fill:none;stroke:#000000;stroke-width:0.5" />
<path d="M286.36,28.363L286.36,32.363" style="fill:none;stroke:#000000;stroke-width:0.5" />
<path d="M379.05,28.363L379.05,32.363" style="fill:none;stroke:#000000;stroke-width:0.5" />
<path d="M425.39,28.363L425.39,32.363" style="fill:none;stroke:#000000;stroke-width:0.5" />
<path d="M518.08,28.363L518.08,32.363" style="fill:none;stroke:#000000;stroke-width:0.5" />
<path d="M564.43,28.363L564.43,32.363" style="fill:none;stroke:#000000;stroke-width:0.5" />
<path d="M54.635,32.363L564.43,32.363" style="fill:none;stroke:#000000;stroke-width:0.5" />
<g transform="rotate(90)">
<text x="149.8" y="9.3867" transform="scale(1, -1)"
	style="font-family:Liberation Serif;font-variant:normal;font-weight:normal;font-style:normal;font-size:12px">Contribution count</text>
</g>
<text x="30.885" y="-40.424" transform="scale(1, -1)"
	style="font-family:Liberation Serif;font-variant:normal;font-weight:normal;font-style:normal;font-size:10px">0</text>
<text x="20.885" y="-130.05" transform="scale(1, -1)"
	style="font-family:Liberation Serif;font-variant:normal;font-weight:normal;font-style:normal;font-size:10px">400</text>
<text x="20.885" y="-219.67" transform="scale(1, -1)"
	style="font-family:Liberation Serif;font-variant:normal;font-weight:normal;font-style:normal;font-size:10px">800</text>
<text x="15.885" y="-309.3" transform="scale(1, -1)"
	style="font-family:Liberation Serif;font-variant:normal;font-weight:normal;font-style:normal;font-size:10px">1200</text>
<path d="M38.385,42.709L46.385,42.709" style="fill:none;stroke:#000000;stroke-width:0.5" />
<path d="M38.385,132.33L46.385,132.33" style="fill:none;stroke:#000000;stroke-width:0.5" />
<path d="M38.385,221.96L46.385,221.96" style="fill:none;stroke:#000000;stroke-width:0.5" />
<path d="M38.385,311.58L46.385,311.58" style="fill:none;stroke:#000000;stroke-width:0.5" />
<path d="M42.385,65.115L46.385,65.115" style="fill:none;stroke:#000000;stroke-width:0.5" />
<path d="M42.385,87.521L46.385,87.521" style="fill:none;stroke:#000000;stroke-width:0.5" />
<path d="M42.385,109.93L46.385,109.93" style="fill:none;stroke:#000000;stroke-width:0.5" />
<path d="M42.385,154.74L46.385,154.74" style="fill:none;stroke:#000000;stroke-width:0.5" />
<path d="M42.385,177.15L46.385,177.15" style="fill:none;stroke:#000000;stroke-width:0.5" />
<path d="M42.385,199.55L46.385,199.55" style="fill:none;stroke:#000000;stroke-width:0.5" />
<path d="M42.385,244.36L46.385,244.36" style="fill:none;stroke:#000000;stroke-width:0.5" />
<path d="M42.385,266.77L46.385,266.77" style="fill:none;stroke:#000000;stroke-width:0.5" />
<path d="M42.385,289.18L46.385,289.18" style="fill:none;stroke:#000000;stroke-width:0.5" />
<path d="M42.385,333.99L46.385,333.99" style="fill:none;stroke:#000000;stroke-width:0.5" />
<path d="M46.385,42.709L46.385,347.88" style="fill:none;stroke:#000000;stroke-width:0.5" />
<path d="M54.635,42.709L100.98,42.709L147.32,42.709L193.67,46.07L240.01,51.671L286.36,46.742L332.7,50.999L379.05,138.61L425.39,171.32L471.74,241.23L518.08,347.88L564.43,124.04" style="fill:none;stroke:#F15A60" />
<path d="M57.135,42.709A2.5,2.5 0 1 1 52.135,42.709A2.5,2.5 0 1 1 57.135,42.709Z" style="fill:none;stroke:#F15A60;stroke-width:0.5" />
<path d="M103.48,42.709A2.5,2.5 0 1 1 98.48,42.709A2.5,2.5 0 1 1 103.48,42.709Z" style="fill:none;stroke:#F15A60;stroke-width:0.5" />
<path d="M149.82,42.709A2.5,2.5 0 1 1 144.82,42.709A2.5,2.5 0 1 1 149.82,42.709Z" style="fill:none;stroke:#F15A60;stroke-width:0.5" />
<path d="M196.17,46.07A2.5,2.5 0 1 1 191.17,46.07A2.5,2.5 0 1 1 196.17,46.07Z" style="fill:none;stroke:#F15A60;stroke-width:0.5" />
<path d="M242.51,51.671A2.5,2.5 0 1 1 237.51,51.671A2.5,2.5 0 1 1 242.51,51.671Z" style="fill:none;stroke:#F15A60;stroke-width:0.5" />
<path d="M288.86,46.742A2.5,2.5 0 1 1 283.86,46.742A2.5,2.5 0 1 1 288.86,46.742Z" style="fill:none;stroke:#F15A60;stroke-width:0.5" />
<path d="M335.2,50.999A2.5,2.5 0 1 1 330.2,50.999A2.5,2.5 0 1 1 335.2,50.999Z" style="fill:none;stroke:#F15A60;stroke-width:0.5" />
<path d="M381.55,138.61A2.5,2.5 0 1 1 376.55,138.61A2.5,2.5 0 1 1 381.55,138.61Z" style="fill:none;stroke:#F15A60;stroke-width:0.5" />
<path d="M427.89,171.32A2.5,2.5 0 1 1 422.89,171.32A2.5,2.5 0 1 1 427.89,171.32Z" style="fill:none;stroke:#F15A60;stroke-width:0.5" />
<path d="M474.24,241.23A2.5,2.5 0 1 1 469.24,241.23A2.5,2.5 0 1 1 474.24,241.23Z" style="fill:none;stroke:#F15A60;stroke-width:0.5" />
<path d="M520.58,347.88A2.5,2.5 0 1 1 515.58,347.88A2.5,2.5 0 1 1 520.58,347.88Z" style="fill:none;stroke:#F15A60;stroke-width:0.5" />
<path d="M566.93,124.04A2.5,2.5 0 1 1 561.93,124.04A2.5,2.5 0 1 1 566.93,124.04Z" style="fill:none;stroke:#F15A60;stroke-width:0.5" />
<path d="M54.635,42.709L100.98,42.709L147.32,42.709L193.67,42.709L240.01,42.709L286.36,42.709L332.7,47.19L379.05,60.41L425.39,50.551L471.74,43.605L518.08,46.742L564.43,42.709" style="fill:none;stroke:#7AC36A;stroke-dasharray:6,2" />
<path d="M52.501,40.575L56.769,40.575L56.769,44.843L52.501,44.843Z" style="fill:none;stroke:#7AC36A;stroke-width:0.5" />
<path d="M98.846,40.575L103.11,40.575L103.11,44.843L98.846,44.843Z" style="fill:none;stroke:#7AC36A;stroke-width:0.5" />
<path d="M145.19,40.575L149.46,40.575L149.46,44.843L145.19,44.843Z" style="fill:none;stroke:#7AC36A;stroke-width:0.5" />
<path d="M191.54,40.575L195.8,40.575L195.8,44.843L191.54,44.843Z" style="fill:none;stroke:#7AC36A;stroke-width:0.5" />
<path d="M237.88,40.575L242.15,40.575L242.15,44.843L237.88,44.843Z" style="fill:none;stroke:#7AC36A;stroke-width:0.5" />
<path d="M284.23,40.575L288.49,40.575L288.49,44.843L284.23,44.843Z" style="fill:none;stroke:#7AC36A;stroke-width:0.5" />
<path d="M330.57,45.056L334.84,45.056L334.84,49.324L330.57,49.324Z" style="fill:none;stroke:#7AC36A;stroke-width:0.5" />
<path d="M376.92,58.276L381.18,58.276L381.18,62.544L376.92,62.544Z" style="fill:none;stroke:#7AC36A;stroke-width:0.5" />
<path d="M423.26,48.417L427.53,48.417L427.53,52.685L423.26,52.685Z" style="fill:none;stroke:#7AC36A;stroke-width:0.5" />
<path d="M469.61,41.471L473.87,41.471L473.87,45.739L469.61,45.739Z" style="fill:none;stroke:#7AC36A;stroke-width:0.5" />
<path d="M515.95,44.608L520.22,44.608L520.22,48.876L515.95,48.876Z" style="fill:none;stroke:#7AC36A;stroke-width:0.5" />
<path d="M562.3,40.575L566.56,40.575L566.56,44.843L562.3,44.843Z" style="fill:none;stroke:#7AC36A;stroke-width:0.5" />
<path d="M54.635,42.709L100.98,42.709L147.32,42.709L193.67,42.709L240.01,42.709L286.36,42.933L332.7,51.223L379.05,72.061L425.39,68.7L471.74,60.634L518.08,79.455L564.43,47.862" style="fill:none;stroke:#5A9BD4;stroke-dasharray:2,2" />
<path d="M54.635,45.834L51.928,41.146L57.341,41.146Z" style="fill:none;stroke:#5A9BD4;stroke-width:0.5" />
<path d="M100.98,45.834L98.273,41.146L103.69,41.146Z" style="fill:none;stroke:#5A9BD4;stroke-width:0.5" />
<path d="M147.32,45.834L144.62,41.146L150.03,41.146Z" style="fill:none;stroke:#5A9BD4;stroke-width:0.5" />
<path d="M193.67,45.834L190.96,41.146L196.38,41.146Z" style="fill:none;stroke:#5A9BD4;stroke-width:0.5" />
<path d="M240.01,45.834L237.31,41.146L242.72,41.146Z" style="fill:none;stroke:#5A9BD4;stroke-width:0.5" />
<path d="M286.36,46.058L283.65,41.371L289.07,41.371Z" style="fill:none;stroke:#5A9BD4;stroke-width:0.5" />
<path d="M332.7,54.348L330,49.661L335.41,49.661Z" style="fill:none;stroke:#5A9BD4;stroke-width:0.5" />
<path d="M379.05,75.186L376.34,70.499L381.76,70.499Z" style="fill:none;stroke:#5A9BD4;stroke-width:0.5" />
<path d="M425.39,71.825L422.69,67.138L428.1,67.138Z" style="fill:none;stroke:#5A9BD4;stroke-width:0.5" />
<path d="M471.74,63.759L469.03,59.071L474.45,59.071Z" style="fill:none;stroke:#5A9BD4;stroke-width:0.5" />
<path d="M518.08,82.58L515.38,77.893L520.79,77.893Z" style="fill:none;stroke:#5A9BD4;stroke-width:0.5" />
<path d="M564.43,50.987L561.72,46.3L567.14,46.3Z" style="fill:none;stroke:#5A9BD4;stroke-width:0.5" />
<path d="M54.635,42.709L100.98,42.709L147.32,42.709L193.67,42.709L240.01,42.709L286.36,42.709L332.7,42.709L379.05,42.709L425.39,43.381L471.74,43.829L518.08,62.426L564.43,42.933" style="fill:none;stroke:#FAA75B;stroke-dasharray:1,1" />
<path d="M52.867,40.941L56.403,44.477" style="fill:none;stroke:#FAA75B;stroke-width:0.5" />
<path d="M52.867,44.477L56.403,40.941" style="fill:none;stroke:#FAA75B;stroke-width:0.5" />
<path d="M99.212,40.941L102.75,44.477" style="fill:none;stroke:#FAA75B;stroke-width:0.5" />
<path d="M99.212,44.477L102.75,40.941" style="fill:none;stroke:#FAA75B;stroke-width:0.5" />
<path d="M145.56,40.941L149.09,44.477" style="fill:none;stroke:#FAA75B;stroke-width:0.5" />
<path d="M145.56,44.477L149.09,40.941" style="fill:none;stroke:#FAA75B;stroke-width:0.5" />
<path d="M191.9,40.941L195.44,44.477" style="fill:none;stroke:#FAA75B;stroke-width:0.5" />
<path d="M191.9,44.477L195.44,40.941" style="fill:none;stroke:#FAA75B;stroke-width:0.5" />
<path d="M238.25,40.941L241.78,44.477" style="fill:none;stroke:#FAA75B;stroke-width:0.5" />
<path d="M238.25,44.477L241.78,40.941" style="fill:none;stroke:#FAA75B;stroke-width:0.5" />
<path d="M284.59,40.941L288.13,44.477" style="fill:none;stroke:#FAA75B;stroke-width:0.5" />
<path d="M284.59,44.477L288.13,40.941" style="fill:none;stroke:#FAA75B;stroke-width:0.5" />
<path d="M330.94,40.941L334.47,44.477" style="fill:none;stroke:#FAA75B;stroke-width:0.5" />
<path d="M330.94,44.477L334.47,40.941" style="fill:none;stroke:#FAA75B;stroke-width:0.5" />
<path d="M377.28,40.941L380.82,44.477" style="fill:none;stroke:#FAA75B;stroke-width:0.5" />
<path d="M377.28,44.477L380.82,40.941" style="fill:none;stroke:#FAA75B;stroke-width:0.5" />
<path d="M423.63,41.613L427.16,45.149" style="fill:none;stroke:#FAA75B;stroke-width:0.5" />
<path d="M423.63,45.149L427.16,41.613" style="fill:none;stroke:#FAA75B;stroke-width:0.5" />
<path d="M469.97,42.062L473.51,45.597" style="fill:none;stroke:#FAA75B;stroke-width:0.5" />
<path d="M469.97,45.597L473.51,42.062" style="fill:none;stroke:#FAA75B;stroke-width:0.5" />
<path d="M516.32,60.659L519.85,64.194" style="fill:none;stroke:#FAA75B;stroke-width:0.5" />
<path d="M516.32,64.194L519.85,60.659" style="fill:none;stroke:#FAA75B;stroke-width:0.5" />
<path d="M562.66,41.165L566.2,44.701" style="fill:none;stroke:#FAA75B;stroke-width:0.5" />
<path d="M562.66,44.701L566.2,41.165" style="fill:none;stroke:#FAA75B;stroke-width:0.5" />
<path d="M546.93,75.852L566.93,75.852" style="fill:none;stroke:#F15A60" />
<path d="M559.43,75.852A2.5,2.5 0 1 1 554.43,75.852A2.5,2.5 0 1 1 559.43,75.852Z" style="fill:none;stroke:#F15A60;stroke-width:0.5" />
<text x="502.6" y="-73.364" transform="scale(1, -1)"
	style="font-family:Liberation Serif;font-variant:normal;font-weight:normal;font-style:normal;font-size:12px">commits</text>
<path d="M546.93,65.668L566.93,65.668" style="fill:none;stroke:#7AC36A;stroke-dasharray:6,2" />
<path d="M554.8,63.534L559.06,63.534L559.06,67.802L554.8,67.802Z" style="fill:none;stroke:#7AC36A;stroke-width:0.5" />
<text x="515.26" y="-63.181" transform="scale(1, -1)"
	style="font-family:Liberation Serif;font-variant:normal;font-weight:normal;font-style:normal;font-size:12px">issues</text>
<path d="M546.93,55.484L566.93,55.484" style="fill:none;stroke:#5A9BD4;stroke-dasharray:2,2" />
<path d="M556.93,58.609L554.22,53.922L559.64,53.922Z" style="fill:none;stroke:#5A9BD4;stroke-width:0.5" />
<text x="524.58" y="-52.997" transform="scale(1, -1)"
	style="font-family:Liberation Serif;font-variant:normal;font-weight:normal;font-style:normal;font-size:12px">PRs</text>
<path d="M546.93,45.301L566.93,45.301" style="fill:none;stroke:#FAA75B;stroke-dasharray:1,1" />
<path d="M555.16,43.533L558.7,47.069" style="fill:none;stroke:#FAA75B;stroke-width:0.5" />
<path d="M555.16,47.069L558.7,43.533" style="fill:none;stroke:#FAA75B;stroke-width:0.5" />
<text x="506.61" y="-42.813" transform="scale(1, -1)"
	style="font-family:Liberation Serif;font-variant:normal;font-weight:normal;font-style:normal;font-size:12px">reviews</text>
</g>
</svg>
