<?xml version="1.0"?>
<!-- Generated by SVGo and Plotinum VG -->
<svg width="566.93pt" height="350.38pt" viewBox="0 0 566.93 350.38"
	xmlns="http://www.w3.org/2000/svg"
	xmlns:xlink="http://www.w3.org/1999/xlink">
<g transform="scale(1, -1) translate(0, -350.38)">
<path d="M0,0L566.93,0L566.93,350.38L0,350.38Z" style="fill:#FFFFFF" />
<text x="298.48" y="-3.9023" transform="scale(1, -1)"
	style="font-family:Liberation Serif;font-variant:normal;font-weight:normal;font-style:normal;font-size:12px">Year</text>
<text x="95.614" y="-16.541" transform="scale(1, -1)"
	style="font-family:Liberation Serif;font-variant:normal;font-weight:normal;font-style:normal;font-size:10px">2014</text>
<text x="299.53" y="-16.541" transform="scale(1, -1)"
	style="font-family:Liberation Serif;font-variant:normal;font-weight:normal;font-style:normal;font-size:10px">2018</text>
<text x="503.45" y="-16.541" transform="scale(1, -1)"
	style="font-family:Liberation Serif;font-variant:normal;font-weight:normal;font-style:normal;font-size:10px">2022</text>
<path d="M105.61,24.363L105.61,32.363" style="fill:none;stroke:#000000;stroke-width:0.5" />
<path d="M309.53,24.363L309.53,32.363" style="fill:none;stroke:#000000;stroke-width:0.5" />
<path d="M513.45,24.363L513.45,32.363" style="fill:none;stroke:#000000;stroke-width:0.5" />
<path d="M156.59,28.363L156.59,32.363" style="fill:none;stroke:#000000;stroke-width:0.5" />
<path d="M207.57,28.363L207.57,32.363" style="fill:none;stroke:#000000;stroke-width:0.5" />
<path d="M258.55,28.363L258.55,32.363" style="fill:none;stroke:#000000;stroke-width:0.5" />
<path d="M360.51,28.363L360.51,32.363" style="fill:none;stroke:#000000;stroke-width:0.5" />
<path d="M411.49,28.363L411.49,32.363" style="fill:none;stroke:#000000;stroke-width:0.5" />
<path d="M462.47,28.363L462.47,32.363" style="fill:none;stroke:#000000;stroke-width:0.5" />
<path d="M564.43,28.363L564.43,32.363" style="fill:none;stroke:#000000;stroke-width:0.5" />
<path d="M54.635,32.363L564.43,32.363" style="fill:none;stroke:#000000;stroke-width:0.5" />
<g transform="rotate(90)">
<text x="149.8" y="9.3867" transform="scale(1, -1)"
	style="font-family:Liberation Serif;font-variant:normal;font-weight:normal;font-style:normal;font-size:12px">Contribution count</text>
</g>
<text x="30.885" y="-40.424" transform="scale(1, -1)"
	style="font-family:Liberation Serif;font-variant:normal;font-weight:normal;font-style:normal;font-size:10px">0</text>
<text x="20.885" y="-136.21" transform="scale(1, -1)"
	style="font-family:Liberation Serif;font-variant:normal;font-weight:normal;font-style:normal;font-size:10px">500</text>
<text x="15.885" y="-231.99" transform="scale(1, -1)"
	style="font-family:Liberation Serif;font-variant:normal;font-weight:normal;font-style:normal;font-size:10px">1000</text>
<text x="15.885" y="-327.78" transform="scale(1, -1)"
	style="font-family:Liberation Serif;font-variant:normal;font-weight:normal;font-style:normal;font-size:10px">1500</text>
<path d="M38.385,42.709L46.385,42.709" style="fill:none;stroke:#000000;stroke-width:0.5" />
<path d="M38.385,138.49L46.385,138.49" style="fill:none;stroke:#000000;stroke-width:0.5" />
<path d="M38.385,234.28L46.385,234.28" style="fill:none;stroke:#000000;stroke-width:0.5" />
<path d="M38.385,330.07L46.385,330.07" style="fill:none;stroke:#000000;stroke-width:0.5" />
<path d="M42.385,61.866L46.385,61.866" style="fill:none;stroke:#000000;stroke-width:0.5" />
<path d="M42.385,81.023L46.385,81.023" style="fill:none;stroke:#000000;stroke-width:0.5" />
<path d="M42.385,100.18L46.385,100.18" style="fill:none;stroke:#000000;stroke-width:0.5" />
<path d="M42.385,119.34L46.385,119.34" style="fill:none;stroke:#000000;stroke-width:0.5" />
<path d="M42.385,157.65L46.385,157.65" style="fill:none;stroke:#000000;stroke-width:0.5" />
<path d="M42.385,176.81L46.385,176.81" style="fill:none;stroke:#000000;stroke-width:0.5" />
<path d="M42.385,195.97L46.385,195.97" style="fill:none;stroke:#000000;stroke-width:0.5" />
<path d="M42.385,215.12L46.385,215.12" style="fill:none;stroke:#000000;stroke-width:0.5" />
<path d="M42.385,253.44L46.385,253.44" style="fill:none;stroke:#000000;stroke-width:0.5" />
<path d="M42.385,272.59L46.385,272.59" style="fill:none;stroke:#000000;stroke-width:0.5" />
<path d="M42.385,291.75L46.385,291.75" style="fill:none;stroke:#000000;stroke-width:0.5" />
<path d="M42.385,310.91L46.385,310.91" style="fill:none;stroke:#000000;stroke-width:0.5" />
<path d="M46.385,42.709L46.385,347.88" style="fill:none;stroke:#000000;stroke-width:0.5" />
<path d="M54.635,42.709L105.61,42.709L156.59,42.709L207.57,45.583L258.55,50.372L309.53,46.157L360.51,49.797L411.49,124.7L462.47,152.67L513.45,212.44L564.43,347.88" style="fill:none;stroke:#F15A60" />
<path d="M57.135,42.709A2.5,2.5 0 1 1 52.135,42.709A2.5,2.5 0 1 1 57.135,42.709Z" style="fill:none;stroke:#F15A60;stroke-width:0.5" />
<path d="M108.11,42.709A2.5,2.5 0 1 1 103.11,42.709A2.5,2.5 0 1 1 108.11,42.709Z" style="fill:none;stroke:#F15A60;stroke-width:0.5" />
<path d="M159.09,42.709A2.5,2.5 0 1 1 154.09,42.709A2.5,2.5 0 1 1 159.09,42.709Z" style="fill:none;stroke:#F15A60;stroke-width:0.5" />
<path d="M210.07,45.583A2.5,2.5 0 1 1 205.07,45.583A2.5,2.5 0 1 1 210.07,45.583Z" style="fill:none;stroke:#F15A60;stroke-width:0.5" />
<path d="M261.05,50.372A2.5,2.5 0 1 1 256.05,50.372A2.5,2.5 0 1 1 261.05,50.372Z" style="fill:none;stroke:#F15A60;stroke-width:0.5" />
<path d="M312.03,46.157A2.5,2.5 0 1 1 307.03,46.157A2.5,2.5 0 1 1 312.03,46.157Z" style="fill:none;stroke:#F15A60;stroke-width:0.5" />
<path d="M363.01,49.797A2.5,2.5 0 1 1 358.01,49.797A2.5,2.5 0 1 1 363.01,49.797Z" style="fill:none;stroke:#F15A60;stroke-width:0.5" />
<path d="M413.99,124.7A2.5,2.5 0 1 1 408.99,124.7A2.5,2.5 0 1 1 413.99,124.7Z" style="fill:none;stroke:#F15A60;stroke-width:0.5" />
<path d="M464.97,152.67A2.5,2.5 0 1 1 459.97,152.67A2.5,2.5 0 1 1 464.97,152.67Z" style="fill:none;stroke:#F15A60;stroke-width:0.5" />
<path d="M515.95,212.44A2.5,2.5 0 1 1 510.95,212.44A2.5,2.5 0 1 1 515.95,212.44Z" style="fill:none;stroke:#F15A60;stroke-width:0.5" />
<path d="M566.93,347.88A2.5,2.5 0 1 1 561.93,347.88A2.5,2.5 0 1 1 566.93,347.88Z" style="fill:none;stroke:#F15A60;stroke-width:0.5" />
<path d="M54.635,42.709L105.61,42.709L156.59,42.709L207.57,42.709L258.55,42.709L309.53,42.709L360.51,46.54L411.49,57.843L462.47,49.414L513.45,43.475L564.43,48.265" style="fill:none;stroke:#7AC36A;stroke-dasharray:6,2" />
<path d="M52.501,40.575L56.769,40.575L56.769,44.843L52.501,44.843Z" style="fill:none;stroke:#7AC36A;stroke-width:0.5" />
<path d="M103.48,40.575L107.75,40.575L107.75,44.843L103.48,44.843Z" style="fill:none;stroke:#7AC36A;stroke-width:0.5" />
<path d="M154.46,40.575L158.73,40.575L158.73,44.843L154.46,44.843Z" style="fill:none;stroke:#7AC36A;stroke-width:0.5" />
<path d="M205.44,40.575L209.71,40.575L209.71,44.843L205.44,44.843Z" style="fill:none;stroke:#7AC36A;stroke-width:0.5" />
<path d="M256.42,40.575L260.69,40.575L260.69,44.843L256.42,44.843Z" style="fill:none;stroke:#7AC36A;stroke-width:0.5" />
<path d="M307.4,40.575L311.67,40.575L311.67,44.843L307.4,44.843Z" style="fill:none;stroke:#7AC36A;stroke-width:0.5" />
<path d="M358.38,44.407L362.65,44.407L362.65,48.674L358.38,48.674Z" style="fill:none;stroke:#7AC36A;stroke-width:0.5" />
<path d="M409.36,55.709L413.62,55.709L413.62,59.977L409.36,59.977Z" style="fill:none;stroke:#7AC36A;stroke-width:0.5" />
<path d="M460.34,47.28L464.6,47.28L464.6,51.548L460.34,51.548Z" style="fill:none;stroke:#7AC36A;stroke-width:0.5" />
<path d="M511.32,41.341L515.58,41.341L515.58,45.609L511.32,45.609Z" style="fill:none;stroke:#7AC36A;stroke-width:0.5" />
<path d="M562.3,46.131L566.56,46.131L566.56,50.398L562.3,50.398Z" style="fill:none;stroke:#7AC36A;stroke-width:0.5" />
<path d="M54.635,42.709L105.61,42.709L156.59,42.709L207.57,42.709L258.55,42.709L309.53,42.901L360.51,49.989L411.49,67.805L462.47,64.931L513.45,58.035L564.43,106.5" style="fill:none;stroke:#5A9BD4;stroke-dasharray:2,2" />
<path d="M54.635,45.834L51.928,41.146L57.341,41.146Z" style="fill:none;stroke:#5A9BD4;stroke-width:0.5" />
<path d="M105.61,45.834L102.91,41.146L108.32,41.146Z" style="fill:none;stroke:#5A9BD4;stroke-width:0.5" />
<path d="M156.59,45.834L153.89,41.146L159.3,41.146Z" style="fill:none;stroke:#5A9BD4;stroke-width:0.5" />
<path d="M207.57,45.834L204.87,41.146L210.28,41.146Z" style="fill:none;stroke:#5A9BD4;stroke-width:0.5" />
<path d="M258.55,45.834L255.85,41.146L261.26,41.146Z" style="fill:none;stroke:#5A9BD4;stroke-width:0.5" />
<path d="M309.53,46.026L306.83,41.338L312.24,41.338Z" style="fill:none;stroke:#5A9BD4;stroke-width:0.5" />
<path d="M360.51,53.114L357.81,48.426L363.22,48.426Z" style="fill:none;stroke:#5A9BD4;stroke-width:0.5" />
<path d="M411.49,70.93L408.78,66.242L414.2,66.242Z" style="fill:none;stroke:#5A9BD4;stroke-width:0.5" />
<path d="M462.47,68.056L459.76,63.369L465.18,63.369Z" style="fill:none;stroke:#5A9BD4;stroke-width:0.5" />
<path d="M513.45,61.16L510.74,56.472L516.16,56.472Z" style="fill:none;stroke:#5A9BD4;stroke-width:0.5" />
<path d="M564.43,109.63L561.72,104.94L567.14,104.94Z" style="fill:none;stroke:#5A9BD4;stroke-width:0.5" />
<path d="M54.635,42.709L105.61,42.709L156.59,42.709L207.57,42.709L258.55,42.709L309.53,42.709L360.51,42.709L411.49,42.709L462.47,43.284L513.45,43.667L564.43,76.425" style="fill:none;stroke:#FAA75B;stroke-dasharray:1,1" />
<path d="M52.867,40.941L56.403,44.477" style="fill:none;stroke:#FAA75B;stroke-width:0.5" />
<path d="M52.867,44.477L56.403,40.941" style="fill:none;stroke:#FAA75B;stroke-width:0.5" />
<path d="M103.85,40.941L107.38,44.477" style="fill:none;stroke:#FAA75B;stroke-width:0.5" />
<path d="M103.85,44.477L107.38,40.941" style="fill:none;stroke:#FAA75B;stroke-width:0.5" />
<path d="M154.83,40.941L158.36,44.477" style="fill:none;stroke:#FAA75B;stroke-width:0.5" />
<path d="M154.83,44.477L158.36,40.941" style="fill:none;stroke:#FAA75B;stroke-width:0.5" />
<path d="M205.81,40.941L209.34,44.477" style="fill:none;stroke:#FAA75B;stroke-width:0.5" />
<path d="M205.81,44.477L209.34,40.941" style="fill:none;stroke:#FAA75B;stroke-width:0.5" />
<path d="M256.78,40.941L260.32,44.477" style="fill:none;stroke:#FAA75B;stroke-width:0.5" />
<path d="M256.78,44.477L260.32,40.941" style="fill:none;stroke:#FAA75B;stroke-width:0.5" />
<path d="M307.76,40.941L311.3,44.477" style="fill:none;stroke:#FAA75B;stroke-width:0.5" />
<path d="M307.76,44.477L311.3,40.941" style="fill:none;stroke:#FAA75B;stroke-width:0.5" />
<path d="M358.74,40.941L362.28,44.477" style="fill:none;stroke:#FAA75B;stroke-width:0.5" />
<path d="M358.74,44.477L362.28,40.941" style="fill:none;stroke:#FAA75B;stroke-width:0.5" />
<path d="M409.72,40.941L413.26,44.477" style="fill:none;stroke:#FAA75B;stroke-width:0.5" />
<path d="M409.72,44.477L413.26,40.941" style="fill:none;stroke:#FAA75B;stroke-width:0.5" />
<path d="M460.7,41.516L464.24,45.051" style="fill:none;stroke:#FAA75B;stroke-width:0.5" />
<path d="M460.7,45.051L464.24,41.516" style="fill:none;stroke:#FAA75B;stroke-width:0.5" />
<path d="M511.68,41.899L515.22,45.435" style="fill:none;stroke:#FAA75B;stroke-width:0.5" />
<path d="M511.68,45.435L515.22,41.899" style="fill:none;stroke:#FAA75B;stroke-width:0.5" />
<path d="M562.66,74.658L566.2,78.193" style="fill:none;stroke:#FAA75B;stroke-width:0.5" />
<path d="M562.66,78.193L566.2,74.658" style="fill:none;stroke:#FAA75B;stroke-width:0.5" />
<path d="M546.93,75.852L566.93,75.852" style="fill:none;stroke:#F15A60" />
<path d="M559.43,75.852A2.5,2.5 0 1 1 554.43,75.852A2.5,2.5 0 1 1 559.43,75.852Z" style="fill:none;stroke:#F15A60;stroke-width:0.5" />
<text x="502.6" y="-73.364" transform="scale(1, -1)"
	style="font-family:Liberation Serif;font-variant:normal;font-weight:normal;font-style:normal;font-size:12px">commits</text>
<path d="M546.93,65.668L566.93,65.668" style="fill:none;stroke:#7AC36A;stroke-dasharray:6,2" />
<path d="M554.8,63.534L559.06,63.534L559.06,67.802L554.8,67.802Z" style="fill:none;stroke:#7AC36A;stroke-width:0.5" />
<text x="515.26" y="-63.181" transform="scale(1, -1)"
	style="font-family:Liberation Serif;font-variant:normal;font-weight:normal;font-style:normal;font-size:12px">issues</text>
<path d="M546.93,55.484L566.93,55.484" style="fill:none;stroke:#5A9BD4;stroke-dasharray:2,2" />
<path d="M556.93,58.609L554.22,53.922L559.64,53.922Z" style="fill:none;stroke:#5A9BD4;stroke-width:0.5" />
<text x="524.58" y="-52.997" transform="scale(1, -1)"
	style="font-family:Liberation Serif;font-variant:normal;font-weight:normal;font-style:normal;font-size:12px">PRs</text>
<path d="M546.93,45.301L566.93,45.301" style="fill:none;stroke:#FAA75B;stroke-dasharray:1,1" />
<path d="M555.16,43.533L558.7,47.069" style="fill:none;stroke:#FAA75B;stroke-width:0.5" />
<path d="M555.16,47.069L558.7,43.533" style="fill:none;stroke:#FAA75B;stroke-width:0.5" />
<text x="506.61" y="-42.813" transform="scale(1, -1)"
	style="font-family:Liberation Serif;font-variant:normal;font-weight:normal;font-style:normal;font-size:12px">reviews</text>
</g>
</svg>
