<?xml version="1.0"?>
<!-- Generated by SVGo and Plotinum VG -->
<svg width="566.93pt" height="350.38pt" viewBox="0 0 566.93 350.38"
	xmlns="http://www.w3.org/2000/svg"
	xmlns:xlink="http://www.w3.org/1999/xlink">
<g transform="scale(1, -1) translate(0, -350.38)">
<path d="M0,0L566.93,0L566.93,350.38L0,350.38Z" style="fill:#FFFFFF" />
<text x="298.48" y="-3.9023" transform="scale(1, -1)"
	style="font-family:Liberation Serif;font-variant:normal;font-weight:normal;font-style:normal;font-size:12px">Year</text>
<text x="95.614" y="-16.541" transform="scale(1, -1)"
	style="font-family:Liberation Serif;font-variant:normal;font-weight:normal;font-style:normal;font-size:10px">2014</text>
<text x="299.53" y="-16.541" transform="scale(1, -1)"
	style="font-family:Liberation Serif;font-variant:normal;font-weight:normal;font-style:normal;font-size:10px">2018</text>
<text x="503.45" y="-16.541" transform="scale(1, -1)"
	style="font-family:Liberation Serif;font-variant:normal;font-weight:normal;font-style:normal;font-size:10px">2022</text>
<path d="M105.61,24.363L105.61,32.363" style="fill:none;stroke:#000000;stroke-width:0.5" />
<path d="M309.53,24.363L309.53,32.363" style="fill:none;stroke:#000000;stroke-width:0.5" />
<path d="M513.45,24.363L513.45,32.363" style="fill:none;stroke:#000000;stroke-width:0.5" />
<path d="M156.59,28.363L156.59,32.363" style="fill:none;stroke:#000000;stroke-width:0.5" />
<path d="M207.57,28.363L207.57,32.363" style="fill:none;stroke:#000000;stroke-width:0.5" />
<path d="M258.55,28.363L258.55,32.363" style="fill:none;stroke:#000000;stroke-width:0.5" />
<path d="M360.51,28.363L360.51,32.363" style="fill:none;stroke:#000000;stroke-width:0.5" />
<path d="M411.49,28.363L411.49,32.363" style="fill:none;stroke:#000000;stroke-width:0.5" />
<path d="M462.47,28.363L462.47,32.363" style="fill:none;stroke:#000000;stroke-width:0.5" />
<path d="M564.43,28.363L564.43,32.363" style="fill:none;stroke:#000000;stroke-width:0.5" />
<path d="M54.635,32.363L564.43,32.363" style="fill:none;stroke:#000000;stroke-width:0.5" />
<g transform="rotate(90)">
<text x="149.8" y="9.3867" transform="scale(1, -1)"
	style="font-family:Liberation Serif;font-variant:normal;font-weight:normal;font-style:normal;font-size:12px">Contribution count</text>
</g>
<text x="30.885" y="-40.424" transform="scale(1, -1)"
	style="font-family:Liberation Serif;font-variant:normal;font-weight:normal;font-style:normal;font-size:10px">0</text>
<text x="20.885" y="-130.85" transform="scale(1, -1)"
	style="font-family:Liberation Serif;font-variant:normal;font-weight:normal;font-style:normal;font-size:10px">400</text>
<text x="20.885" y="-221.27" transform="scale(1, -1)"
	style="font-family:Liberation Serif;font-variant:normal;font-weight:normal;font-style:normal;font-size:10px">800</text>
<text x="15.885" y="-311.69" transform="scale(1, -1)"
	style="font-family:Liberation Serif;font-variant:normal;font-weight:normal;font-style:normal;font-size:10px">1200</text>
<path d="M38.385,42.709L46.385,42.709" style="fill:none;stroke:#000000;stroke-width:0.5" />
<path d="M38.385,133.13L46.385,133.13" style="fill:none;stroke:#000000;stroke-width:0.5" />
<path d="M38.385,223.55L46.385,223.55" style="fill:none;stroke:#000000;stroke-width:0.5" />
<path d="M38.385,313.97L46.385,313.97" style="fill:none;stroke:#000000;stroke-width:0.5" />
<path d="M42.385,65.314L46.385,65.314" style="fill:none;stroke:#000000;stroke-width:0.5" />
<path d="M42.385,87.92L46.385,87.92" style="fill:none;stroke:#000000;stroke-width:0.5" />
<path d="M42.385,110.53L46.385,110.53" style="fill:none;stroke:#000000;stroke-width:0.5" />
<path d="M42.385,155.74L46.385,155.74" style="fill:none;stroke:#000000;stroke-width:0.5" />
<path d="M42.385,178.34L46.385,178.34" style="fill:none;stroke:#000000;stroke-width:0.5" />
<path d="M42.385,200.95L46.385,200.95" style="fill:none;stroke:#000000;stroke-width:0.5" />
<path d="M42.385,246.16L46.385,246.16" style="fill:none;stroke:#000000;stroke-width:0.5" />
<path d="M42.385,268.76L46.385,268.76" style="fill:none;stroke:#000000;stroke-width:0.5" />
<path d="M42.385,291.37L46.385,291.37" style="fill:none;stroke:#000000;stroke-width:0.5" />
<path d="M42.385,336.58L46.385,336.58" style="fill:none;stroke:#000000;stroke-width:0.5" />
<path d="M46.385,42.709L46.385,347.88" style="fill:none;stroke:#000000;stroke-width:0.5" />
<path d="M54.635,42.709L105.61,42.709L156.59,42.709L207.57,46.1L258.55,51.751L309.53,46.778L360.51,51.073L411.49,139.46L462.47,172.46L513.45,242.99L564.43,347.88" style="fill:none;stroke:#F15A60" />
<path d="M57.135,42.709A2.5,2.5 0 1 1 52.135,42.709A2.5,2.5 0 1 1 57.135,42.709Z" style="fill:none;stroke:#F15A60;stroke-width:0.5" />
<path d="M108.11,42.709A2.5,2.5 0 1 1 103.11,42.709A2.5,2.5 0 1 1 108.11,42.709Z" style="fill:none;stroke:#F15A60;stroke-width:0.5" />
<path d="M159.09,42.709A2.5,2.5 0 1 1 154.09,42.709A2.5,2.5 0 1 1 159.09,42.709Z" style="fill:none;stroke:#F15A60;stroke-width:0.5" />
<path d="M210.07,46.1A2.5,2.5 0 1 1 205.07,46.1A2.5,2.5 0 1 1 210.07,46.1Z" style="fill:none;stroke:#F15A60;stroke-width:0.5" />
<path d="M261.05,51.751A2.5,2.5 0 1 1 256.05,51.751A2.5,2.5 0 1 1 261.05,51.751Z" style="fill:none;stroke:#F15A60;stroke-width:0.5" />
<path d="M312.03,46.778A2.5,2.5 0 1 1 307.03,46.778A2.5,2.5 0 1 1 312.03,46.778Z" style="fill:none;stroke:#F15A60;stroke-width:0.5" />
<path d="M363.01,51.073A2.5,2.5 0 1 1 358.01,51.073A2.5,2.5 0 1 1 363.01,51.073Z" style="fill:none;stroke:#F15A60;stroke-width:0.5" />
<path d="M413.99,139.46A2.5,2.5 0 1 1 408.99,139.46A2.5,2.5 0 1 1 413.99,139.46Z" style="fill:none;stroke:#F15A60;stroke-width:0.5" />
<path d="M464.97,172.46A2.5,2.5 0 1 1 459.97,172.46A2.5,2.5 0 1 1 464.97,172.46Z" style="fill:none;stroke:#F15A60;stroke-width:0.5" />
<path d="M515.95,242.99A2.5,2.5 0 1 1 510.95,242.99A2.5,2.5 0 1 1 515.95,242.99Z" style="fill:none;stroke:#F15A60;stroke-width:0.5" />
<path d="M566.93,347.88A2.5,2.5 0 1 1 561.93,347.88A2.5,2.5 0 1 1 566.93,347.88Z" style="fill:none;stroke:#F15A60;stroke-width:0.5" />
<path d="M54.635,42.709L105.61,42.709L156.59,42.709L207.57,42.709L258.55,42.709L309.53,42.709L360.51,47.23L411.49,60.567L462.47,50.621L513.45,43.613L564.43,48.812" style="fill:none;stroke:#7AC36A;stroke-dasharray:6,2" />
<path d="M52.501,40.575L56.769,40.575L56.769,44.843L52.501,44.843Z" style="fill:none;stroke:#7AC36A;stroke-width:0.5" />
<path d="M103.48,40.575L107.75,40.575L107.75,44.843L103.48,44.843Z" style="fill:none;stroke:#7AC36A;stroke-width:0.5" />
<path d="M154.46,40.575L158.73,40.575L158.73,44.843L154.46,44.843Z" style="fill:none;stroke:#7AC36A;stroke-width:0.5" />
<path d="M205.44,40.575L209.71,40.575L209.71,44.843L205.44,44.843Z" style="fill:none;stroke:#7AC36A;stroke-width:0.5" />
<path d="M256.42,40.575L260.69,40.575L260.69,44.843L256.42,44.843Z" style="fill:none;stroke:#7AC36A;stroke-width:0.5" />
<path d="M307.4,40.575L311.67,40.575L311.67,44.843L307.4,44.843Z" style="fill:none;stroke:#7AC36A;stroke-width:0.5" />
<path d="M358.38,45.096L362.65,45.096L362.65,49.364L358.38,49.364Z" style="fill:none;stroke:#7AC36A;stroke-width:0.5" />
<path d="M409.36,58.433L413.62,58.433L413.62,62.701L409.36,62.701Z" style="fill:none;stroke:#7AC36A;stroke-width:0.5" />
<path d="M460.34,48.487L464.6,48.487L464.6,52.755L460.34,52.755Z" style="fill:none;stroke:#7AC36A;stroke-width:0.5" />
<path d="M511.32,41.479L515.58,41.479L515.58,45.747L511.32,45.747Z" style="fill:none;stroke:#7AC36A;stroke-width:0.5" />
<path d="M562.3,46.679L566.56,46.679L566.56,50.946L562.3,50.946Z" style="fill:none;stroke:#7AC36A;stroke-width:0.5" />
<path d="M54.635,42.709L105.61,42.709L156.59,42.709L207.57,42.709L258.55,42.709L309.53,42.935L360.51,51.299L411.49,72.322L462.47,68.931L513.45,60.793L564.43,104.2" style="fill:none;stroke:#5A9BD4;stroke-dasharray:2,2" />
<path d="M54.635,45.834L51.928,41.146L57.341,41.146Z" style="fill:none;stroke:#5A9BD4;stroke-width:0.5" />
<path d="M105.61,45.834L102.91,41.146L108.32,41.146Z" style="fill:none;stroke:#5A9BD4;stroke-width:0.5" />
<path d="M156.59,45.834L153.89,41.146L159.3,41.146Z" style="fill:none;stroke:#5A9BD4;stroke-width:0.5" />
<path d="M207.57,45.834L204.87,41.146L210.28,41.146Z" style="fill:none;stroke:#5A9BD4;stroke-width:0.5" />
<path d="M258.55,45.834L255.85,41.146L261.26,41.146Z" style="fill:none;stroke:#5A9BD4;stroke-width:0.5" />
<path d="M309.53,46.06L306.83,41.373L312.24,41.373Z" style="fill:none;stroke:#5A9BD4;stroke-width:0.5" />
<path d="M360.51,54.424L357.81,49.737L363.22,49.737Z" style="fill:none;stroke:#5A9BD4;stroke-width:0.5" />
<path d="M411.49,75.447L408.78,70.76L414.2,70.76Z" style="fill:none;stroke:#5A9BD4;stroke-width:0.5" />
<path d="M462.47,72.056L459.76,67.369L465.18,67.369Z" style="fill:none;stroke:#5A9BD4;stroke-width:0.5" />
<path d="M513.45,63.918L510.74,59.231L516.16,59.231Z" style="fill:none;stroke:#5A9BD4;stroke-width:0.5" />
<path d="M564.43,107.32L561.72,102.63L567.14,102.63Z" style="fill:none;stroke:#5A9BD4;stroke-width:0.5" />
<path d="M54.635,42.709L105.61,42.709L156.59,42.709L207.57,42.709L258.55,42.709L309.53,42.709L360.51,42.709L411.49,42.709L462.47,43.387L513.45,43.839L564.43,73.226" style="fill:none;stroke:#FAA75B;stroke-dasharray:1,1" />
<path d="M52.867,40.941L56.403,44.477" style="fill:none;stroke:#FAA75B;stroke-width:0.5" />
<path d="M52.867,44.477L56.403,40.941" style="fill:none;stroke:#FAA75B;stroke-width:0.5" />
<path d="M103.85,40.941L107.38,44.477" style="fill:none;stroke:#FAA75B;stroke-width:0.5" />
<path d="M103.85,44.477L107.38,40.941" style="fill:none;stroke:#FAA75B;stroke-width:0.5" />
<path d="M154.83,40.941L158.36,44.477" style="fill:none;stroke:#FAA75B;stroke-width:0.5" />
<path d="M154.83,44.477L158.36,40.941" style="fill:none;stroke:#FAA75B;stroke-width:0.5" />
<path d="M205.81,40.941L209.34,44.477" style="fill:none;stroke:#FAA75B;stroke-width:0.5" />
<path d="M205.81,44.477L209.34,40.941" style="fill:none;stroke:#FAA75B;stroke-width:0.5" />
<path d="M256.78,40.941L260.32,44.477" style="fill:none;stroke:#FAA75B;stroke-width:0.5" />
<path d="M256.78,44.477L260.32,40.941" style="fill:none;stroke:#FAA75B;stroke-width:0.5" />
<path d="M307.76,40.941L311.3,44.477" style="fill:none;stroke:#FAA75B;stroke-width:0.5" />
<path d="M307.76,44.477L311.3,40.941" style="fill:none;stroke:#FAA75B;stroke-width:0.5" />
<path d="M358.74,40.941L362.28,44.477" style="fill:none;stroke:#FAA75B;stroke-width:0.5" />
<path d="M358.74,44.477L362.28,40.941" style="fill:none;stroke:#FAA75B;stroke-width:0.5" />
<path d="M409.72,40.941L413.26,44.477" style="fill:none;stroke:#FAA75B;stroke-width:0.5" />
<path d="M409.72,44.477L413.26,40.941" style="fill:none;stroke:#FAA75B;stroke-width:0.5" />
<path d="M460.7,41.619L464.24,45.155" style="fill:none;stroke:#FAA75B;stroke-width:0.5" />
<path d="M460.7,45.155L464.24,41.619" style="fill:none;stroke:#FAA75B;stroke-width:0.5" />
<path d="M511.68,42.071L515.22,45.607" style="fill:none;stroke:#FAA75B;stroke-width:0.5" />
<path d="M511.68,45.607L515.22,42.071" style="fill:none;stroke:#FAA75B;stroke-width:0.5" />
<path d="M562.66,71.458L566.2,74.994" style="fill:none;stroke:#FAA75B;stroke-width:0.5" />
<path d="M562.66,74.994L566.2,71.458" style="fill:none;stroke:#FAA75B;stroke-width:0.5" />
<path d="M546.93,75.852L566.93,75.852" style="fill:none;stroke:#F15A60" />
<path d="M559.43,75.852A2.5,2.5 0 1 1 554.43,75.852A2.5,2.5 0 1 1 559.43,75.852Z" style="fill:none;stroke:#F15A60;stroke-width:0.5" />
<text x="502.6" y="-73.364" transform="scale(1, -1)"
	style="font-family:Liberation Serif;font-variant:normal;font-weight:normal;font-style:normal;font-size:12px">commits</text>
<path d="M546.93,65.668L566.93,65.668" style="fill:none;stroke:#7AC36A;stroke-dasharray:6,2" />
<path d="M554.8,63.534L559.06,63.534L559.06,67.802L554.8,67.802Z" style="fill:none;stroke:#7AC36A;stroke-width:0.5" />
<text x="515.26" y="-63.181" transform="scale(1, -1)"
	style="font-family:Liberation Serif;font-variant:normal;font-weight:normal;font-style:normal;font-size:12px">issues</text>
<path d="M546.93,55.484L566.93,55.484" style="fill:none;stroke:#5A9BD4;stroke-dasharray:2,2" />
<path d="M556.93,58.609L554.22,53.922L559.64,53.922Z" style="fill:none;stroke:#5A9BD4;stroke-width:0.5" />
<text x="524.58" y="-52.997" transform="scale(1, -1)"
	style="font-family:Liberation Serif;font-variant:normal;font-weight:normal;font-style:normal;font-size:12px">PRs</text>
<path d="M546.93,45.301L566.93,45.301" style="fill:none;stroke:#FAA75B;stroke-dasharray:1,1" />
<path d="M555.16,43.533L558.7,47.069" style="fill:none;stroke:#FAA75B;stroke-width:0.5" />
<path d="M555.16,47.069L558.7,43.533" style="fill:none;stroke:#FAA75B;stroke-width:0.5" />
<text x="506.61" y="-42.813" transform="scale(1, -1)"
	style="font-family:Liberation Serif;font-variant:normal;font-weight:normal;font-style:normal;font-size:12px">reviews</text>
</g>
</svg>
