<?xml version="1.0"?>
<!-- Generated by SVGo and Plotinum VG -->
<svg width="566.93pt" height="350.38pt" viewBox="0 0 566.93 350.38"
	xmlns="http://www.w3.org/2000/svg"
	xmlns:xlink="http://www.w3.org/1999/xlink">
<g transform="scale(1, -1) translate(0, -350.38)">
<path d="M0,0L566.93,0L566.93,350.38L0,350.38Z" style="fill:#FFFFFF" />
<text x="298.48" y="-3.9023" transform="scale(1, -1)"
	style="font-family:Liberation Serif;font-variant:normal;font-weight:normal;font-style:normal;font-size:12px">Year</text>
<text x="44.635" y="-16.541" transform="scale(1, -1)"
	style="font-family:Liberation Serif;font-variant:normal;font-weight:normal;font-style:normal;font-size:10px">2013</text>
<text x="183.67" y="-16.541" transform="scale(1, -1)"
	style="font-family:Liberation Serif;font-variant:normal;font-weight:normal;font-style:normal;font-size:10px">2016</text>
<text x="322.7" y="-16.541" transform="scale(1, -1)"
	style="font-family:Liberation Serif;font-variant:normal;font-weight:normal;font-style:normal;font-size:10px">2019</text>
<text x="461.74" y="-16.541" transform="scale(1, -1)"
	style="font-family:Liberation Serif;font-variant:normal;font-weight:normal;font-style:normal;font-size:10px">2022</text>
<path d="M54.635,24.363L54.635,32.363" style="fill:none;stroke:#000000;stroke-width:0.5" />
<path d="M193.67,24.363L193.67,32.363" style="fill:none;stroke:#000000;stroke-width:0.5" />
<path d="M332.7,24.363L332.7,32.363" style="fill:none;stroke:#000000;stroke-width:0.5" />
<path d="M471.74,24.363L471.74,32.363" style="fill:none;stroke:#000000;stroke-width:0.5" />
<path d="M100.98,28.363L100.98,32.363" style="fill:none;stroke:#000000;stroke-width:0.5" />
<path d="M147.32,28.363L147.32,32.363" style="fill:none;stroke:#000000;stroke-width:0.5" />
<path d="M240.01,28.363L240.01,32.363" style="fill:none;stroke:#000000;stroke-width:0.5" />
<path d="M286.36,28.363L286.36,32.363" style="fill:none;stroke:#000000;stroke-width:0.5" />
<path d="M379.05,28.363L379.05,32.363" style="fill:none;stroke:#000000;stroke-width:0.5" />
<path d="M425.39,28.363L425.39,32.363" style="fill:none;stroke:#000000;stroke-width:0.5" />
<path d="M518.08,28.363L518.08,32.363" style="fill:none;stroke:#000000;stroke-width:0.5" />
<path d="M564.43,28.363L564.43,32.363" style="fill:none;stroke:#000000;stroke-width:0.5" />
<path d="M54.635,32.363L564.43,32.363" style="fill:none;stroke:#000000;stroke-width:0.5" />
<g transform="rotate(90)">
<text x="149.8" y="9.3867" transform="scale(1, -1)"
	style="font-family:Liberation Serif;font-variant:normal;font-weight:normal;font-style:normal;font-size:12px">Contribution count</text>
</g>
<text x="30.885" y="-40.424" transform="scale(1, -1)"
	style="font-family:Liberation Serif;font-variant:normal;font-weight:normal;font-style:normal;font-size:10px">0</text>
<text x="15.885" y="-185.74" transform="scale(1, -1)"
	style="font-family:Liberation Serif;font-variant:normal;font-weight:normal;font-style:normal;font-size:10px">1000</text>
<text x="15.885" y="-331.06" transform="scale(1, -1)"
	style="font-family:Liberation Serif;font-variant:normal;font-weight:normal;font-style:normal;font-size:10px">2000</text>
<path d="M38.385,42.709L46.385,42.709" style="fill:none;stroke:#000000;stroke-width:0.5" />
<path d="M38.385,188.03L46.385,188.03" style="fill:none;stroke:#000000;stroke-width:0.5" />
<path d="M38.385,333.35L46.385,333.35" style="fill:none;stroke:#000000;stroke-width:0.5" />
<path d="M42.385,71.773L46.385,71.773" style="fill:none;stroke:#000000;stroke-width:0.5" />
<path d="M42.385,100.84L46.385,100.84" style="fill:none;stroke:#000000;stroke-width:0.5" />
<path d="M42.385,129.9L46.385,129.9" style="fill:none;stroke:#000000;stroke-width:0.5" />
<path d="M42.385,158.97L46.385,158.97" style="fill:none;stroke:#000000;stroke-width:0.5" />
<path d="M42.385,217.09L46.385,217.09" style="fill:none;stroke:#000000;stroke-width:0.5" />
<path d="M42.385,246.16L46.385,246.16" style="fill:none;stroke:#000000;stroke-width:0.5" />
<path d="M42.385,275.22L46.385,275.22" style="fill:none;stroke:#000000;stroke-width:0.5" />
<path d="M42.385,304.29L46.385,304.29" style="fill:none;stroke:#000000;stroke-width:0.5" />
<path d="M46.385,42.709L46.385,347.88" style="fill:none;stroke:#000000;stroke-width:0.5" />
<path d="M54.635,42.709L100.98,42.709L147.32,42.709L193.67,44.889L240.01,48.522L286.36,45.325L332.7,48.086L379.05,104.91L425.39,126.12L471.74,171.46L518.08,240.64L564.43,347.88" style="fill:none;stroke:#F15A60" />
<path d="M57.135,42.709A2.5,2.5 0 1 1 52.135,42.709A2.5,2.5 0 1 1 57.135,42.709Z" style="fill:none;stroke:#F15A60;stroke-width:0.5" />
<path d="M103.48,42.709A2.5,2.5 0 1 1 98.48,42.709A2.5,2.5 0 1 1 103.48,42.709Z" style="fill:none;stroke:#F15A60;stroke-width:0.5" />
<path d="M149.82,42.709A2.5,2.5 0 1 1 144.82,42.709A2.5,2.5 0 1 1 149.82,42.709Z" style="fill:none;stroke:#F15A60;stroke-width:0.5" />
<path d="M196.17,44.889A2.5,2.5 0 1 1 191.17,44.889A2.5,2.5 0 1 1 196.17,44.889Z" style="fill:none;stroke:#F15A60;stroke-width:0.5" />
<path d="M242.51,48.522A2.5,2.5 0 1 1 237.51,48.522A2.5,2.5 0 1 1 242.51,48.522Z" style="fill:none;stroke:#F15A60;stroke-width:0.5" />
<path d="M288.86,45.325A2.5,2.5 0 1 1 283.86,45.325A2.5,2.5 0 1 1 288.86,45.325Z" style="fill:none;stroke:#F15A60;stroke-width:0.5" />
<path d="M335.2,48.086A2.5,2.5 0 1 1 330.2,48.086A2.5,2.5 0 1 1 335.2,48.086Z" style="fill:none;stroke:#F15A60;stroke-width:0.5" />
<path d="M381.55,104.91A2.5,2.5 0 1 1 376.55,104.91A2.5,2.5 0 1 1 381.55,104.91Z" style="fill:none;stroke:#F15A60;stroke-width:0.5" />
<path d="M427.89,126.12A2.5,2.5 0 1 1 422.89,126.12A2.5,2.5 0 1 1 427.89,126.12Z" style="fill:none;stroke:#F15A60;stroke-width:0.5" />
<path d="M474.24,171.46A2.5,2.5 0 1 1 469.24,171.46A2.5,2.5 0 1 1 474.24,171.46Z" style="fill:none;stroke:#F15A60;stroke-width:0.5" />
<path d="M520.58,240.64A2.5,2.5 0 1 1 515.58,240.64A2.5,2.5 0 1 1 520.58,240.64Z" style="fill:none;stroke:#F15A60;stroke-width:0.5" />
<path d="M566.93,347.88A2.5,2.5 0 1 1 561.93,347.88A2.5,2.5 0 1 1 566.93,347.88Z" style="fill:none;stroke:#F15A60;stroke-width:0.5" />
<path d="M54.635,42.709L100.98,42.709L147.32,42.709L193.67,42.709L240.01,42.709L286.36,42.709L332.7,45.615L379.05,54.189L425.39,47.795L471.74,43.29L518.08,45.325L564.43,42.709" style="fill:none;stroke:#7AC36A;stroke-dasharray:6,2" />
<path d="M52.501,40.575L56.769,40.575L56.769,44.843L52.501,44.843Z" style="fill:none;stroke:#7AC36A;stroke-width:0.5" />
<path d="M98.846,40.575L103.11,40.575L103.11,44.843L98.846,44.843Z" style="fill:none;stroke:#7AC36A;stroke-width:0.5" />
<path d="M145.19,40.575L149.46,40.575L149.46,44.843L145.19,44.843Z" style="fill:none;stroke:#7AC36A;stroke-width:0.5" />
<path d="M191.54,40.575L195.8,40.575L195.8,44.843L191.54,44.843Z" style="fill:none;stroke:#7AC36A;stroke-width:0.5" />
<path d="M237.88,40.575L242.15,40.575L242.15,44.843L237.88,44.843Z" style="fill:none;stroke:#7AC36A;stroke-width:0.5" />
<path d="M284.23,40.575L288.49,40.575L288.49,44.843L284.23,44.843Z" style="fill:none;stroke:#7AC36A;stroke-width:0.5" />
<path d="M330.57,43.482L334.84,43.482L334.84,47.749L330.57,47.749Z" style="fill:none;stroke:#7AC36A;stroke-width:0.5" />
<path d="M376.92,52.055L381.18,52.055L381.18,56.323L376.92,56.323Z" style="fill:none;stroke:#7AC36A;stroke-width:0.5" />
<path d="M423.26,45.661L427.53,45.661L427.53,49.929L423.26,49.929Z" style="fill:none;stroke:#7AC36A;stroke-width:0.5" />
<path d="M469.61,41.156L473.87,41.156L473.87,45.424L469.61,45.424Z" style="fill:none;stroke:#7AC36A;stroke-width:0.5" />
<path d="M515.95,43.191L520.22,43.191L520.22,47.459L515.95,47.459Z" style="fill:none;stroke:#7AC36A;stroke-width:0.5" />
<path d="M562.3,40.575L566.56,40.575L566.56,44.843L562.3,44.843Z" style="fill:none;stroke:#7AC36A;stroke-width:0.5" />
<path d="M54.635,42.709L100.98,42.709L147.32,42.709L193.67,42.709L240.01,42.709L286.36,42.854L332.7,48.231L379.05,61.746L425.39,59.566L471.74,54.335L518.08,66.542L564.43,49.539" style="fill:none;stroke:#5A9BD4;stroke-dasharray:2,2" />
<path d="M54.635,45.834L51.928,41.146L57.341,41.146Z" style="fill:none;stroke:#5A9BD4;stroke-width:0.5" />
<path d="M100.98,45.834L98.273,41.146L103.69,41.146Z" style="fill:none;stroke:#5A9BD4;stroke-width:0.5" />
<path d="M147.32,45.834L144.62,41.146L150.03,41.146Z" style="fill:none;stroke:#5A9BD4;stroke-width:0.5" />
<path d="M193.67,45.834L190.96,41.146L196.38,41.146Z" style="fill:none;stroke:#5A9BD4;stroke-width:0.5" />
<path d="M240.01,45.834L237.31,41.146L242.72,41.146Z" style="fill:none;stroke:#5A9BD4;stroke-width:0.5" />
<path d="M286.36,45.979L283.65,41.292L289.07,41.292Z" style="fill:none;stroke:#5A9BD4;stroke-width:0.5" />
<path d="M332.7,51.356L330,46.669L335.41,46.669Z" style="fill:none;stroke:#5A9BD4;stroke-width:0.5" />
<path d="M379.05,64.871L376.34,60.183L381.76,60.183Z" style="fill:none;stroke:#5A9BD4;stroke-width:0.5" />
<path d="M425.39,62.691L422.69,58.004L428.1,58.004Z" style="fill:none;stroke:#5A9BD4;stroke-width:0.5" />
<path d="M471.74,57.46L469.03,52.772L474.45,52.772Z" style="fill:none;stroke:#5A9BD4;stroke-width:0.5" />
<path d="M518.08,69.667L515.38,64.979L520.79,64.979Z" style="fill:none;stroke:#5A9BD4;stroke-width:0.5" />
<path d="M564.43,52.664L561.72,47.977L567.14,47.977Z" style="fill:none;stroke:#5A9BD4;stroke-width:0.5" />
<path d="M54.635,42.709L100.98,42.709L147.32,42.709L193.67,42.709L240.01,42.709L286.36,42.709L332.7,42.709L379.05,42.709L425.39,43.145L471.74,43.436L518.08,55.497L564.43,44.162" style="fill:none;stroke:#FAA75B;stroke-dasharray:1,1" />
<path d="M52.867,40.941L56.403,44.477" style="fill:none;stroke:#FAA75B;stroke-width:0.5" />
<path d="M52.867,44.477L56.403,40.941" style="fill:none;stroke:#FAA75B;stroke-width:0.5" />
<path d="M99.212,40.941L102.75,44.477" style="fill:none;stroke:#FAA75B;stroke-width:0.5" />
<path d="M99.212,44.477L102.75,40.941" style="fill:none;stroke:#FAA75B;stroke-width:0.5" />
<path d="M145.56,40.941L149.09,44.477" style="fill:none;stroke:#FAA75B;stroke-width:0.5" />
<path d="M145.56,44.477L149.09,40.941" style="fill:none;stroke:#FAA75B;stroke-width:0.5" />
<path d="M191.9,40.941L195.44,44.477" style="fill:none;stroke:#FAA75B;stroke-width:0.5" />
<path d="M191.9,44.477L195.44,40.941" style="fill:none;stroke:#FAA75B;stroke-width:0.5" />
<path d="M238.25,40.941L241.78,44.477" style="fill:none;stroke:#FAA75B;stroke-width:0.5" />
<path d="M238.25,44.477L241.78,40.941" style="fill:none;stroke:#FAA75B;stroke-width:0.5" />
<path d="M284.59,40.941L288.13,44.477" style="fill:none;stroke:#FAA75B;stroke-width:0.5" />
<path d="M284.59,44.477L288.13,40.941" style="fill:none;stroke:#FAA75B;stroke-width:0.5" />
<path d="M330.94,40.941L334.47,44.477" style="fill:none;stroke:#FAA75B;stroke-width:0.5" />
<path d="M330.94,44.477L334.47,40.941" style="fill:none;stroke:#FAA75B;stroke-width:0.5" />
<path d="M377.28,40.941L380.82,44.477" style="fill:none;stroke:#FAA75B;stroke-width:0.5" />
<path d="M377.28,44.477L380.82,40.941" style="fill:none;stroke:#FAA75B;stroke-width:0.5" />
<path d="M423.63,41.377L427.16,44.913" style="fill:none;stroke:#FAA75B;stroke-width:0.5" />
<path d="M423.63,44.913L427.16,41.377" style="fill:none;stroke:#FAA75B;stroke-width:0.5" />
<path d="M469.97,41.668L473.51,45.203" style="fill:none;stroke:#FAA75B;stroke-width:0.5" />
<path d="M469.97,45.203L473.51,41.668" style="fill:none;stroke:#FAA75B;stroke-width:0.5" />
<path d="M516.32,53.729L519.85,57.265" style="fill:none;stroke:#FAA75B;stroke-width:0.5" />
<path d="M516.32,57.265L519.85,53.729" style="fill:none;stroke:#FAA75B;stroke-width:0.5" />
<path d="M562.66,42.394L566.2,45.93" style="fill:none;stroke:#FAA75B;stroke-width:0.5" />
<path d="M562.66,45.93L566.2,42.394" style="fill:none;stroke:#FAA75B;stroke-width:0.5" />
<path d="M546.93,75.852L566.93,75.852" style="fill:none;stroke:#F15A60" />
<path d="M559.43,75.852A2.5,2.5 0 1 1 554.43,75.852A2.5,2.5 0 1 1 559.43,75.852Z" style="fill:none;stroke:#F15A60;stroke-width:0.5" />
<text x="502.6" y="-73.364" transform="scale(1, -1)"
	style="font-family:Liberation Serif;font-variant:normal;font-weight:normal;font-style:normal;font-size:12px">commits</text>
<path d="M546.93,65.668L566.93,65.668" style="fill:none;stroke:#7AC36A;stroke-dasharray:6,2" />
<path d="M554.8,63.534L559.06,63.534L559.06,67.802L554.8,67.802Z" style="fill:none;stroke:#7AC36A;stroke-width:0.5" />
<text x="515.26" y="-63.181" transform="scale(1, -1)"
	style="font-family:Liberation Serif;font-variant:normal;font-weight:normal;font-style:normal;font-size:12px">issues</text>
<path d="M546.93,55.484L566.93,55.484" style="fill:none;stroke:#5A9BD4;stroke-dasharray:2,2" />
<path d="M556.93,58.609L554.22,53.922L559.64,53.922Z" style="fill:none;stroke:#5A9BD4;stroke-width:0.5" />
<text x="524.58" y="-52.997" transform="scale(1, -1)"
	style="font-family:Liberation Serif;font-variant:normal;font-weight:normal;font-style:normal;font-size:12px">PRs</text>
<path d="M546.93,45.301L566.93,45.301" style="fill:none;stroke:#FAA75B;stroke-dasharray:1,1" />
<path d="M555.16,43.533L558.7,47.069" style="fill:none;stroke:#FAA75B;stroke-width:0.5" />
<path d="M555.16,47.069L558.7,43.533" style="fill:none;stroke:#FAA75B;stroke-width:0.5" />
<text x="506.61" y="-42.813" transform="scale(1, -1)"
	style="font-family:Liberation Serif;font-variant:normal;font-weight:normal;font-style:normal;font-size:12px">reviews</text>
</g>
</svg>
