<?xml version="1.0"?>
<!-- Generated by SVGo and Plotinum VG -->
<svg width="566.93pt" height="350.38pt" viewBox="0 0 566.93 350.38"
	xmlns="http://www.w3.org/2000/svg"
	xmlns:xlink="http://www.w3.org/1999/xlink">
<g transform="scale(1, -1) translate(0, -350.38)">
<path d="M0,0L566.93,0L566.93,350.38L0,350.38Z" style="fill:#FFFFFF" />
<text x="304.73" y="-3.9023" transform="scale(1, -1)"
	style="font-family:Liberation Serif;font-variant:normal;font-weight:normal;font-style:normal;font-size:12px">Year</text>
<text x="106.86" y="-16.541" transform="scale(1, -1)"
	style="font-family:Liberation Serif;font-variant:normal;font-weight:normal;font-style:normal;font-size:10px">2014</text>
<text x="305.78" y="-16.541" transform="scale(1, -1)"
	style="font-family:Liberation Serif;font-variant:normal;font-weight:normal;font-style:normal;font-size:10px">2018</text>
<text x="504.7" y="-16.541" transform="scale(1, -1)"
	style="font-family:Liberation Serif;font-variant:normal;font-weight:normal;font-style:normal;font-size:10px">2022</text>
<path d="M116.86,24.363L116.86,32.363" style="fill:none;stroke:#000000;stroke-width:0.5" />
<path d="M315.78,24.363L315.78,32.363" style="fill:none;stroke:#000000;stroke-width:0.5" />
<path d="M514.7,24.363L514.7,32.363" style="fill:none;stroke:#000000;stroke-width:0.5" />
<path d="M166.59,28.363L166.59,32.363" style="fill:none;stroke:#000000;stroke-width:0.5" />
<path d="M216.32,28.363L216.32,32.363" style="fill:none;stroke:#000000;stroke-width:0.5" />
<path d="M266.05,28.363L266.05,32.363" style="fill:none;stroke:#000000;stroke-width:0.5" />
<path d="M365.51,28.363L365.51,32.363" style="fill:none;stroke:#000000;stroke-width:0.5" />
<path d="M415.24,28.363L415.24,32.363" style="fill:none;stroke:#000000;stroke-width:0.5" />
<path d="M464.97,28.363L464.97,32.363" style="fill:none;stroke:#000000;stroke-width:0.5" />
<path d="M564.43,28.363L564.43,32.363" style="fill:none;stroke:#000000;stroke-width:0.5" />
<path d="M67.135,32.363L564.43,32.363" style="fill:none;stroke:#000000;stroke-width:0.5" />
<g transform="rotate(90)">
<text x="149.8" y="9.3867" transform="scale(1, -1)"
	style="font-family:Liberation Serif;font-variant:normal;font-weight:normal;font-style:normal;font-size:12px">Contribution count</text>
</g>
<text x="30.885" y="-40.424" transform="scale(1, -1)"
	style="font-family:Liberation Serif;font-variant:normal;font-weight:normal;font-style:normal;font-size:10px">0.00</text>
<text x="15.885" y="-180.75" transform="scale(1, -1)"
	style="font-family:Liberation Serif;font-variant:normal;font-weight:normal;font-style:normal;font-size:10px">2500.00</text>
<text x="15.885" y="-321.07" transform="scale(1, -1)"
	style="font-family:Liberation Serif;font-variant:normal;font-weight:normal;font-style:normal;font-size:10px">5000.00</text>
<path d="M50.885,42.709L58.885,42.709" style="fill:none;stroke:#000000;stroke-width:0.5" />
<path d="M50.885,183.03L58.885,183.03" style="fill:none;stroke:#000000;stroke-width:0.5" />
<path d="M50.885,323.35L58.885,323.35" style="fill:none;stroke:#000000;stroke-width:0.5" />
<path d="M54.885,70.773L58.885,70.773" style="fill:none;stroke:#000000;stroke-width:0.5" />
<path d="M54.885,98.838L58.885,98.838" style="fill:none;stroke:#000000;stroke-width:0.5" />
<path d="M54.885,126.9L58.885,126.9" style="fill:none;stroke:#000000;stroke-width:0.5" />
<path d="M54.885,154.97L58.885,154.97" style="fill:none;stroke:#000000;stroke-width:0.5" />
<path d="M54.885,211.1L58.885,211.1" style="fill:none;stroke:#000000;stroke-width:0.5" />
<path d="M54.885,239.16L58.885,239.16" style="fill:none;stroke:#000000;stroke-width:0.5" />
<path d="M54.885,267.22L58.885,267.22" style="fill:none;stroke:#000000;stroke-width:0.5" />
<path d="M54.885,295.29L58.885,295.29" style="fill:none;stroke:#000000;stroke-width:0.5" />
<path d="M58.885,42.709L58.885,347.88" style="fill:none;stroke:#000000;stroke-width:0.5" />
<path d="M67.135,42.709L116.86,42.709L166.59,42.709L216.32,43.551L266.05,44.954L315.78,43.719L365.51,44.786L415.24,66.732L464.97,230.35L514.7,347.88L564.43,151.04" style="fill:none;stroke:#F15A60" />
<path d="M69.635,42.709A2.5,2.5 0 1 1 64.635,42.709A2.5,2.5 0 1 1 69.635,42.709Z" style="fill:none;stroke:#F15A60;stroke-width:0.5" />
<path d="M119.36,42.709A2.5,2.5 0 1 1 114.36,42.709A2.5,2.5 0 1 1 119.36,42.709Z" style="fill:none;stroke:#F15A60;stroke-width:0.5" />
<path d="M169.09,42.709A2.5,2.5 0 1 1 164.09,42.709A2.5,2.5 0 1 1 169.09,42.709Z" style="fill:none;stroke:#F15A60;stroke-width:0.5" />
<path d="M218.82,43.551A2.5,2.5 0 1 1 213.82,43.551A2.5,2.5 0 1 1 218.82,43.551Z" style="fill:none;stroke:#F15A60;stroke-width:0.5" />
<path d="M268.55,44.954A2.5,2.5 0 1 1 263.55,44.954A2.5,2.5 0 1 1 268.55,44.954Z" style="fill:none;stroke:#F15A60;stroke-width:0.5" />
<path d="M318.28,43.719A2.5,2.5 0 1 1 313.28,43.719A2.5,2.5 0 1 1 318.28,43.719Z" style="fill:none;stroke:#F15A60;stroke-width:0.5" />
<path d="M368.01,44.786A2.5,2.5 0 1 1 363.01,44.786A2.5,2.5 0 1 1 368.01,44.786Z" style="fill:none;stroke:#F15A60;stroke-width:0.5" />
<path d="M417.74,66.732A2.5,2.5 0 1 1 412.74,66.732A2.5,2.5 0 1 1 417.74,66.732Z" style="fill:none;stroke:#F15A60;stroke-width:0.5" />
<path d="M467.47,230.35A2.5,2.5 0 1 1 462.47,230.35A2.5,2.5 0 1 1 467.47,230.35Z" style="fill:none;stroke:#F15A60;stroke-width:0.5" />
<path d="M517.2,347.88A2.5,2.5 0 1 1 512.2,347.88A2.5,2.5 0 1 1 517.2,347.88Z" style="fill:none;stroke:#F15A60;stroke-width:0.5" />
<path d="M566.93,151.04A2.5,2.5 0 1 1 561.93,151.04A2.5,2.5 0 1 1 566.93,151.04Z" style="fill:none;stroke:#F15A60;stroke-width:0.5" />
<path d="M67.135,42.709L116.86,42.709L166.59,42.709L216.32,42.709L266.05,42.709L315.78,42.709L365.51,43.832L415.24,47.143L464.97,46.75L514.7,47.536L564.43,44.224" style="fill:none;stroke:#7AC36A;stroke-dasharray:6,2" />
<path d="M65.001,40.575L69.269,40.575L69.269,44.843L65.001,44.843Z" style="fill:none;stroke:#7AC36A;stroke-width:0.5" />
<path d="M114.73,40.575L119,40.575L119,44.843L114.73,44.843Z" style="fill:none;stroke:#7AC36A;stroke-width:0.5" />
<path d="M164.46,40.575L168.73,40.575L168.73,44.843L164.46,44.843Z" style="fill:none;stroke:#7AC36A;stroke-width:0.5" />
<path d="M214.19,40.575L218.46,40.575L218.46,44.843L214.19,44.843Z" style="fill:none;stroke:#7AC36A;stroke-width:0.5" />
<path d="M263.92,40.575L268.19,40.575L268.19,44.843L263.92,44.843Z" style="fill:none;stroke:#7AC36A;stroke-width:0.5" />
<path d="M313.65,40.575L317.92,40.575L317.92,44.843L313.65,44.843Z" style="fill:none;stroke:#7AC36A;stroke-width:0.5" />
<path d="M363.38,41.698L367.65,41.698L367.65,45.965L363.38,45.965Z" style="fill:none;stroke:#7AC36A;stroke-width:0.5" />
<path d="M413.11,45.009L417.37,45.009L417.37,49.277L413.11,49.277Z" style="fill:none;stroke:#7AC36A;stroke-width:0.5" />
<path d="M462.84,44.616L467.1,44.616L467.1,48.884L462.84,48.884Z" style="fill:none;stroke:#7AC36A;stroke-width:0.5" />
<path d="M512.57,45.402L516.83,45.402L516.83,49.67L512.57,49.67Z" style="fill:none;stroke:#7AC36A;stroke-width:0.5" />
<path d="M562.3,42.091L566.56,42.091L566.56,46.358L562.3,46.358Z" style="fill:none;stroke:#7AC36A;stroke-width:0.5" />
<path d="M67.135,42.709L116.86,42.709L166.59,42.709L216.32,42.709L266.05,42.709L315.78,42.765L365.51,44.842L415.24,50.062L464.97,62.971L514.7,88.791L564.43,63.364" style="fill:none;stroke:#5A9BD4;stroke-dasharray:2,2" />
<path d="M67.135,45.834L64.428,41.146L69.841,41.146Z" style="fill:none;stroke:#5A9BD4;stroke-width:0.5" />
<path d="M116.86,45.834L114.16,41.146L119.57,41.146Z" style="fill:none;stroke:#5A9BD4;stroke-width:0.5" />
<path d="M166.59,45.834L163.89,41.146L169.3,41.146Z" style="fill:none;stroke:#5A9BD4;stroke-width:0.5" />
<path d="M216.32,45.834L213.62,41.146L219.03,41.146Z" style="fill:none;stroke:#5A9BD4;stroke-width:0.5" />
<path d="M266.05,45.834L263.35,41.146L268.76,41.146Z" style="fill:none;stroke:#5A9BD4;stroke-width:0.5" />
<path d="M315.78,45.89L313.08,41.203L318.49,41.203Z" style="fill:none;stroke:#5A9BD4;stroke-width:0.5" />
<path d="M365.51,47.967L362.81,43.279L368.22,43.279Z" style="fill:none;stroke:#5A9BD4;stroke-width:0.5" />
<path d="M415.24,53.187L412.53,48.499L417.95,48.499Z" style="fill:none;stroke:#5A9BD4;stroke-width:0.5" />
<path d="M464.97,66.096L462.26,61.409L467.68,61.409Z" style="fill:none;stroke:#5A9BD4;stroke-width:0.5" />
<path d="M514.7,91.916L511.99,87.228L517.41,87.228Z" style="fill:none;stroke:#5A9BD4;stroke-width:0.5" />
<path d="M564.43,66.489L561.72,61.802L567.14,61.802Z" style="fill:none;stroke:#5A9BD4;stroke-width:0.5" />
<path d="M67.135,42.709L116.86,42.709L166.59,42.709L216.32,42.709L266.05,42.709L315.78,42.709L365.51,42.709L415.24,42.709L464.97,56.404L514.7,109.05L564.43,67.518" style="fill:none;stroke:#FAA75B;stroke-dasharray:1,1" />
<path d="M65.367,40.941L68.903,44.477" style="fill:none;stroke:#FAA75B;stroke-width:0.5" />
<path d="M65.367,44.477L68.903,40.941" style="fill:none;stroke:#FAA75B;stroke-width:0.5" />
<path d="M115.1,40.941L118.63,44.477" style="fill:none;stroke:#FAA75B;stroke-width:0.5" />
<path d="M115.1,44.477L118.63,40.941" style="fill:none;stroke:#FAA75B;stroke-width:0.5" />
<path d="M164.83,40.941L168.36,44.477" style="fill:none;stroke:#FAA75B;stroke-width:0.5" />
<path d="M164.83,44.477L168.36,40.941" style="fill:none;stroke:#FAA75B;stroke-width:0.5" />
<path d="M214.56,40.941L218.09,44.477" style="fill:none;stroke:#FAA75B;stroke-width:0.5" />
<path d="M214.56,44.477L218.09,40.941" style="fill:none;stroke:#FAA75B;stroke-width:0.5" />
<path d="M264.28,40.941L267.82,44.477" style="fill:none;stroke:#FAA75B;stroke-width:0.5" />
<path d="M264.28,44.477L267.82,40.941" style="fill:none;stroke:#FAA75B;stroke-width:0.5" />
<path d="M314.01,40.941L317.55,44.477" style="fill:none;stroke:#FAA75B;stroke-width:0.5" />
<path d="M314.01,44.477L317.55,40.941" style="fill:none;stroke:#FAA75B;stroke-width:0.5" />
<path d="M363.74,40.941L367.28,44.477" style="fill:none;stroke:#FAA75B;stroke-width:0.5" />
<path d="M363.74,44.477L367.28,40.941" style="fill:none;stroke:#FAA75B;stroke-width:0.5" />
<path d="M413.47,40.941L417.01,44.477" style="fill:none;stroke:#FAA75B;stroke-width:0.5" />
<path d="M413.47,44.477L417.01,40.941" style="fill:none;stroke:#FAA75B;stroke-width:0.5" />
<path d="M463.2,54.637L466.74,58.172" style="fill:none;stroke:#FAA75B;stroke-width:0.5" />
<path d="M463.2,58.172L466.74,54.637" style="fill:none;stroke:#FAA75B;stroke-width:0.5" />
<path d="M512.93,107.29L516.47,110.82" style="fill:none;stroke:#FAA75B;stroke-width:0.5" />
<path d="M512.93,110.82L516.47,107.29" style="fill:none;stroke:#FAA75B;stroke-width:0.5" />
<path d="M562.66,65.75L566.2,69.286" style="fill:none;stroke:#FAA75B;stroke-width:0.5" />
<path d="M562.66,69.286L566.2,65.75" style="fill:none;stroke:#FAA75B;stroke-width:0.5" />
<path d="M546.93,75.852L566.93,75.852" style="fill:none;stroke:#F15A60" />
<path d="M559.43,75.852A2.5,2.5 0 1 1 554.43,75.852A2.5,2.5 0 1 1 559.43,75.852Z" style="fill:none;stroke:#F15A60;stroke-width:0.5" />
<text x="502.6" y="-73.364" transform="scale(1, -1)"
	style="font-family:Liberation Serif;font-variant:normal;font-weight:normal;font-style:normal;font-size:12px">commits</text>
<path d="M546.93,65.668L566.93,65.668" style="fill:none;stroke:#7AC36A;stroke-dasharray:6,2" />
<path d="M554.8,63.534L559.06,63.534L559.06,67.802L554.8,67.802Z" style="fill:none;stroke:#7AC36A;stroke-width:0.5" />
<text x="515.26" y="-63.181" transform="scale(1, -1)"
	style="font-family:Liberation Serif;font-variant:normal;font-weight:normal;font-style:normal;font-size:12px">issues</text>
<path d="M546.93,55.484L566.93,55.484" style="fill:none;stroke:#5A9BD4;stroke-dasharray:2,2" />
<path d="M556.93,58.609L554.22,53.922L559.64,53.922Z" style="fill:none;stroke:#5A9BD4;stroke-width:0.5" />
<text x="524.58" y="-52.997" transform="scale(1, -1)"
	style="font-family:Liberation Serif;font-variant:normal;font-weight:normal;font-style:normal;font-size:12px">PRs</text>
<path d="M546.93,45.301L566.93,45.301" style="fill:none;stroke:#FAA75B;stroke-dasharray:1,1" />
<path d="M555.16,43.533L558.7,47.069" style="fill:none;stroke:#FAA75B;stroke-width:0.5" />
<path d="M555.16,47.069L558.7,43.533" style="fill:none;stroke:#FAA75B;stroke-width:0.5" />
<text x="506.61" y="-42.813" transform="scale(1, -1)"
	style="font-family:Liberation Serif;font-variant:normal;font-weight:normal;font-style:normal;font-size:12px">reviews</text>
</g>
</svg>
