<?xml version="1.0"?>
<!-- Generated by SVGo and Plotinum VG -->
<svg width="566.93pt" height="350.38pt" viewBox="0 0 566.93 350.38"
	xmlns="http://www.w3.org/2000/svg"
	xmlns:xlink="http://www.w3.org/1999/xlink">
<g transform="scale(1, -1) translate(0, -350.38)">
<path d="M0,0L566.93,0L566.93,350.38L0,350.38Z" style="fill:#FFFFFF" />
<text x="292.23" y="-3.9023" transform="scale(1, -1)"
	style="font-family:Liberation Serif;font-variant:normal;font-weight:normal;font-style:normal;font-size:12px">Year</text>
<text x="124.18" y="-16.541" transform="scale(1, -1)"
	style="font-family:Liberation Serif;font-variant:normal;font-weight:normal;font-style:normal;font-size:10px">2015</text>
<text x="335.56" y="-16.541" transform="scale(1, -1)"
	style="font-family:Liberation Serif;font-variant:normal;font-weight:normal;font-style:normal;font-size:10px">2020</text>
<text x="546.93" y="-16.541" transform="scale(1, -1)"
	style="font-family:Liberation Serif;font-variant:normal;font-weight:normal;font-style:normal;font-size:10px">2025</text>
<path d="M134.18,24.363L134.18,32.363" style="fill:none;stroke:#000000;stroke-width:0.5" />
<path d="M345.56,24.363L345.56,32.363" style="fill:none;stroke:#000000;stroke-width:0.5" />
<path d="M556.93,24.363L556.93,32.363" style="fill:none;stroke:#000000;stroke-width:0.5" />
<path d="M91.909,28.363L91.909,32.363" style="fill:none;stroke:#000000;stroke-width:0.5" />
<path d="M176.46,28.363L176.46,32.363" style="fill:none;stroke:#000000;stroke-width:0.5" />
<path d="M218.73,28.363L218.73,32.363" style="fill:none;stroke:#000000;stroke-width:0.5" />
<path d="M261.01,28.363L261.01,32.363" style="fill:none;stroke:#000000;stroke-width:0.5" />
<path d="M303.28,28.363L303.28,32.363" style="fill:none;stroke:#000000;stroke-width:0.5" />
<path d="M387.83,28.363L387.83,32.363" style="fill:none;stroke:#000000;stroke-width:0.5" />
<path d="M430.11,28.363L430.11,32.363" style="fill:none;stroke:#000000;stroke-width:0.5" />
<path d="M472.38,28.363L472.38,32.363" style="fill:none;stroke:#000000;stroke-width:0.5" />
<path d="M514.65,28.363L514.65,32.363" style="fill:none;stroke:#000000;stroke-width:0.5" />
<path d="M49.635,32.363L556.93,32.363" style="fill:none;stroke:#000000;stroke-width:0.5" />
<g transform="rotate(90)">
<text x="160.99" y="9.3867" transform="scale(1, -1)"
	style="font-family:Liberation Serif;font-variant:normal;font-weight:normal;font-style:normal;font-size:12px">Contributions</text>
</g>
<text x="25.885" y="-37.828" transform="scale(1, -1)"
	style="font-family:Liberation Serif;font-variant:normal;font-weight:normal;font-style:normal;font-size:10px">0</text>
<text x="20.885" y="-163.45" transform="scale(1, -1)"
	style="font-family:Liberation Serif;font-variant:normal;font-weight:normal;font-style:normal;font-size:10px">60</text>
<text x="15.885" y="-289.07" transform="scale(1, -1)"
	style="font-family:Liberation Serif;font-variant:normal;font-weight:normal;font-style:normal;font-size:10px">120</text>
<path d="M33.385,40.113L41.385,40.113" style="fill:none;stroke:#000000;stroke-width:0.5" />
<path d="M33.385,165.73L41.385,165.73" style="fill:none;stroke:#000000;stroke-width:0.5" />
<path d="M33.385,291.35L41.385,291.35" style="fill:none;stroke:#000000;stroke-width:0.5" />
<path d="M37.385,102.92L41.385,102.92" style="fill:none;stroke:#000000;stroke-width:0.5" />
<path d="M37.385,228.54L41.385,228.54" style="fill:none;stroke:#000000;stroke-width:0.5" />
<path d="M41.385,40.113L41.385,347.88" style="fill:none;stroke:#000000;stroke-width:0.5" />
<path d="M49.635,40.113L91.909,40.113L134.18,40.113L176.46,40.113L218.73,40.113L261.01,40.113L303.28,81.987L345.56,205.51L387.83,113.39L430.11,48.488L472.38,52.675L514.65,44.301L556.93,188.76" style="fill:none;stroke:#F15A60" />
<path d="M52.135,40.113A2.5,2.5 0 1 1 47.135,40.113A2.5,2.5 0 1 1 52.135,40.113Z" style="fill:none;stroke:#F15A60;stroke-width:0.5" />
<path d="M94.409,40.113A2.5,2.5 0 1 1 89.409,40.113A2.5,2.5 0 1 1 94.409,40.113Z" style="fill:none;stroke:#F15A60;stroke-width:0.5" />
<path d="M136.68,40.113A2.5,2.5 0 1 1 131.68,40.113A2.5,2.5 0 1 1 136.68,40.113Z" style="fill:none;stroke:#F15A60;stroke-width:0.5" />
<path d="M178.96,40.113A2.5,2.5 0 1 1 173.96,40.113A2.5,2.5 0 1 1 178.96,40.113Z" style="fill:none;stroke:#F15A60;stroke-width:0.5" />
<path d="M221.23,40.113A2.5,2.5 0 1 1 216.23,40.113A2.5,2.5 0 1 1 221.23,40.113Z" style="fill:none;stroke:#F15A60;stroke-width:0.5" />
<path d="M263.51,40.113A2.5,2.5 0 1 1 258.51,40.113A2.5,2.5 0 1 1 263.51,40.113Z" style="fill:none;stroke:#F15A60;stroke-width:0.5" />
<path d="M305.78,81.987A2.5,2.5 0 1 1 300.78,81.987A2.5,2.5 0 1 1 305.78,81.987Z" style="fill:none;stroke:#F15A60;stroke-width:0.5" />
<path d="M348.06,205.51A2.5,2.5 0 1 1 343.06,205.51A2.5,2.5 0 1 1 348.06,205.51Z" style="fill:none;stroke:#F15A60;stroke-width:0.5" />
<path d="M390.33,113.39A2.5,2.5 0 1 1 385.33,113.39A2.5,2.5 0 1 1 390.33,113.39Z" style="fill:none;stroke:#F15A60;stroke-width:0.5" />
<path d="M432.61,48.488A2.5,2.5 0 1 1 427.61,48.488A2.5,2.5 0 1 1 432.61,48.488Z" style="fill:none;stroke:#F15A60;stroke-width:0.5" />
<path d="M474.88,52.675A2.5,2.5 0 1 1 469.88,52.675A2.5,2.5 0 1 1 474.88,52.675Z" style="fill:none;stroke:#F15A60;stroke-width:0.5" />
<path d="M517.15,44.301A2.5,2.5 0 1 1 512.15,44.301A2.5,2.5 0 1 1 517.15,44.301Z" style="fill:none;stroke:#F15A60;stroke-width:0.5" />
<path d="M559.43,188.76A2.5,2.5 0 1 1 554.43,188.76A2.5,2.5 0 1 1 559.43,188.76Z" style="fill:none;stroke:#F15A60;stroke-width:0.5" />
<path d="M49.635,40.113L91.909,40.113L134.18,40.113L176.46,40.113L218.73,40.113L261.01,42.207L303.28,119.67L345.56,314.38L387.83,282.98L430.11,207.61L472.38,249.48L514.65,224.36L556.93,347.88" style="fill:none;stroke:#7AC36A;stroke-dasharray:6,2" />
<path d="M47.501,37.979L51.769,37.979L51.769,42.247L47.501,42.247Z" style="fill:none;stroke:#7AC36A;stroke-width:0.5" />
<path d="M89.775,37.979L94.043,37.979L94.043,42.247L89.775,42.247Z" style="fill:none;stroke:#7AC36A;stroke-width:0.5" />
<path d="M132.05,37.979L136.32,37.979L136.32,42.247L132.05,42.247Z" style="fill:none;stroke:#7AC36A;stroke-width:0.5" />
<path d="M174.32,37.979L178.59,37.979L178.59,42.247L174.32,42.247Z" style="fill:none;stroke:#7AC36A;stroke-width:0.5" />
<path d="M216.6,37.979L220.87,37.979L220.87,42.247L216.6,42.247Z" style="fill:none;stroke:#7AC36A;stroke-width:0.5" />
<path d="M258.87,40.073L263.14,40.073L263.14,44.341L258.87,44.341Z" style="fill:none;stroke:#7AC36A;stroke-width:0.5" />
<path d="M301.15,117.54L305.42,117.54L305.42,121.81L301.15,121.81Z" style="fill:none;stroke:#7AC36A;stroke-width:0.5" />
<path d="M343.42,312.25L347.69,312.25L347.69,316.52L343.42,316.52Z" style="fill:none;stroke:#7AC36A;stroke-width:0.5" />
<path d="M385.7,280.84L389.96,280.84L389.96,285.11L385.7,285.11Z" style="fill:none;stroke:#7AC36A;stroke-width:0.5" />
<path d="M427.97,205.47L432.24,205.47L432.24,209.74L427.97,209.74Z" style="fill:none;stroke:#7AC36A;stroke-width:0.5" />
<path d="M470.25,247.35L474.51,247.35L474.51,251.61L470.25,251.61Z" style="fill:none;stroke:#7AC36A;stroke-width:0.5" />
<path d="M512.52,222.22L516.79,222.22L516.79,226.49L512.52,226.49Z" style="fill:none;stroke:#7AC36A;stroke-width:0.5" />
<path d="M554.8,345.75L559.06,345.75L559.06,350.02L554.8,350.02Z" style="fill:none;stroke:#7AC36A;stroke-width:0.5" />
<path d="M49.635,40.113L91.909,40.113L134.18,40.113L176.46,40.113L218.73,40.113L261.01,40.113L303.28,40.113L345.56,40.113L387.83,46.394L430.11,50.582L472.38,46.394L514.65,54.769L556.93,142.7" style="fill:none;stroke:#5A9BD4;stroke-dasharray:2,2" />
<path d="M49.635,43.238L46.928,38.551L52.341,38.551Z" style="fill:none;stroke:#5A9BD4;stroke-width:0.5" />
<path d="M91.909,43.238L89.203,38.551L94.616,38.551Z" style="fill:none;stroke:#5A9BD4;stroke-width:0.5" />
<path d="M134.18,43.238L131.48,38.551L136.89,38.551Z" style="fill:none;stroke:#5A9BD4;stroke-width:0.5" />
<path d="M176.46,43.238L173.75,38.551L179.16,38.551Z" style="fill:none;stroke:#5A9BD4;stroke-width:0.5" />
<path d="M218.73,43.238L216.03,38.551L221.44,38.551Z" style="fill:none;stroke:#5A9BD4;stroke-width:0.5" />
<path d="M261.01,43.238L258.3,38.551L263.71,38.551Z" style="fill:none;stroke:#5A9BD4;stroke-width:0.5" />
<path d="M303.28,43.238L300.58,38.551L305.99,38.551Z" style="fill:none;stroke:#5A9BD4;stroke-width:0.5" />
<path d="M345.56,43.238L342.85,38.551L348.26,38.551Z" style="fill:none;stroke:#5A9BD4;stroke-width:0.5" />
<path d="M387.83,49.519L385.12,44.832L390.54,44.832Z" style="fill:none;stroke:#5A9BD4;stroke-width:0.5" />
<path d="M430.11,53.707L427.4,49.019L432.81,49.019Z" style="fill:none;stroke:#5A9BD4;stroke-width:0.5" />
<path d="M472.38,49.519L469.67,44.832L475.09,44.832Z" style="fill:none;stroke:#5A9BD4;stroke-width:0.5" />
<path d="M514.65,57.894L511.95,53.206L517.36,53.206Z" style="fill:none;stroke:#5A9BD4;stroke-width:0.5" />
<path d="M556.93,145.83L554.22,141.14L559.64,141.14Z" style="fill:none;stroke:#5A9BD4;stroke-width:0.5" />
<path d="M546.93,63.072L566.93,63.072" style="fill:none;stroke:#F15A60" />
<path d="M559.43,63.072A2.5,2.5 0 1 1 554.43,63.072A2.5,2.5 0 1 1 559.43,63.072Z" style="fill:none;stroke:#F15A60;stroke-width:0.5" />
<text x="515.26" y="-60.585" transform="scale(1, -1)"
	style="font-family:Liberation Serif;font-variant:normal;font-weight:normal;font-style:normal;font-size:12px">issues</text>
<path d="M546.93,52.889L566.93,52.889" style="fill:none;stroke:#7AC36A;stroke-dasharray:6,2" />
<path d="M554.8,50.755L559.06,50.755L559.06,55.023L554.8,55.023Z" style="fill:none;stroke:#7AC36A;stroke-width:0.5" />
<text x="524.58" y="-50.401" transform="scale(1, -1)"
	style="font-family:Liberation Serif;font-variant:normal;font-weight:normal;font-style:normal;font-size:12px">PRs</text>
<path d="M546.93,42.705L566.93,42.705" style="fill:none;stroke:#5A9BD4;stroke-dasharray:2,2" />
<path d="M556.93,45.83L554.22,41.143L559.64,41.143Z" style="fill:none;stroke:#5A9BD4;stroke-width:0.5" />
<text x="506.61" y="-40.218" transform="scale(1, -1)"
	style="font-family:Liberation Serif;font-variant:normal;font-weight:normal;font-style:normal;font-size:12px">reviews</text>
</g>
</svg>
