<?xml version="1.0"?>
<!-- Generated by SVGo and Plotinum VG -->
<svg width="566.93pt" height="350.38pt" viewBox="0 0 566.93 350.38"
	xmlns="http://www.w3.org/2000/svg"
	xmlns:xlink="http://www.w3.org/1999/xlink">
<g transform="scale(1, -1) translate(0, -350.38)">
<path d="M0,0L566.93,0L566.93,350.38L0,350.38Z" style="fill:#FFFFFF" />
<text x="295.98" y="-3.9023" transform="scale(1, -1)"
	style="font-family:Liberation Serif;font-variant:normal;font-weight:normal;font-style:normal;font-size:12px">Year</text>
<text x="39.635" y="-16.541" transform="scale(1, -1)"
	style="font-family:Liberation Serif;font-variant:normal;font-weight:normal;font-style:normal;font-size:10px">2013</text>
<text x="180.03" y="-16.541" transform="scale(1, -1)"
	style="font-family:Liberation Serif;font-variant:normal;font-weight:normal;font-style:normal;font-size:10px">2016</text>
<text x="320.43" y="-16.541" transform="scale(1, -1)"
	style="font-family:Liberation Serif;font-variant:normal;font-weight:normal;font-style:normal;font-size:10px">2019</text>
<text x="460.83" y="-16.541" transform="scale(1, -1)"
	style="font-family:Liberation Serif;font-variant:normal;font-weight:normal;font-style:normal;font-size:10px">2022</text>
<path d="M49.635,24.363L49.635,32.363" style="fill:none;stroke:#000000;stroke-width:0.5" />
<path d="M190.03,24.363L190.03,32.363" style="fill:none;stroke:#000000;stroke-width:0.5" />
<path d="M330.43,24.363L330.43,32.363" style="fill:none;stroke:#000000;stroke-width:0.5" />
<path d="M470.83,24.363L470.83,32.363" style="fill:none;stroke:#000000;stroke-width:0.5" />
<path d="M96.434,28.363L96.434,32.363" style="fill:none;stroke:#000000;stroke-width:0.5" />
<path d="M143.23,28.363L143.23,32.363" style="fill:none;stroke:#000000;stroke-width:0.5" />
<path d="M236.83,28.363L236.83,32.363" style="fill:none;stroke:#000000;stroke-width:0.5" />
<path d="M283.63,28.363L283.63,32.363" style="fill:none;stroke:#000000;stroke-width:0.5" />
<path d="M377.23,28.363L377.23,32.363" style="fill:none;stroke:#000000;stroke-width:0.5" />
<path d="M424.03,28.363L424.03,32.363" style="fill:none;stroke:#000000;stroke-width:0.5" />
<path d="M517.63,28.363L517.63,32.363" style="fill:none;stroke:#000000;stroke-width:0.5" />
<path d="M564.43,28.363L564.43,32.363" style="fill:none;stroke:#000000;stroke-width:0.5" />
<path d="M49.635,32.363L564.43,32.363" style="fill:none;stroke:#000000;stroke-width:0.5" />
<g transform="rotate(90)">
<text x="160.99" y="9.3867" transform="scale(1, -1)"
	style="font-family:Liberation Serif;font-variant:normal;font-weight:normal;font-style:normal;font-size:12px">Contributions</text>
</g>
<text x="25.885" y="-37.828" transform="scale(1, -1)"
	style="font-family:Liberation Serif;font-variant:normal;font-weight:normal;font-style:normal;font-size:10px">0</text>
<text x="20.885" y="-131.66" transform="scale(1, -1)"
	style="font-family:Liberation Serif;font-variant:normal;font-weight:normal;font-style:normal;font-size:10px">50</text>
<text x="15.885" y="-225.49" transform="scale(1, -1)"
	style="font-family:Liberation Serif;font-variant:normal;font-weight:normal;font-style:normal;font-size:10px">100</text>
<text x="15.885" y="-319.32" transform="scale(1, -1)"
	style="font-family:Liberation Serif;font-variant:normal;font-weight:normal;font-style:normal;font-size:10px">150</text>
<path d="M33.385,40.113L41.385,40.113" style="fill:none;stroke:#000000;stroke-width:0.5" />
<path d="M33.385,133.95L41.385,133.95" style="fill:none;stroke:#000000;stroke-width:0.5" />
<path d="M33.385,227.78L41.385,227.78" style="fill:none;stroke:#000000;stroke-width:0.5" />
<path d="M33.385,321.61L41.385,321.61" style="fill:none;stroke:#000000;stroke-width:0.5" />
<path d="M37.385,58.88L41.385,58.88" style="fill:none;stroke:#000000;stroke-width:0.5" />
<path d="M37.385,77.646L41.385,77.646" style="fill:none;stroke:#000000;stroke-width:0.5" />
<path d="M37.385,96.412L41.385,96.412" style="fill:none;stroke:#000000;stroke-width:0.5" />
<path d="M37.385,115.18L41.385,115.18" style="fill:none;stroke:#000000;stroke-width:0.5" />
<path d="M37.385,152.71L41.385,152.71" style="fill:none;stroke:#000000;stroke-width:0.5" />
<path d="M37.385,171.48L41.385,171.48" style="fill:none;stroke:#000000;stroke-width:0.5" />
<path d="M37.385,190.24L41.385,190.24" style="fill:none;stroke:#000000;stroke-width:0.5" />
<path d="M37.385,209.01L41.385,209.01" style="fill:none;stroke:#000000;stroke-width:0.5" />
<path d="M37.385,246.54L41.385,246.54" style="fill:none;stroke:#000000;stroke-width:0.5" />
<path d="M37.385,265.31L41.385,265.31" style="fill:none;stroke:#000000;stroke-width:0.5" />
<path d="M37.385,284.08L41.385,284.08" style="fill:none;stroke:#000000;stroke-width:0.5" />
<path d="M37.385,302.84L41.385,302.84" style="fill:none;stroke:#000000;stroke-width:0.5" />
<path d="M37.385,340.37L41.385,340.37" style="fill:none;stroke:#000000;stroke-width:0.5" />
<path d="M41.385,40.113L41.385,347.88" style="fill:none;stroke:#000000;stroke-width:0.5" />
<path d="M49.635,40.113L96.434,40.113L143.23,40.113L190.03,40.113L236.83,40.113L283.63,40.113L330.43,77.646L377.23,188.37L424.03,105.8L470.83,47.62L517.63,73.893L564.43,41.99" style="fill:none;stroke:#F15A60" />
<path d="M52.135,40.113A2.5,2.5 0 1 1 47.135,40.113A2.5,2.5 0 1 1 52.135,40.113Z" style="fill:none;stroke:#F15A60;stroke-width:0.5" />
<path d="M98.934,40.113A2.5,2.5 0 1 1 93.934,40.113A2.5,2.5 0 1 1 98.934,40.113Z" style="fill:none;stroke:#F15A60;stroke-width:0.5" />
<path d="M145.73,40.113A2.5,2.5 0 1 1 140.73,40.113A2.5,2.5 0 1 1 145.73,40.113Z" style="fill:none;stroke:#F15A60;stroke-width:0.5" />
<path d="M192.53,40.113A2.5,2.5 0 1 1 187.53,40.113A2.5,2.5 0 1 1 192.53,40.113Z" style="fill:none;stroke:#F15A60;stroke-width:0.5" />
<path d="M239.33,40.113A2.5,2.5 0 1 1 234.33,40.113A2.5,2.5 0 1 1 239.33,40.113Z" style="fill:none;stroke:#F15A60;stroke-width:0.5" />
<path d="M286.13,40.113A2.5,2.5 0 1 1 281.13,40.113A2.5,2.5 0 1 1 286.13,40.113Z" style="fill:none;stroke:#F15A60;stroke-width:0.5" />
<path d="M332.93,77.646A2.5,2.5 0 1 1 327.93,77.646A2.5,2.5 0 1 1 332.93,77.646Z" style="fill:none;stroke:#F15A60;stroke-width:0.5" />
<path d="M379.73,188.37A2.5,2.5 0 1 1 374.73,188.37A2.5,2.5 0 1 1 379.73,188.37Z" style="fill:none;stroke:#F15A60;stroke-width:0.5" />
<path d="M426.53,105.8A2.5,2.5 0 1 1 421.53,105.8A2.5,2.5 0 1 1 426.53,105.8Z" style="fill:none;stroke:#F15A60;stroke-width:0.5" />
<path d="M473.33,47.62A2.5,2.5 0 1 1 468.33,47.62A2.5,2.5 0 1 1 473.33,47.62Z" style="fill:none;stroke:#F15A60;stroke-width:0.5" />
<path d="M520.13,73.893A2.5,2.5 0 1 1 515.13,73.893A2.5,2.5 0 1 1 520.13,73.893Z" style="fill:none;stroke:#F15A60;stroke-width:0.5" />
<path d="M566.93,41.99A2.5,2.5 0 1 1 561.93,41.99A2.5,2.5 0 1 1 566.93,41.99Z" style="fill:none;stroke:#F15A60;stroke-width:0.5" />
<path d="M49.635,40.113L96.434,40.113L143.23,40.113L190.03,40.113L236.83,40.113L283.63,41.99L330.43,111.43L377.23,285.95L424.03,257.8L470.83,190.24L517.63,347.88L564.43,214.64" style="fill:none;stroke:#7AC36A;stroke-dasharray:6,2" />
<path d="M47.501,37.979L51.769,37.979L51.769,42.247L47.501,42.247Z" style="fill:none;stroke:#7AC36A;stroke-width:0.5" />
<path d="M94.3,37.979L98.568,37.979L98.568,42.247L94.3,42.247Z" style="fill:none;stroke:#7AC36A;stroke-width:0.5" />
<path d="M141.1,37.979L145.37,37.979L145.37,42.247L141.1,42.247Z" style="fill:none;stroke:#7AC36A;stroke-width:0.5" />
<path d="M187.9,37.979L192.17,37.979L192.17,42.247L187.9,42.247Z" style="fill:none;stroke:#7AC36A;stroke-width:0.5" />
<path d="M234.7,37.979L238.97,37.979L238.97,42.247L234.7,42.247Z" style="fill:none;stroke:#7AC36A;stroke-width:0.5" />
<path d="M281.5,39.856L285.77,39.856L285.77,44.124L281.5,44.124Z" style="fill:none;stroke:#7AC36A;stroke-width:0.5" />
<path d="M328.3,109.29L332.57,109.29L332.57,113.56L328.3,113.56Z" style="fill:none;stroke:#7AC36A;stroke-width:0.5" />
<path d="M375.1,283.82L379.37,283.82L379.37,288.09L375.1,288.09Z" style="fill:none;stroke:#7AC36A;stroke-width:0.5" />
<path d="M421.9,255.67L426.16,255.67L426.16,259.94L421.9,259.94Z" style="fill:none;stroke:#7AC36A;stroke-width:0.5" />
<path d="M468.7,188.11L472.96,188.11L472.96,192.38L468.7,192.38Z" style="fill:none;stroke:#7AC36A;stroke-width:0.5" />
<path d="M515.5,345.75L519.76,345.75L519.76,350.02L515.5,350.02Z" style="fill:none;stroke:#7AC36A;stroke-width:0.5" />
<path d="M562.3,212.51L566.56,212.51L566.56,216.77L562.3,216.77Z" style="fill:none;stroke:#7AC36A;stroke-width:0.5" />
<path d="M49.635,40.113L96.434,40.113L143.23,40.113L190.03,40.113L236.83,40.113L283.63,40.113L330.43,40.113L377.23,40.113L424.03,45.743L470.83,49.496L517.63,205.26L564.43,66.386" style="fill:none;stroke:#5A9BD4;stroke-dasharray:2,2" />
<path d="M49.635,43.238L46.928,38.551L52.341,38.551Z" style="fill:none;stroke:#5A9BD4;stroke-width:0.5" />
<path d="M96.434,43.238L93.728,38.551L99.141,38.551Z" style="fill:none;stroke:#5A9BD4;stroke-width:0.5" />
<path d="M143.23,43.238L140.53,38.551L145.94,38.551Z" style="fill:none;stroke:#5A9BD4;stroke-width:0.5" />
<path d="M190.03,43.238L187.33,38.551L192.74,38.551Z" style="fill:none;stroke:#5A9BD4;stroke-width:0.5" />
<path d="M236.83,43.238L234.13,38.551L239.54,38.551Z" style="fill:none;stroke:#5A9BD4;stroke-width:0.5" />
<path d="M283.63,43.238L280.93,38.551L286.34,38.551Z" style="fill:none;stroke:#5A9BD4;stroke-width:0.5" />
<path d="M330.43,43.238L327.73,38.551L333.14,38.551Z" style="fill:none;stroke:#5A9BD4;stroke-width:0.5" />
<path d="M377.23,43.238L374.52,38.551L379.94,38.551Z" style="fill:none;stroke:#5A9BD4;stroke-width:0.5" />
<path d="M424.03,48.868L421.32,44.181L426.74,44.181Z" style="fill:none;stroke:#5A9BD4;stroke-width:0.5" />
<path d="M470.83,52.621L468.12,47.934L473.54,47.934Z" style="fill:none;stroke:#5A9BD4;stroke-width:0.5" />
<path d="M517.63,208.38L514.92,203.69L520.34,203.69Z" style="fill:none;stroke:#5A9BD4;stroke-width:0.5" />
<path d="M564.43,69.511L561.72,64.824L567.14,64.824Z" style="fill:none;stroke:#5A9BD4;stroke-width:0.5" />
<path d="M546.93,63.072L566.93,63.072" style="fill:none;stroke:#F15A60" />
<path d="M559.43,63.072A2.5,2.5 0 1 1 554.43,63.072A2.5,2.5 0 1 1 559.43,63.072Z" style="fill:none;stroke:#F15A60;stroke-width:0.5" />
<text x="515.26" y="-60.585" transform="scale(1, -1)"
	style="font-family:Liberation Serif;font-variant:normal;font-weight:normal;font-style:normal;font-size:12px">issues</text>
<path d="M546.93,52.889L566.93,52.889" style="fill:none;stroke:#7AC36A;stroke-dasharray:6,2" />
<path d="M554.8,50.755L559.06,50.755L559.06,55.023L554.8,55.023Z" style="fill:none;stroke:#7AC36A;stroke-width:0.5" />
<text x="524.58" y="-50.401" transform="scale(1, -1)"
	style="font-family:Liberation Serif;font-variant:normal;font-weight:normal;font-style:normal;font-size:12px">PRs</text>
<path d="M546.93,42.705L566.93,42.705" style="fill:none;stroke:#5A9BD4;stroke-dasharray:2,2" />
<path d="M556.93,45.83L554.22,41.143L559.64,41.143Z" style="fill:none;stroke:#5A9BD4;stroke-width:0.5" />
<text x="506.61" y="-40.218" transform="scale(1, -1)"
	style="font-family:Liberation Serif;font-variant:normal;font-weight:normal;font-style:normal;font-size:12px">reviews</text>
</g>
</svg>
