<?xml version="1.0"?>
<!-- Generated by SVGo and Plotinum VG -->
<svg width="566.93pt" height="350.38pt" viewBox="0 0 566.93 350.38"
	xmlns="http://www.w3.org/2000/svg"
	xmlns:xlink="http://www.w3.org/1999/xlink">
<g transform="scale(1, -1) translate(0, -350.38)">
<path d="M0,0L566.93,0L566.93,350.38L0,350.38Z" style="fill:#FFFFFF" />
<text x="304.73" y="-3.9023" transform="scale(1, -1)"
	style="font-family:Liberation Serif;font-variant:normal;font-weight:normal;font-style:normal;font-size:12px">Year</text>
<text x="57.135" y="-16.541" transform="scale(1, -1)"
	style="font-family:Liberation Serif;font-variant:normal;font-weight:normal;font-style:normal;font-size:10px">2013</text>
<text x="192.76" y="-16.541" transform="scale(1, -1)"
	style="font-family:Liberation Serif;font-variant:normal;font-weight:normal;font-style:normal;font-size:10px">2016</text>
<text x="328.39" y="-16.541" transform="scale(1, -1)"
	style="font-family:Liberation Serif;font-variant:normal;font-weight:normal;font-style:normal;font-size:10px">2019</text>
<text x="464.01" y="-16.541" transform="scale(1, -1)"
	style="font-family:Liberation Serif;font-variant:normal;font-weight:normal;font-style:normal;font-size:10px">2022</text>
<path d="M67.135,24.363L67.135,32.363" style="fill:none;stroke:#000000;stroke-width:0.5" />
<path d="M202.76,24.363L202.76,32.363" style="fill:none;stroke:#000000;stroke-width:0.5" />
<path d="M338.39,24.363L338.39,32.363" style="fill:none;stroke:#000000;stroke-width:0.5" />
<path d="M474.01,24.363L474.01,32.363" style="fill:none;stroke:#000000;stroke-width:0.5" />
<path d="M112.34,28.363L112.34,32.363" style="fill:none;stroke:#000000;stroke-width:0.5" />
<path d="M157.55,28.363L157.55,32.363" style="fill:none;stroke:#000000;stroke-width:0.5" />
<path d="M247.97,28.363L247.97,32.363" style="fill:none;stroke:#000000;stroke-width:0.5" />
<path d="M293.18,28.363L293.18,32.363" style="fill:none;stroke:#000000;stroke-width:0.5" />
<path d="M383.59,28.363L383.59,32.363" style="fill:none;stroke:#000000;stroke-width:0.5" />
<path d="M428.8,28.363L428.8,32.363" style="fill:none;stroke:#000000;stroke-width:0.5" />
<path d="M519.22,28.363L519.22,32.363" style="fill:none;stroke:#000000;stroke-width:0.5" />
<path d="M564.43,28.363L564.43,32.363" style="fill:none;stroke:#000000;stroke-width:0.5" />
<path d="M67.135,32.363L564.43,32.363" style="fill:none;stroke:#000000;stroke-width:0.5" />
<g transform="rotate(90)">
<text x="149.8" y="9.3867" transform="scale(1, -1)"
	style="font-family:Liberation Serif;font-variant:normal;font-weight:normal;font-style:normal;font-size:12px">Contribution count</text>
</g>
<text x="30.885" y="-40.424" transform="scale(1, -1)"
	style="font-family:Liberation Serif;font-variant:normal;font-weight:normal;font-style:normal;font-size:10px">0.00</text>
<text x="15.885" y="-297.39" transform="scale(1, -1)"
	style="font-family:Liberation Serif;font-variant:normal;font-weight:normal;font-style:normal;font-size:10px">2500.00</text>
<path d="M50.885,42.709L58.885,42.709" style="fill:none;stroke:#000000;stroke-width:0.5" />
<path d="M50.885,299.67L58.885,299.67" style="fill:none;stroke:#000000;stroke-width:0.5" />
<path d="M54.885,94.102L58.885,94.102" style="fill:none;stroke:#000000;stroke-width:0.5" />
<path d="M54.885,145.5L58.885,145.5" style="fill:none;stroke:#000000;stroke-width:0.5" />
<path d="M54.885,196.89L58.885,196.89" style="fill:none;stroke:#000000;stroke-width:0.5" />
<path d="M54.885,248.28L58.885,248.28" style="fill:none;stroke:#000000;stroke-width:0.5" />
<path d="M58.885,42.709L58.885,347.88" style="fill:none;stroke:#000000;stroke-width:0.5" />
<path d="M67.135,42.709L112.34,42.709L157.55,42.709L202.76,44.251L247.97,46.82L293.18,44.559L338.39,46.512L383.59,86.702L428.8,101.71L474.01,133.78L519.22,182.7L564.43,347.88" style="fill:none;stroke:#F15A60" />
<path d="M69.635,42.709A2.5,2.5 0 1 1 64.635,42.709A2.5,2.5 0 1 1 69.635,42.709Z" style="fill:none;stroke:#F15A60;stroke-width:0.5" />
<path d="M114.84,42.709A2.5,2.5 0 1 1 109.84,42.709A2.5,2.5 0 1 1 114.84,42.709Z" style="fill:none;stroke:#F15A60;stroke-width:0.5" />
<path d="M160.05,42.709A2.5,2.5 0 1 1 155.05,42.709A2.5,2.5 0 1 1 160.05,42.709Z" style="fill:none;stroke:#F15A60;stroke-width:0.5" />
<path d="M205.26,44.251A2.5,2.5 0 1 1 200.26,44.251A2.5,2.5 0 1 1 205.26,44.251Z" style="fill:none;stroke:#F15A60;stroke-width:0.5" />
<path d="M250.47,46.82A2.5,2.5 0 1 1 245.47,46.82A2.5,2.5 0 1 1 250.47,46.82Z" style="fill:none;stroke:#F15A60;stroke-width:0.5" />
<path d="M295.68,44.559A2.5,2.5 0 1 1 290.68,44.559A2.5,2.5 0 1 1 295.68,44.559Z" style="fill:none;stroke:#F15A60;stroke-width:0.5" />
<path d="M340.89,46.512A2.5,2.5 0 1 1 335.89,46.512A2.5,2.5 0 1 1 340.89,46.512Z" style="fill:none;stroke:#F15A60;stroke-width:0.5" />
<path d="M386.09,86.702A2.5,2.5 0 1 1 381.09,86.702A2.5,2.5 0 1 1 386.09,86.702Z" style="fill:none;stroke:#F15A60;stroke-width:0.5" />
<path d="M431.3,101.71A2.5,2.5 0 1 1 426.3,101.71A2.5,2.5 0 1 1 431.3,101.71Z" style="fill:none;stroke:#F15A60;stroke-width:0.5" />
<path d="M476.51,133.78A2.5,2.5 0 1 1 471.51,133.78A2.5,2.5 0 1 1 476.51,133.78Z" style="fill:none;stroke:#F15A60;stroke-width:0.5" />
<path d="M521.72,182.7A2.5,2.5 0 1 1 516.72,182.7A2.5,2.5 0 1 1 521.72,182.7Z" style="fill:none;stroke:#F15A60;stroke-width:0.5" />
<path d="M566.93,347.88A2.5,2.5 0 1 1 561.93,347.88A2.5,2.5 0 1 1 566.93,347.88Z" style="fill:none;stroke:#F15A60;stroke-width:0.5" />
<path d="M67.135,42.709L112.34,42.709L157.55,42.709L202.76,42.709L247.97,42.709L293.18,42.709L338.39,44.765L383.59,50.829L428.8,46.307L474.01,43.12L519.22,44.559L564.43,42.709" style="fill:none;stroke:#7AC36A;stroke-dasharray:6,2" />
<path d="M65.001,40.575L69.269,40.575L69.269,44.843L65.001,44.843Z" style="fill:none;stroke:#7AC36A;stroke-width:0.5" />
<path d="M110.21,40.575L114.48,40.575L114.48,44.843L110.21,44.843Z" style="fill:none;stroke:#7AC36A;stroke-width:0.5" />
<path d="M155.42,40.575L159.69,40.575L159.69,44.843L155.42,44.843Z" style="fill:none;stroke:#7AC36A;stroke-width:0.5" />
<path d="M200.63,40.575L204.89,40.575L204.89,44.843L200.63,44.843Z" style="fill:none;stroke:#7AC36A;stroke-width:0.5" />
<path d="M245.84,40.575L250.1,40.575L250.1,44.843L245.84,44.843Z" style="fill:none;stroke:#7AC36A;stroke-width:0.5" />
<path d="M291.04,40.575L295.31,40.575L295.31,44.843L291.04,44.843Z" style="fill:none;stroke:#7AC36A;stroke-width:0.5" />
<path d="M336.25,42.631L340.52,42.631L340.52,46.899L336.25,46.899Z" style="fill:none;stroke:#7AC36A;stroke-width:0.5" />
<path d="M381.46,48.695L385.73,48.695L385.73,52.963L381.46,52.963Z" style="fill:none;stroke:#7AC36A;stroke-width:0.5" />
<path d="M426.67,44.173L430.94,44.173L430.94,48.44L426.67,48.44Z" style="fill:none;stroke:#7AC36A;stroke-width:0.5" />
<path d="M471.88,40.986L476.15,40.986L476.15,45.254L471.88,45.254Z" style="fill:none;stroke:#7AC36A;stroke-width:0.5" />
<path d="M517.09,42.425L521.35,42.425L521.35,46.693L517.09,46.693Z" style="fill:none;stroke:#7AC36A;stroke-width:0.5" />
<path d="M562.3,40.575L566.56,40.575L566.56,44.843L562.3,44.843Z" style="fill:none;stroke:#7AC36A;stroke-width:0.5" />
<path d="M67.135,42.709L112.34,42.709L157.55,42.709L202.76,42.709L247.97,42.709L293.18,42.812L338.39,46.615L383.59,56.174L428.8,54.632L474.01,50.932L519.22,59.566L564.43,49.39" style="fill:none;stroke:#5A9BD4;stroke-dasharray:2,2" />
<path d="M67.135,45.834L64.428,41.146L69.841,41.146Z" style="fill:none;stroke:#5A9BD4;stroke-width:0.5" />
<path d="M112.34,45.834L109.64,41.146L115.05,41.146Z" style="fill:none;stroke:#5A9BD4;stroke-width:0.5" />
<path d="M157.55,45.834L154.85,41.146L160.26,41.146Z" style="fill:none;stroke:#5A9BD4;stroke-width:0.5" />
<path d="M202.76,45.834L200.05,41.146L205.47,41.146Z" style="fill:none;stroke:#5A9BD4;stroke-width:0.5" />
<path d="M247.97,45.834L245.26,41.146L250.68,41.146Z" style="fill:none;stroke:#5A9BD4;stroke-width:0.5" />
<path d="M293.18,45.937L290.47,41.249L295.88,41.249Z" style="fill:none;stroke:#5A9BD4;stroke-width:0.5" />
<path d="M338.39,49.74L335.68,45.052L341.09,45.052Z" style="fill:none;stroke:#5A9BD4;stroke-width:0.5" />
<path d="M383.59,59.299L380.89,54.611L386.3,54.611Z" style="fill:none;stroke:#5A9BD4;stroke-width:0.5" />
<path d="M428.8,57.757L426.1,53.07L431.51,53.07Z" style="fill:none;stroke:#5A9BD4;stroke-width:0.5" />
<path d="M474.01,54.057L471.31,49.369L476.72,49.369Z" style="fill:none;stroke:#5A9BD4;stroke-width:0.5" />
<path d="M519.22,62.691L516.51,58.003L521.93,58.003Z" style="fill:none;stroke:#5A9BD4;stroke-width:0.5" />
<path d="M564.43,52.515L561.72,47.828L567.14,47.828Z" style="fill:none;stroke:#5A9BD4;stroke-width:0.5" />
<path d="M67.135,42.709L112.34,42.709L157.55,42.709L202.76,42.709L247.97,42.709L293.18,42.709L338.39,42.709L383.59,42.709L428.8,43.017L474.01,43.223L519.22,51.754L564.43,43.942" style="fill:none;stroke:#FAA75B;stroke-dasharray:1,1" />
<path d="M65.367,40.941L68.903,44.477" style="fill:none;stroke:#FAA75B;stroke-width:0.5" />
<path d="M65.367,44.477L68.903,40.941" style="fill:none;stroke:#FAA75B;stroke-width:0.5" />
<path d="M110.58,40.941L114.11,44.477" style="fill:none;stroke:#FAA75B;stroke-width:0.5" />
<path d="M110.58,44.477L114.11,40.941" style="fill:none;stroke:#FAA75B;stroke-width:0.5" />
<path d="M155.78,40.941L159.32,44.477" style="fill:none;stroke:#FAA75B;stroke-width:0.5" />
<path d="M155.78,44.477L159.32,40.941" style="fill:none;stroke:#FAA75B;stroke-width:0.5" />
<path d="M200.99,40.941L204.53,44.477" style="fill:none;stroke:#FAA75B;stroke-width:0.5" />
<path d="M200.99,44.477L204.53,40.941" style="fill:none;stroke:#FAA75B;stroke-width:0.5" />
<path d="M246.2,40.941L249.74,44.477" style="fill:none;stroke:#FAA75B;stroke-width:0.5" />
<path d="M246.2,44.477L249.74,40.941" style="fill:none;stroke:#FAA75B;stroke-width:0.5" />
<path d="M291.41,40.941L294.95,44.477" style="fill:none;stroke:#FAA75B;stroke-width:0.5" />
<path d="M291.41,44.477L294.95,40.941" style="fill:none;stroke:#FAA75B;stroke-width:0.5" />
<path d="M336.62,40.941L340.15,44.477" style="fill:none;stroke:#FAA75B;stroke-width:0.5" />
<path d="M336.62,44.477L340.15,40.941" style="fill:none;stroke:#FAA75B;stroke-width:0.5" />
<path d="M381.83,40.941L385.36,44.477" style="fill:none;stroke:#FAA75B;stroke-width:0.5" />
<path d="M381.83,44.477L385.36,40.941" style="fill:none;stroke:#FAA75B;stroke-width:0.5" />
<path d="M427.04,41.25L430.57,44.785" style="fill:none;stroke:#FAA75B;stroke-width:0.5" />
<path d="M427.04,44.785L430.57,41.25" style="fill:none;stroke:#FAA75B;stroke-width:0.5" />
<path d="M472.24,41.455L475.78,44.991" style="fill:none;stroke:#FAA75B;stroke-width:0.5" />
<path d="M472.24,44.991L475.78,41.455" style="fill:none;stroke:#FAA75B;stroke-width:0.5" />
<path d="M517.45,49.986L520.99,53.522" style="fill:none;stroke:#FAA75B;stroke-width:0.5" />
<path d="M517.45,53.522L520.99,49.986" style="fill:none;stroke:#FAA75B;stroke-width:0.5" />
<path d="M562.66,42.175L566.2,45.71" style="fill:none;stroke:#FAA75B;stroke-width:0.5" />
<path d="M562.66,45.71L566.2,42.175" style="fill:none;stroke:#FAA75B;stroke-width:0.5" />
<path d="M546.93,75.852L566.93,75.852" style="fill:none;stroke:#F15A60" />
<path d="M559.43,75.852A2.5,2.5 0 1 1 554.43,75.852A2.5,2.5 0 1 1 559.43,75.852Z" style="fill:none;stroke:#F15A60;stroke-width:0.5" />
<text x="502.6" y="-73.364" transform="scale(1, -1)"
	style="font-family:Liberation Serif;font-variant:normal;font-weight:normal;font-style:normal;font-size:12px">commits</text>
<path d="M546.93,65.668L566.93,65.668" style="fill:none;stroke:#7AC36A;stroke-dasharray:6,2" />
<path d="M554.8,63.534L559.06,63.534L559.06,67.802L554.8,67.802Z" style="fill:none;stroke:#7AC36A;stroke-width:0.5" />
<text x="515.26" y="-63.181" transform="scale(1, -1)"
	style="font-family:Liberation Serif;font-variant:normal;font-weight:normal;font-style:normal;font-size:12px">issues</text>
<path d="M546.93,55.484L566.93,55.484" style="fill:none;stroke:#5A9BD4;stroke-dasharray:2,2" />
<path d="M556.93,58.609L554.22,53.922L559.64,53.922Z" style="fill:none;stroke:#5A9BD4;stroke-width:0.5" />
<text x="524.58" y="-52.997" transform="scale(1, -1)"
	style="font-family:Liberation Serif;font-variant:normal;font-weight:normal;font-style:normal;font-size:12px">PRs</text>
<path d="M546.93,45.301L566.93,45.301" style="fill:none;stroke:#FAA75B;stroke-dasharray:1,1" />
<path d="M555.16,43.533L558.7,47.069" style="fill:none;stroke:#FAA75B;stroke-width:0.5" />
<path d="M555.16,47.069L558.7,43.533" style="fill:none;stroke:#FAA75B;stroke-width:0.5" />
<text x="506.61" y="-42.813" transform="scale(1, -1)"
	style="font-family:Liberation Serif;font-variant:normal;font-weight:normal;font-style:normal;font-size:12px">reviews</text>
</g>
</svg>
