<?xml version="1.0"?>
<!-- Generated by SVGo and Plotinum VG -->
<svg width="566.93pt" height="350.38pt" viewBox="0 0 566.93 350.38"
	xmlns="http://www.w3.org/2000/svg"
	xmlns:xlink="http://www.w3.org/1999/xlink">
<g transform="scale(1, -1) translate(0, -350.38)">
<path d="M0,0L566.93,0L566.93,350.38L0,350.38Z" style="fill:#FFFFFF" />
<text x="298.48" y="-3.9023" transform="scale(1, -1)"
	style="font-family:Liberation Serif;font-variant:normal;font-weight:normal;font-style:normal;font-size:12px">Year</text>
<text x="95.614" y="-16.541" transform="scale(1, -1)"
	style="font-family:Liberation Serif;font-variant:normal;font-weight:normal;font-style:normal;font-size:10px">2014</text>
<text x="299.53" y="-16.541" transform="scale(1, -1)"
	style="font-family:Liberation Serif;font-variant:normal;font-weight:normal;font-style:normal;font-size:10px">2018</text>
<text x="503.45" y="-16.541" transform="scale(1, -1)"
	style="font-family:Liberation Serif;font-variant:normal;font-weight:normal;font-style:normal;font-size:10px">2022</text>
<path d="M105.61,24.363L105.61,32.363" style="fill:none;stroke:#000000;stroke-width:0.5" />
<path d="M309.53,24.363L309.53,32.363" style="fill:none;stroke:#000000;stroke-width:0.5" />
<path d="M513.45,24.363L513.45,32.363" style="fill:none;stroke:#000000;stroke-width:0.5" />
<path d="M156.59,28.363L156.59,32.363" style="fill:none;stroke:#000000;stroke-width:0.5" />
<path d="M207.57,28.363L207.57,32.363" style="fill:none;stroke:#000000;stroke-width:0.5" />
<path d="M258.55,28.363L258.55,32.363" style="fill:none;stroke:#000000;stroke-width:0.5" />
<path d="M360.51,28.363L360.51,32.363" style="fill:none;stroke:#000000;stroke-width:0.5" />
<path d="M411.49,28.363L411.49,32.363" style="fill:none;stroke:#000000;stroke-width:0.5" />
<path d="M462.47,28.363L462.47,32.363" style="fill:none;stroke:#000000;stroke-width:0.5" />
<path d="M564.43,28.363L564.43,32.363" style="fill:none;stroke:#000000;stroke-width:0.5" />
<path d="M54.635,32.363L564.43,32.363" style="fill:none;stroke:#000000;stroke-width:0.5" />
<g transform="rotate(90)">
<text x="149.8" y="9.3867" transform="scale(1, -1)"
	style="font-family:Liberation Serif;font-variant:normal;font-weight:normal;font-style:normal;font-size:12px">Contribution count</text>
</g>
<text x="30.885" y="-40.424" transform="scale(1, -1)"
	style="font-family:Liberation Serif;font-variant:normal;font-weight:normal;font-style:normal;font-size:10px">0</text>
<text x="20.885" y="-130.71" transform="scale(1, -1)"
	style="font-family:Liberation Serif;font-variant:normal;font-weight:normal;font-style:normal;font-size:10px">400</text>
<text x="20.885" y="-221" transform="scale(1, -1)"
	style="font-family:Liberation Serif;font-variant:normal;font-weight:normal;font-style:normal;font-size:10px">800</text>
<text x="15.885" y="-311.29" transform="scale(1, -1)"
	style="font-family:Liberation Serif;font-variant:normal;font-weight:normal;font-style:normal;font-size:10px">1200</text>
<path d="M38.385,42.709L46.385,42.709" style="fill:none;stroke:#000000;stroke-width:0.5" />
<path d="M38.385,133L46.385,133" style="fill:none;stroke:#000000;stroke-width:0.5" />
<path d="M38.385,223.28L46.385,223.28" style="fill:none;stroke:#000000;stroke-width:0.5" />
<path d="M38.385,313.57L46.385,313.57" style="fill:none;stroke:#000000;stroke-width:0.5" />
<path d="M42.385,65.281L46.385,65.281" style="fill:none;stroke:#000000;stroke-width:0.5" />
<path d="M42.385,87.853L46.385,87.853" style="fill:none;stroke:#000000;stroke-width:0.5" />
<path d="M42.385,110.42L46.385,110.42" style="fill:none;stroke:#000000;stroke-width:0.5" />
<path d="M42.385,155.57L46.385,155.57" style="fill:none;stroke:#000000;stroke-width:0.5" />
<path d="M42.385,178.14L46.385,178.14" style="fill:none;stroke:#000000;stroke-width:0.5" />
<path d="M42.385,200.71L46.385,200.71" style="fill:none;stroke:#000000;stroke-width:0.5" />
<path d="M42.385,245.86L46.385,245.86" style="fill:none;stroke:#000000;stroke-width:0.5" />
<path d="M42.385,268.43L46.385,268.43" style="fill:none;stroke:#000000;stroke-width:0.5" />
<path d="M42.385,291L46.385,291" style="fill:none;stroke:#000000;stroke-width:0.5" />
<path d="M42.385,336.14L46.385,336.14" style="fill:none;stroke:#000000;stroke-width:0.5" />
<path d="M46.385,42.709L46.385,347.88" style="fill:none;stroke:#000000;stroke-width:0.5" />
<path d="M54.635,42.709L105.61,42.709L156.59,42.709L207.57,46.095L258.55,51.738L309.53,46.772L360.51,51.061L411.49,139.32L462.47,172.27L513.45,242.7L564.43,347.88" style="fill:none;stroke:#F15A60" />
<path d="M57.135,42.709A2.5,2.5 0 1 1 52.135,42.709A2.5,2.5 0 1 1 57.135,42.709Z" style="fill:none;stroke:#F15A60;stroke-width:0.5" />
<path d="M108.11,42.709A2.5,2.5 0 1 1 103.11,42.709A2.5,2.5 0 1 1 108.11,42.709Z" style="fill:none;stroke:#F15A60;stroke-width:0.5" />
<path d="M159.09,42.709A2.5,2.5 0 1 1 154.09,42.709A2.5,2.5 0 1 1 159.09,42.709Z" style="fill:none;stroke:#F15A60;stroke-width:0.5" />
<path d="M210.07,46.095A2.5,2.5 0 1 1 205.07,46.095A2.5,2.5 0 1 1 210.07,46.095Z" style="fill:none;stroke:#F15A60;stroke-width:0.5" />
<path d="M261.05,51.738A2.5,2.5 0 1 1 256.05,51.738A2.5,2.5 0 1 1 261.05,51.738Z" style="fill:none;stroke:#F15A60;stroke-width:0.5" />
<path d="M312.03,46.772A2.5,2.5 0 1 1 307.03,46.772A2.5,2.5 0 1 1 312.03,46.772Z" style="fill:none;stroke:#F15A60;stroke-width:0.5" />
<path d="M363.01,51.061A2.5,2.5 0 1 1 358.01,51.061A2.5,2.5 0 1 1 363.01,51.061Z" style="fill:none;stroke:#F15A60;stroke-width:0.5" />
<path d="M413.99,139.32A2.5,2.5 0 1 1 408.99,139.32A2.5,2.5 0 1 1 413.99,139.32Z" style="fill:none;stroke:#F15A60;stroke-width:0.5" />
<path d="M464.97,172.27A2.5,2.5 0 1 1 459.97,172.27A2.5,2.5 0 1 1 464.97,172.27Z" style="fill:none;stroke:#F15A60;stroke-width:0.5" />
<path d="M515.95,242.7A2.5,2.5 0 1 1 510.95,242.7A2.5,2.5 0 1 1 515.95,242.7Z" style="fill:none;stroke:#F15A60;stroke-width:0.5" />
<path d="M566.93,347.88A2.5,2.5 0 1 1 561.93,347.88A2.5,2.5 0 1 1 566.93,347.88Z" style="fill:none;stroke:#F15A60;stroke-width:0.5" />
<path d="M54.635,42.709L105.61,42.709L156.59,42.709L207.57,42.709L258.55,42.709L309.53,42.709L360.51,47.223L411.49,60.541L462.47,50.609L513.45,43.612L564.43,48.803" style="fill:none;stroke:#7AC36A;stroke-dasharray:6,2" />
<path d="M52.501,40.575L56.769,40.575L56.769,44.843L52.501,44.843Z" style="fill:none;stroke:#7AC36A;stroke-width:0.5" />
<path d="M103.48,40.575L107.75,40.575L107.75,44.843L103.48,44.843Z" style="fill:none;stroke:#7AC36A;stroke-width:0.5" />
<path d="M154.46,40.575L158.73,40.575L158.73,44.843L154.46,44.843Z" style="fill:none;stroke:#7AC36A;stroke-width:0.5" />
<path d="M205.44,40.575L209.71,40.575L209.71,44.843L205.44,44.843Z" style="fill:none;stroke:#7AC36A;stroke-width:0.5" />
<path d="M256.42,40.575L260.69,40.575L260.69,44.843L256.42,44.843Z" style="fill:none;stroke:#7AC36A;stroke-width:0.5" />
<path d="M307.4,40.575L311.67,40.575L311.67,44.843L307.4,44.843Z" style="fill:none;stroke:#7AC36A;stroke-width:0.5" />
<path d="M358.38,45.089L362.65,45.089L362.65,49.357L358.38,49.357Z" style="fill:none;stroke:#7AC36A;stroke-width:0.5" />
<path d="M409.36,58.407L413.62,58.407L413.62,62.675L409.36,62.675Z" style="fill:none;stroke:#7AC36A;stroke-width:0.5" />
<path d="M460.34,48.475L464.6,48.475L464.6,52.743L460.34,52.743Z" style="fill:none;stroke:#7AC36A;stroke-width:0.5" />
<path d="M511.32,41.478L515.58,41.478L515.58,45.746L511.32,45.746Z" style="fill:none;stroke:#7AC36A;stroke-width:0.5" />
<path d="M562.3,46.67L566.56,46.67L566.56,50.937L562.3,50.937Z" style="fill:none;stroke:#7AC36A;stroke-width:0.5" />
<path d="M54.635,42.709L105.61,42.709L156.59,42.709L207.57,42.709L258.55,42.709L309.53,42.935L360.51,51.286L411.49,72.278L462.47,68.892L513.45,60.767L564.43,105.46" style="fill:none;stroke:#5A9BD4;stroke-dasharray:2,2" />
<path d="M54.635,45.834L51.928,41.146L57.341,41.146Z" style="fill:none;stroke:#5A9BD4;stroke-width:0.5" />
<path d="M105.61,45.834L102.91,41.146L108.32,41.146Z" style="fill:none;stroke:#5A9BD4;stroke-width:0.5" />
<path d="M156.59,45.834L153.89,41.146L159.3,41.146Z" style="fill:none;stroke:#5A9BD4;stroke-width:0.5" />
<path d="M207.57,45.834L204.87,41.146L210.28,41.146Z" style="fill:none;stroke:#5A9BD4;stroke-width:0.5" />
<path d="M258.55,45.834L255.85,41.146L261.26,41.146Z" style="fill:none;stroke:#5A9BD4;stroke-width:0.5" />
<path d="M309.53,46.06L306.83,41.372L312.24,41.372Z" style="fill:none;stroke:#5A9BD4;stroke-width:0.5" />
<path d="M360.51,54.411L357.81,49.724L363.22,49.724Z" style="fill:none;stroke:#5A9BD4;stroke-width:0.5" />
<path d="M411.49,75.403L408.78,70.716L414.2,70.716Z" style="fill:none;stroke:#5A9BD4;stroke-width:0.5" />
<path d="M462.47,72.017L459.76,67.33L465.18,67.33Z" style="fill:none;stroke:#5A9BD4;stroke-width:0.5" />
<path d="M513.45,63.892L510.74,59.204L516.16,59.204Z" style="fill:none;stroke:#5A9BD4;stroke-width:0.5" />
<path d="M564.43,108.58L561.72,103.9L567.14,103.9Z" style="fill:none;stroke:#5A9BD4;stroke-width:0.5" />
<path d="M54.635,42.709L105.61,42.709L156.59,42.709L207.57,42.709L258.55,42.709L309.53,42.709L360.51,42.709L411.49,42.709L462.47,43.386L513.45,43.838L564.43,73.181" style="fill:none;stroke:#FAA75B;stroke-dasharray:1,1" />
<path d="M52.867,40.941L56.403,44.477" style="fill:none;stroke:#FAA75B;stroke-width:0.5" />
<path d="M52.867,44.477L56.403,40.941" style="fill:none;stroke:#FAA75B;stroke-width:0.5" />
<path d="M103.85,40.941L107.38,44.477" style="fill:none;stroke:#FAA75B;stroke-width:0.5" />
<path d="M103.85,44.477L107.38,40.941" style="fill:none;stroke:#FAA75B;stroke-width:0.5" />
<path d="M154.83,40.941L158.36,44.477" style="fill:none;stroke:#FAA75B;stroke-width:0.5" />
<path d="M154.83,44.477L158.36,40.941" style="fill:none;stroke:#FAA75B;stroke-width:0.5" />
<path d="M205.81,40.941L209.34,44.477" style="fill:none;stroke:#FAA75B;stroke-width:0.5" />
<path d="M205.81,44.477L209.34,40.941" style="fill:none;stroke:#FAA75B;stroke-width:0.5" />
<path d="M256.78,40.941L260.32,44.477" style="fill:none;stroke:#FAA75B;stroke-width:0.5" />
<path d="M256.78,44.477L260.32,40.941" style="fill:none;stroke:#FAA75B;stroke-width:0.5" />
<path d="M307.76,40.941L311.3,44.477" style="fill:none;stroke:#FAA75B;stroke-width:0.5" />
<path d="M307.76,44.477L311.3,40.941" style="fill:none;stroke:#FAA75B;stroke-width:0.5" />
<path d="M358.74,40.941L362.28,44.477" style="fill:none;stroke:#FAA75B;stroke-width:0.5" />
<path d="M358.74,44.477L362.28,40.941" style="fill:none;stroke:#FAA75B;stroke-width:0.5" />
<path d="M409.72,40.941L413.26,44.477" style="fill:none;stroke:#FAA75B;stroke-width:0.5" />
<path d="M409.72,44.477L413.26,40.941" style="fill:none;stroke:#FAA75B;stroke-width:0.5" />
<path d="M460.7,41.618L464.24,45.154" style="fill:none;stroke:#FAA75B;stroke-width:0.5" />
<path d="M460.7,45.154L464.24,41.618" style="fill:none;stroke:#FAA75B;stroke-width:0.5" />
<path d="M511.68,42.07L515.22,45.605" style="fill:none;stroke:#FAA75B;stroke-width:0.5" />
<path d="M511.68,45.605L515.22,42.07" style="fill:none;stroke:#FAA75B;stroke-width:0.5" />
<path d="M562.66,71.413L566.2,74.949" style="fill:none;stroke:#FAA75B;stroke-width:0.5" />
<path d="M562.66,74.949L566.2,71.413" style="fill:none;stroke:#FAA75B;stroke-width:0.5" />
<path d="M546.93,75.852L566.93,75.852" style="fill:none;stroke:#F15A60" />
<path d="M559.43,75.852A2.5,2.5 0 1 1 554.43,75.852A2.5,2.5 0 1 1 559.43,75.852Z" style="fill:none;stroke:#F15A60;stroke-width:0.5" />
<text x="502.6" y="-73.364" transform="scale(1, -1)"
	style="font-family:Liberation Serif;font-variant:normal;font-weight:normal;font-style:normal;font-size:12px">commits</text>
<path d="M546.93,65.668L566.93,65.668" style="fill:none;stroke:#7AC36A;stroke-dasharray:6,2" />
<path d="M554.8,63.534L559.06,63.534L559.06,67.802L554.8,67.802Z" style="fill:none;stroke:#7AC36A;stroke-width:0.5" />
<text x="515.26" y="-63.181" transform="scale(1, -1)"
	style="font-family:Liberation Serif;font-variant:normal;font-weight:normal;font-style:normal;font-size:12px">issues</text>
<path d="M546.93,55.484L566.93,55.484" style="fill:none;stroke:#5A9BD4;stroke-dasharray:2,2" />
<path d="M556.93,58.609L554.22,53.922L559.64,53.922Z" style="fill:none;stroke:#5A9BD4;stroke-width:0.5" />
<text x="524.58" y="-52.997" transform="scale(1, -1)"
	style="font-family:Liberation Serif;font-variant:normal;font-weight:normal;font-style:normal;font-size:12px">PRs</text>
<path d="M546.93,45.301L566.93,45.301" style="fill:none;stroke:#FAA75B;stroke-dasharray:1,1" />
<path d="M555.16,43.533L558.7,47.069" style="fill:none;stroke:#FAA75B;stroke-width:0.5" />
<path d="M555.16,47.069L558.7,43.533" style="fill:none;stroke:#FAA75B;stroke-width:0.5" />
<text x="506.61" y="-42.813" transform="scale(1, -1)"
	style="font-family:Liberation Serif;font-variant:normal;font-weight:normal;font-style:normal;font-size:12px">reviews</text>
</g>
</svg>
