<?xml version="1.0"?>
<!-- Generated by SVGo and Plotinum VG -->
<svg width="566.93pt" height="350.38pt" viewBox="0 0 566.93 350.38"
	xmlns="http://www.w3.org/2000/svg"
	xmlns:xlink="http://www.w3.org/1999/xlink">
<g transform="scale(1, -1) translate(0, -350.38)">
<path d="M0,0L566.93,0L566.93,350.38L0,350.38Z" style="fill:#FFFFFF" />
<text x="298.48" y="-3.9023" transform="scale(1, -1)"
	style="font-family:Liberation Serif;font-variant:normal;font-weight:normal;font-style:normal;font-size:12px">Year</text>
<text x="95.614" y="-16.541" transform="scale(1, -1)"
	style="font-family:Liberation Serif;font-variant:normal;font-weight:normal;font-style:normal;font-size:10px">2014</text>
<text x="299.53" y="-16.541" transform="scale(1, -1)"
	style="font-family:Liberation Serif;font-variant:normal;font-weight:normal;font-style:normal;font-size:10px">2018</text>
<text x="503.45" y="-16.541" transform="scale(1, -1)"
	style="font-family:Liberation Serif;font-variant:normal;font-weight:normal;font-style:normal;font-size:10px">2022</text>
<path d="M105.61,24.363L105.61,32.363" style="fill:none;stroke:#000000;stroke-width:0.5" />
<path d="M309.53,24.363L309.53,32.363" style="fill:none;stroke:#000000;stroke-width:0.5" />
<path d="M513.45,24.363L513.45,32.363" style="fill:none;stroke:#000000;stroke-width:0.5" />
<path d="M156.59,28.363L156.59,32.363" style="fill:none;stroke:#000000;stroke-width:0.5" />
<path d="M207.57,28.363L207.57,32.363" style="fill:none;stroke:#000000;stroke-width:0.5" />
<path d="M258.55,28.363L258.55,32.363" style="fill:none;stroke:#000000;stroke-width:0.5" />
<path d="M360.51,28.363L360.51,32.363" style="fill:none;stroke:#000000;stroke-width:0.5" />
<path d="M411.49,28.363L411.49,32.363" style="fill:none;stroke:#000000;stroke-width:0.5" />
<path d="M462.47,28.363L462.47,32.363" style="fill:none;stroke:#000000;stroke-width:0.5" />
<path d="M564.43,28.363L564.43,32.363" style="fill:none;stroke:#000000;stroke-width:0.5" />
<path d="M54.635,32.363L564.43,32.363" style="fill:none;stroke:#000000;stroke-width:0.5" />
<g transform="rotate(90)">
<text x="149.8" y="9.3867" transform="scale(1, -1)"
	style="font-family:Liberation Serif;font-variant:normal;font-weight:normal;font-style:normal;font-size:12px">Contribution count</text>
</g>
<text x="30.885" y="-40.424" transform="scale(1, -1)"
	style="font-family:Liberation Serif;font-variant:normal;font-weight:normal;font-style:normal;font-size:10px">0</text>
<text x="20.885" y="-135.72" transform="scale(1, -1)"
	style="font-family:Liberation Serif;font-variant:normal;font-weight:normal;font-style:normal;font-size:10px">400</text>
<text x="20.885" y="-231.01" transform="scale(1, -1)"
	style="font-family:Liberation Serif;font-variant:normal;font-weight:normal;font-style:normal;font-size:10px">800</text>
<text x="15.885" y="-326.3" transform="scale(1, -1)"
	style="font-family:Liberation Serif;font-variant:normal;font-weight:normal;font-style:normal;font-size:10px">1200</text>
<path d="M38.385,42.709L46.385,42.709" style="fill:none;stroke:#000000;stroke-width:0.5" />
<path d="M38.385,138L46.385,138" style="fill:none;stroke:#000000;stroke-width:0.5" />
<path d="M38.385,233.29L46.385,233.29" style="fill:none;stroke:#000000;stroke-width:0.5" />
<path d="M38.385,328.58L46.385,328.58" style="fill:none;stroke:#000000;stroke-width:0.5" />
<path d="M42.385,66.532L46.385,66.532" style="fill:none;stroke:#000000;stroke-width:0.5" />
<path d="M42.385,90.355L46.385,90.355" style="fill:none;stroke:#000000;stroke-width:0.5" />
<path d="M42.385,114.18L46.385,114.18" style="fill:none;stroke:#000000;stroke-width:0.5" />
<path d="M42.385,161.82L46.385,161.82" style="fill:none;stroke:#000000;stroke-width:0.5" />
<path d="M42.385,185.65L46.385,185.65" style="fill:none;stroke:#000000;stroke-width:0.5" />
<path d="M42.385,209.47L46.385,209.47" style="fill:none;stroke:#000000;stroke-width:0.5" />
<path d="M42.385,257.12L46.385,257.12" style="fill:none;stroke:#000000;stroke-width:0.5" />
<path d="M42.385,280.94L46.385,280.94" style="fill:none;stroke:#000000;stroke-width:0.5" />
<path d="M42.385,304.76L46.385,304.76" style="fill:none;stroke:#000000;stroke-width:0.5" />
<path d="M46.385,42.709L46.385,347.88" style="fill:none;stroke:#000000;stroke-width:0.5" />
<path d="M54.635,42.709L105.61,42.709L156.59,42.709L207.57,46.282L258.55,52.238L309.53,46.997L360.51,51.523L411.49,144.67L462.47,179.45L513.45,253.78L564.43,347.88" style="fill:none;stroke:#F15A60" />
<path d="M57.135,42.709A2.5,2.5 0 1 1 52.135,42.709A2.5,2.5 0 1 1 57.135,42.709Z" style="fill:none;stroke:#F15A60;stroke-width:0.5" />
<path d="M108.11,42.709A2.5,2.5 0 1 1 103.11,42.709A2.5,2.5 0 1 1 108.11,42.709Z" style="fill:none;stroke:#F15A60;stroke-width:0.5" />
<path d="M159.09,42.709A2.5,2.5 0 1 1 154.09,42.709A2.5,2.5 0 1 1 159.09,42.709Z" style="fill:none;stroke:#F15A60;stroke-width:0.5" />
<path d="M210.07,46.282A2.5,2.5 0 1 1 205.07,46.282A2.5,2.5 0 1 1 210.07,46.282Z" style="fill:none;stroke:#F15A60;stroke-width:0.5" />
<path d="M261.05,52.238A2.5,2.5 0 1 1 256.05,52.238A2.5,2.5 0 1 1 261.05,52.238Z" style="fill:none;stroke:#F15A60;stroke-width:0.5" />
<path d="M312.03,46.997A2.5,2.5 0 1 1 307.03,46.997A2.5,2.5 0 1 1 312.03,46.997Z" style="fill:none;stroke:#F15A60;stroke-width:0.5" />
<path d="M363.01,51.523A2.5,2.5 0 1 1 358.01,51.523A2.5,2.5 0 1 1 363.01,51.523Z" style="fill:none;stroke:#F15A60;stroke-width:0.5" />
<path d="M413.99,144.67A2.5,2.5 0 1 1 408.99,144.67A2.5,2.5 0 1 1 413.99,144.67Z" style="fill:none;stroke:#F15A60;stroke-width:0.5" />
<path d="M464.97,179.45A2.5,2.5 0 1 1 459.97,179.45A2.5,2.5 0 1 1 464.97,179.45Z" style="fill:none;stroke:#F15A60;stroke-width:0.5" />
<path d="M515.95,253.78A2.5,2.5 0 1 1 510.95,253.78A2.5,2.5 0 1 1 515.95,253.78Z" style="fill:none;stroke:#F15A60;stroke-width:0.5" />
<path d="M566.93,347.88A2.5,2.5 0 1 1 561.93,347.88A2.5,2.5 0 1 1 566.93,347.88Z" style="fill:none;stroke:#F15A60;stroke-width:0.5" />
<path d="M54.635,42.709L105.61,42.709L156.59,42.709L207.57,42.709L258.55,42.709L309.53,42.709L360.51,47.474L411.49,61.529L462.47,51.047L513.45,43.662L564.43,48.903" style="fill:none;stroke:#7AC36A;stroke-dasharray:6,2" />
<path d="M52.501,40.575L56.769,40.575L56.769,44.843L52.501,44.843Z" style="fill:none;stroke:#7AC36A;stroke-width:0.5" />
<path d="M103.48,40.575L107.75,40.575L107.75,44.843L103.48,44.843Z" style="fill:none;stroke:#7AC36A;stroke-width:0.5" />
<path d="M154.46,40.575L158.73,40.575L158.73,44.843L154.46,44.843Z" style="fill:none;stroke:#7AC36A;stroke-width:0.5" />
<path d="M205.44,40.575L209.71,40.575L209.71,44.843L205.44,44.843Z" style="fill:none;stroke:#7AC36A;stroke-width:0.5" />
<path d="M256.42,40.575L260.69,40.575L260.69,44.843L256.42,44.843Z" style="fill:none;stroke:#7AC36A;stroke-width:0.5" />
<path d="M307.4,40.575L311.67,40.575L311.67,44.843L307.4,44.843Z" style="fill:none;stroke:#7AC36A;stroke-width:0.5" />
<path d="M358.38,45.34L362.65,45.34L362.65,49.607L358.38,49.607Z" style="fill:none;stroke:#7AC36A;stroke-width:0.5" />
<path d="M409.36,59.395L413.62,59.395L413.62,63.663L409.36,63.663Z" style="fill:none;stroke:#7AC36A;stroke-width:0.5" />
<path d="M460.34,48.913L464.6,48.913L464.6,53.181L460.34,53.181Z" style="fill:none;stroke:#7AC36A;stroke-width:0.5" />
<path d="M511.32,41.528L515.58,41.528L515.58,45.796L511.32,45.796Z" style="fill:none;stroke:#7AC36A;stroke-width:0.5" />
<path d="M562.3,46.769L566.56,46.769L566.56,51.037L562.3,51.037Z" style="fill:none;stroke:#7AC36A;stroke-width:0.5" />
<path d="M54.635,42.709L105.61,42.709L156.59,42.709L207.57,42.709L258.55,42.709L309.53,42.947L360.51,51.762L411.49,73.917L462.47,70.344L513.45,61.767L564.43,104.41" style="fill:none;stroke:#5A9BD4;stroke-dasharray:2,2" />
<path d="M54.635,45.834L51.928,41.146L57.341,41.146Z" style="fill:none;stroke:#5A9BD4;stroke-width:0.5" />
<path d="M105.61,45.834L102.91,41.146L108.32,41.146Z" style="fill:none;stroke:#5A9BD4;stroke-width:0.5" />
<path d="M156.59,45.834L153.89,41.146L159.3,41.146Z" style="fill:none;stroke:#5A9BD4;stroke-width:0.5" />
<path d="M207.57,45.834L204.87,41.146L210.28,41.146Z" style="fill:none;stroke:#5A9BD4;stroke-width:0.5" />
<path d="M258.55,45.834L255.85,41.146L261.26,41.146Z" style="fill:none;stroke:#5A9BD4;stroke-width:0.5" />
<path d="M309.53,46.072L306.83,41.385L312.24,41.385Z" style="fill:none;stroke:#5A9BD4;stroke-width:0.5" />
<path d="M360.51,54.887L357.81,50.199L363.22,50.199Z" style="fill:none;stroke:#5A9BD4;stroke-width:0.5" />
<path d="M411.49,77.042L408.78,72.355L414.2,72.355Z" style="fill:none;stroke:#5A9BD4;stroke-width:0.5" />
<path d="M462.47,73.469L459.76,68.781L465.18,68.781Z" style="fill:none;stroke:#5A9BD4;stroke-width:0.5" />
<path d="M513.45,64.892L510.74,60.205L516.16,60.205Z" style="fill:none;stroke:#5A9BD4;stroke-width:0.5" />
<path d="M564.43,107.54L561.72,102.85L567.14,102.85Z" style="fill:none;stroke:#5A9BD4;stroke-width:0.5" />
<path d="M54.635,42.709L105.61,42.709L156.59,42.709L207.57,42.709L258.55,42.709L309.53,42.709L360.51,42.709L411.49,42.709L462.47,43.424L513.45,43.9L564.43,73.679" style="fill:none;stroke:#FAA75B;stroke-dasharray:1,1" />
<path d="M52.867,40.941L56.403,44.477" style="fill:none;stroke:#FAA75B;stroke-width:0.5" />
<path d="M52.867,44.477L56.403,40.941" style="fill:none;stroke:#FAA75B;stroke-width:0.5" />
<path d="M103.85,40.941L107.38,44.477" style="fill:none;stroke:#FAA75B;stroke-width:0.5" />
<path d="M103.85,44.477L107.38,40.941" style="fill:none;stroke:#FAA75B;stroke-width:0.5" />
<path d="M154.83,40.941L158.36,44.477" style="fill:none;stroke:#FAA75B;stroke-width:0.5" />
<path d="M154.83,44.477L158.36,40.941" style="fill:none;stroke:#FAA75B;stroke-width:0.5" />
<path d="M205.81,40.941L209.34,44.477" style="fill:none;stroke:#FAA75B;stroke-width:0.5" />
<path d="M205.81,44.477L209.34,40.941" style="fill:none;stroke:#FAA75B;stroke-width:0.5" />
<path d="M256.78,40.941L260.32,44.477" style="fill:none;stroke:#FAA75B;stroke-width:0.5" />
<path d="M256.78,44.477L260.32,40.941" style="fill:none;stroke:#FAA75B;stroke-width:0.5" />
<path d="M307.76,40.941L311.3,44.477" style="fill:none;stroke:#FAA75B;stroke-width:0.5" />
<path d="M307.76,44.477L311.3,40.941" style="fill:none;stroke:#FAA75B;stroke-width:0.5" />
<path d="M358.74,40.941L362.28,44.477" style="fill:none;stroke:#FAA75B;stroke-width:0.5" />
<path d="M358.74,44.477L362.28,40.941" style="fill:none;stroke:#FAA75B;stroke-width:0.5" />
<path d="M409.72,40.941L413.26,44.477" style="fill:none;stroke:#FAA75B;stroke-width:0.5" />
<path d="M409.72,44.477L413.26,40.941" style="fill:none;stroke:#FAA75B;stroke-width:0.5" />
<path d="M460.7,41.656L464.24,45.191" style="fill:none;stroke:#FAA75B;stroke-width:0.5" />
<path d="M460.7,45.191L464.24,41.656" style="fill:none;stroke:#FAA75B;stroke-width:0.5" />
<path d="M511.68,42.132L515.22,45.668" style="fill:none;stroke:#FAA75B;stroke-width:0.5" />
<path d="M511.68,45.668L515.22,42.132" style="fill:none;stroke:#FAA75B;stroke-width:0.5" />
<path d="M562.66,71.911L566.2,75.447" style="fill:none;stroke:#FAA75B;stroke-width:0.5" />
<path d="M562.66,75.447L566.2,71.911" style="fill:none;stroke:#FAA75B;stroke-width:0.5" />
<path d="M546.93,75.852L566.93,75.852" style="fill:none;stroke:#F15A60" />
<path d="M559.43,75.852A2.5,2.5 0 1 1 554.43,75.852A2.5,2.5 0 1 1 559.43,75.852Z" style="fill:none;stroke:#F15A60;stroke-width:0.5" />
<text x="502.6" y="-73.364" transform="scale(1, -1)"
	style="font-family:Liberation Serif;font-variant:normal;font-weight:normal;font-style:normal;font-size:12px">commits</text>
<path d="M546.93,65.668L566.93,65.668" style="fill:none;stroke:#7AC36A;stroke-dasharray:6,2" />
<path d="M554.8,63.534L559.06,63.534L559.06,67.802L554.8,67.802Z" style="fill:none;stroke:#7AC36A;stroke-width:0.5" />
<text x="515.26" y="-63.181" transform="scale(1, -1)"
	style="font-family:Liberation Serif;font-variant:normal;font-weight:normal;font-style:normal;font-size:12px">issues</text>
<path d="M546.93,55.484L566.93,55.484" style="fill:none;stroke:#5A9BD4;stroke-dasharray:2,2" />
<path d="M556.93,58.609L554.22,53.922L559.64,53.922Z" style="fill:none;stroke:#5A9BD4;stroke-width:0.5" />
<text x="524.58" y="-52.997" transform="scale(1, -1)"
	style="font-family:Liberation Serif;font-variant:normal;font-weight:normal;font-style:normal;font-size:12px">PRs</text>
<path d="M546.93,45.301L566.93,45.301" style="fill:none;stroke:#FAA75B;stroke-dasharray:1,1" />
<path d="M555.16,43.533L558.7,47.069" style="fill:none;stroke:#FAA75B;stroke-width:0.5" />
<path d="M555.16,47.069L558.7,43.533" style="fill:none;stroke:#FAA75B;stroke-width:0.5" />
<text x="506.61" y="-42.813" transform="scale(1, -1)"
	style="font-family:Liberation Serif;font-variant:normal;font-weight:normal;font-style:normal;font-size:12px">reviews</text>
</g>
</svg>
