<?xml version="1.0"?>
<!-- Generated by SVGo and Plotinum VG -->
<svg width="566.93pt" height="350.38pt" viewBox="0 0 566.93 350.38"
	xmlns="http://www.w3.org/2000/svg"
	xmlns:xlink="http://www.w3.org/1999/xlink">
<g transform="scale(1, -1) translate(0, -350.38)">
<path d="M0,0L566.93,0L566.93,350.38L0,350.38Z" style="fill:#FFFFFF" />
<text x="292.23" y="-3.9023" transform="scale(1, -1)"
	style="font-family:Liberation Serif;font-variant:normal;font-weight:normal;font-style:normal;font-size:12px">Year</text>
<text x="124.18" y="-16.541" transform="scale(1, -1)"
	style="font-family:Liberation Serif;font-variant:normal;font-weight:normal;font-style:normal;font-size:10px">2015</text>
<text x="335.56" y="-16.541" transform="scale(1, -1)"
	style="font-family:Liberation Serif;font-variant:normal;font-weight:normal;font-style:normal;font-size:10px">2020</text>
<text x="546.93" y="-16.541" transform="scale(1, -1)"
	style="font-family:Liberation Serif;font-variant:normal;font-weight:normal;font-style:normal;font-size:10px">2025</text>
<path d="M134.18,24.363L134.18,32.363" style="fill:none;stroke:#000000;stroke-width:0.5" />
<path d="M345.56,24.363L345.56,32.363" style="fill:none;stroke:#000000;stroke-width:0.5" />
<path d="M556.93,24.363L556.93,32.363" style="fill:none;stroke:#000000;stroke-width:0.5" />
<path d="M91.909,28.363L91.909,32.363" style="fill:none;stroke:#000000;stroke-width:0.5" />
<path d="M176.46,28.363L176.46,32.363" style="fill:none;stroke:#000000;stroke-width:0.5" />
<path d="M218.73,28.363L218.73,32.363" style="fill:none;stroke:#000000;stroke-width:0.5" />
<path d="M261.01,28.363L261.01,32.363" style="fill:none;stroke:#000000;stroke-width:0.5" />
<path d="M303.28,28.363L303.28,32.363" style="fill:none;stroke:#000000;stroke-width:0.5" />
<path d="M387.83,28.363L387.83,32.363" style="fill:none;stroke:#000000;stroke-width:0.5" />
<path d="M430.11,28.363L430.11,32.363" style="fill:none;stroke:#000000;stroke-width:0.5" />
<path d="M472.38,28.363L472.38,32.363" style="fill:none;stroke:#000000;stroke-width:0.5" />
<path d="M514.65,28.363L514.65,32.363" style="fill:none;stroke:#000000;stroke-width:0.5" />
<path d="M49.635,32.363L556.93,32.363" style="fill:none;stroke:#000000;stroke-width:0.5" />
<g transform="rotate(90)">
<text x="160.99" y="9.3867" transform="scale(1, -1)"
	style="font-family:Liberation Serif;font-variant:normal;font-weight:normal;font-style:normal;font-size:12px">Contributions</text>
</g>
<text x="25.885" y="-37.828" transform="scale(1, -1)"
	style="font-family:Liberation Serif;font-variant:normal;font-weight:normal;font-style:normal;font-size:10px">0</text>
<text x="20.885" y="-127.69" transform="scale(1, -1)"
	style="font-family:Liberation Serif;font-variant:normal;font-weight:normal;font-style:normal;font-size:10px">40</text>
<text x="20.885" y="-217.55" transform="scale(1, -1)"
	style="font-family:Liberation Serif;font-variant:normal;font-weight:normal;font-style:normal;font-size:10px">80</text>
<text x="15.885" y="-307.41" transform="scale(1, -1)"
	style="font-family:Liberation Serif;font-variant:normal;font-weight:normal;font-style:normal;font-size:10px">120</text>
<path d="M33.385,40.113L41.385,40.113" style="fill:none;stroke:#000000;stroke-width:0.5" />
<path d="M33.385,129.97L41.385,129.97" style="fill:none;stroke:#000000;stroke-width:0.5" />
<path d="M33.385,219.83L41.385,219.83" style="fill:none;stroke:#000000;stroke-width:0.5" />
<path d="M33.385,309.69L41.385,309.69" style="fill:none;stroke:#000000;stroke-width:0.5" />
<path d="M37.385,62.578L41.385,62.578" style="fill:none;stroke:#000000;stroke-width:0.5" />
<path d="M37.385,85.043L41.385,85.043" style="fill:none;stroke:#000000;stroke-width:0.5" />
<path d="M37.385,107.51L41.385,107.51" style="fill:none;stroke:#000000;stroke-width:0.5" />
<path d="M37.385,152.44L41.385,152.44" style="fill:none;stroke:#000000;stroke-width:0.5" />
<path d="M37.385,174.9L41.385,174.9" style="fill:none;stroke:#000000;stroke-width:0.5" />
<path d="M37.385,197.37L41.385,197.37" style="fill:none;stroke:#000000;stroke-width:0.5" />
<path d="M37.385,242.3L41.385,242.3" style="fill:none;stroke:#000000;stroke-width:0.5" />
<path d="M37.385,264.76L41.385,264.76" style="fill:none;stroke:#000000;stroke-width:0.5" />
<path d="M37.385,287.23L41.385,287.23" style="fill:none;stroke:#000000;stroke-width:0.5" />
<path d="M37.385,332.16L41.385,332.16" style="fill:none;stroke:#000000;stroke-width:0.5" />
<path d="M41.385,40.113L41.385,347.88" style="fill:none;stroke:#000000;stroke-width:0.5" />
<path d="M49.635,40.113L91.909,40.113L134.18,40.113L176.46,40.113L218.73,40.113L261.01,40.113L303.28,85.043L345.56,217.59L387.83,118.74L430.11,49.099L472.38,53.592L514.65,44.606L556.93,197.37" style="fill:none;stroke:#F15A60" />
<path d="M52.135,40.113A2.5,2.5 0 1 1 47.135,40.113A2.5,2.5 0 1 1 52.135,40.113Z" style="fill:none;stroke:#F15A60;stroke-width:0.5" />
<path d="M94.409,40.113A2.5,2.5 0 1 1 89.409,40.113A2.5,2.5 0 1 1 94.409,40.113Z" style="fill:none;stroke:#F15A60;stroke-width:0.5" />
<path d="M136.68,40.113A2.5,2.5 0 1 1 131.68,40.113A2.5,2.5 0 1 1 136.68,40.113Z" style="fill:none;stroke:#F15A60;stroke-width:0.5" />
<path d="M178.96,40.113A2.5,2.5 0 1 1 173.96,40.113A2.5,2.5 0 1 1 178.96,40.113Z" style="fill:none;stroke:#F15A60;stroke-width:0.5" />
<path d="M221.23,40.113A2.5,2.5 0 1 1 216.23,40.113A2.5,2.5 0 1 1 221.23,40.113Z" style="fill:none;stroke:#F15A60;stroke-width:0.5" />
<path d="M263.51,40.113A2.5,2.5 0 1 1 258.51,40.113A2.5,2.5 0 1 1 263.51,40.113Z" style="fill:none;stroke:#F15A60;stroke-width:0.5" />
<path d="M305.78,85.043A2.5,2.5 0 1 1 300.78,85.043A2.5,2.5 0 1 1 305.78,85.043Z" style="fill:none;stroke:#F15A60;stroke-width:0.5" />
<path d="M348.06,217.59A2.5,2.5 0 1 1 343.06,217.59A2.5,2.5 0 1 1 348.06,217.59Z" style="fill:none;stroke:#F15A60;stroke-width:0.5" />
<path d="M390.33,118.74A2.5,2.5 0 1 1 385.33,118.74A2.5,2.5 0 1 1 390.33,118.74Z" style="fill:none;stroke:#F15A60;stroke-width:0.5" />
<path d="M432.61,49.099A2.5,2.5 0 1 1 427.61,49.099A2.5,2.5 0 1 1 432.61,49.099Z" style="fill:none;stroke:#F15A60;stroke-width:0.5" />
<path d="M474.88,53.592A2.5,2.5 0 1 1 469.88,53.592A2.5,2.5 0 1 1 474.88,53.592Z" style="fill:none;stroke:#F15A60;stroke-width:0.5" />
<path d="M517.15,44.606A2.5,2.5 0 1 1 512.15,44.606A2.5,2.5 0 1 1 517.15,44.606Z" style="fill:none;stroke:#F15A60;stroke-width:0.5" />
<path d="M559.43,197.37A2.5,2.5 0 1 1 554.43,197.37A2.5,2.5 0 1 1 559.43,197.37Z" style="fill:none;stroke:#F15A60;stroke-width:0.5" />
<path d="M49.635,40.113L91.909,40.113L134.18,40.113L176.46,40.113L218.73,40.113L261.01,42.36L303.28,125.48L345.56,334.4L387.83,300.71L430.11,219.83L472.38,264.76L514.65,237.8L556.93,347.88" style="fill:none;stroke:#7AC36A;stroke-dasharray:6,2" />
<path d="M47.501,37.979L51.769,37.979L51.769,42.247L47.501,42.247Z" style="fill:none;stroke:#7AC36A;stroke-width:0.5" />
<path d="M89.775,37.979L94.043,37.979L94.043,42.247L89.775,42.247Z" style="fill:none;stroke:#7AC36A;stroke-width:0.5" />
<path d="M132.05,37.979L136.32,37.979L136.32,42.247L132.05,42.247Z" style="fill:none;stroke:#7AC36A;stroke-width:0.5" />
<path d="M174.32,37.979L178.59,37.979L178.59,42.247L174.32,42.247Z" style="fill:none;stroke:#7AC36A;stroke-width:0.5" />
<path d="M216.6,37.979L220.87,37.979L220.87,42.247L216.6,42.247Z" style="fill:none;stroke:#7AC36A;stroke-width:0.5" />
<path d="M258.87,40.226L263.14,40.226L263.14,44.494L258.87,44.494Z" style="fill:none;stroke:#7AC36A;stroke-width:0.5" />
<path d="M301.15,123.35L305.42,123.35L305.42,127.61L301.15,127.61Z" style="fill:none;stroke:#7AC36A;stroke-width:0.5" />
<path d="M343.42,332.27L347.69,332.27L347.69,336.54L343.42,336.54Z" style="fill:none;stroke:#7AC36A;stroke-width:0.5" />
<path d="M385.7,298.57L389.96,298.57L389.96,302.84L385.7,302.84Z" style="fill:none;stroke:#7AC36A;stroke-width:0.5" />
<path d="M427.97,217.7L432.24,217.7L432.24,221.97L427.97,221.97Z" style="fill:none;stroke:#7AC36A;stroke-width:0.5" />
<path d="M470.25,262.63L474.51,262.63L474.51,266.9L470.25,266.9Z" style="fill:none;stroke:#7AC36A;stroke-width:0.5" />
<path d="M512.52,235.67L516.79,235.67L516.79,239.94L512.52,239.94Z" style="fill:none;stroke:#7AC36A;stroke-width:0.5" />
<path d="M554.8,345.75L559.06,345.75L559.06,350.02L554.8,350.02Z" style="fill:none;stroke:#7AC36A;stroke-width:0.5" />
<path d="M49.635,40.113L91.909,40.113L134.18,40.113L176.46,40.113L218.73,40.113L261.01,40.113L303.28,40.113L345.56,40.113L387.83,46.853L430.11,51.346L472.38,46.853L514.65,55.839L556.93,145.7" style="fill:none;stroke:#5A9BD4;stroke-dasharray:2,2" />
<path d="M49.635,43.238L46.928,38.551L52.341,38.551Z" style="fill:none;stroke:#5A9BD4;stroke-width:0.5" />
<path d="M91.909,43.238L89.203,38.551L94.616,38.551Z" style="fill:none;stroke:#5A9BD4;stroke-width:0.5" />
<path d="M134.18,43.238L131.48,38.551L136.89,38.551Z" style="fill:none;stroke:#5A9BD4;stroke-width:0.5" />
<path d="M176.46,43.238L173.75,38.551L179.16,38.551Z" style="fill:none;stroke:#5A9BD4;stroke-width:0.5" />
<path d="M218.73,43.238L216.03,38.551L221.44,38.551Z" style="fill:none;stroke:#5A9BD4;stroke-width:0.5" />
<path d="M261.01,43.238L258.3,38.551L263.71,38.551Z" style="fill:none;stroke:#5A9BD4;stroke-width:0.5" />
<path d="M303.28,43.238L300.58,38.551L305.99,38.551Z" style="fill:none;stroke:#5A9BD4;stroke-width:0.5" />
<path d="M345.56,43.238L342.85,38.551L348.26,38.551Z" style="fill:none;stroke:#5A9BD4;stroke-width:0.5" />
<path d="M387.83,49.978L385.12,45.29L390.54,45.29Z" style="fill:none;stroke:#5A9BD4;stroke-width:0.5" />
<path d="M430.11,54.471L427.4,49.783L432.81,49.783Z" style="fill:none;stroke:#5A9BD4;stroke-width:0.5" />
<path d="M472.38,49.978L469.67,45.29L475.09,45.29Z" style="fill:none;stroke:#5A9BD4;stroke-width:0.5" />
<path d="M514.65,58.964L511.95,54.276L517.36,54.276Z" style="fill:none;stroke:#5A9BD4;stroke-width:0.5" />
<path d="M556.93,148.82L554.22,144.14L559.64,144.14Z" style="fill:none;stroke:#5A9BD4;stroke-width:0.5" />
<path d="M546.93,63.072L566.93,63.072" style="fill:none;stroke:#F15A60" />
<path d="M559.43,63.072A2.5,2.5 0 1 1 554.43,63.072A2.5,2.5 0 1 1 559.43,63.072Z" style="fill:none;stroke:#F15A60;stroke-width:0.5" />
<text x="515.26" y="-60.585" transform="scale(1, -1)"
	style="font-family:Liberation Serif;font-variant:normal;font-weight:normal;font-style:normal;font-size:12px">issues</text>
<path d="M546.93,52.889L566.93,52.889" style="fill:none;stroke:#7AC36A;stroke-dasharray:6,2" />
<path d="M554.8,50.755L559.06,50.755L559.06,55.023L554.8,55.023Z" style="fill:none;stroke:#7AC36A;stroke-width:0.5" />
<text x="524.58" y="-50.401" transform="scale(1, -1)"
	style="font-family:Liberation Serif;font-variant:normal;font-weight:normal;font-style:normal;font-size:12px">PRs</text>
<path d="M546.93,42.705L566.93,42.705" style="fill:none;stroke:#5A9BD4;stroke-dasharray:2,2" />
<path d="M556.93,45.83L554.22,41.143L559.64,41.143Z" style="fill:none;stroke:#5A9BD4;stroke-width:0.5" />
<text x="506.61" y="-40.218" transform="scale(1, -1)"
	style="font-family:Liberation Serif;font-variant:normal;font-weight:normal;font-style:normal;font-size:12px">reviews</text>
</g>
</svg>
