<?xml version="1.0"?>
<!-- Generated by SVGo and Plotinum VG -->
<svg width="566.93pt" height="350.38pt" viewBox="0 0 566.93 350.38"
	xmlns="http://www.w3.org/2000/svg"
	xmlns:xlink="http://www.w3.org/1999/xlink">
<g transform="scale(1, -1) translate(0, -350.38)">
<path d="M0,0L566.93,0L566.93,350.38L0,350.38Z" style="fill:#FFFFFF" />
<text x="298.48" y="-3.9023" transform="scale(1, -1)"
	style="font-family:Liberation Serif;font-variant:normal;font-weight:normal;font-style:normal;font-size:12px">Year</text>
<text x="95.614" y="-16.541" transform="scale(1, -1)"
	style="font-family:Liberation Serif;font-variant:normal;font-weight:normal;font-style:normal;font-size:10px">2014</text>
<text x="299.53" y="-16.541" transform="scale(1, -1)"
	style="font-family:Liberation Serif;font-variant:normal;font-weight:normal;font-style:normal;font-size:10px">2018</text>
<text x="503.45" y="-16.541" transform="scale(1, -1)"
	style="font-family:Liberation Serif;font-variant:normal;font-weight:normal;font-style:normal;font-size:10px">2022</text>
<path d="M105.61,24.363L105.61,32.363" style="fill:none;stroke:#000000;stroke-width:0.5" />
<path d="M309.53,24.363L309.53,32.363" style="fill:none;stroke:#000000;stroke-width:0.5" />
<path d="M513.45,24.363L513.45,32.363" style="fill:none;stroke:#000000;stroke-width:0.5" />
<path d="M156.59,28.363L156.59,32.363" style="fill:none;stroke:#000000;stroke-width:0.5" />
<path d="M207.57,28.363L207.57,32.363" style="fill:none;stroke:#000000;stroke-width:0.5" />
<path d="M258.55,28.363L258.55,32.363" style="fill:none;stroke:#000000;stroke-width:0.5" />
<path d="M360.51,28.363L360.51,32.363" style="fill:none;stroke:#000000;stroke-width:0.5" />
<path d="M411.49,28.363L411.49,32.363" style="fill:none;stroke:#000000;stroke-width:0.5" />
<path d="M462.47,28.363L462.47,32.363" style="fill:none;stroke:#000000;stroke-width:0.5" />
<path d="M564.43,28.363L564.43,32.363" style="fill:none;stroke:#000000;stroke-width:0.5" />
<path d="M54.635,32.363L564.43,32.363" style="fill:none;stroke:#000000;stroke-width:0.5" />
<g transform="rotate(90)">
<text x="149.8" y="9.3867" transform="scale(1, -1)"
	style="font-family:Liberation Serif;font-variant:normal;font-weight:normal;font-style:normal;font-size:12px">Contribution count</text>
</g>
<text x="30.885" y="-40.424" transform="scale(1, -1)"
	style="font-family:Liberation Serif;font-variant:normal;font-weight:normal;font-style:normal;font-size:10px">0</text>
<text x="20.885" y="-134.21" transform="scale(1, -1)"
	style="font-family:Liberation Serif;font-variant:normal;font-weight:normal;font-style:normal;font-size:10px">500</text>
<text x="15.885" y="-227.99" transform="scale(1, -1)"
	style="font-family:Liberation Serif;font-variant:normal;font-weight:normal;font-style:normal;font-size:10px">1000</text>
<text x="15.885" y="-321.78" transform="scale(1, -1)"
	style="font-family:Liberation Serif;font-variant:normal;font-weight:normal;font-style:normal;font-size:10px">1500</text>
<path d="M38.385,42.709L46.385,42.709" style="fill:none;stroke:#000000;stroke-width:0.5" />
<path d="M38.385,136.49L46.385,136.49" style="fill:none;stroke:#000000;stroke-width:0.5" />
<path d="M38.385,230.28L46.385,230.28" style="fill:none;stroke:#000000;stroke-width:0.5" />
<path d="M38.385,324.06L46.385,324.06" style="fill:none;stroke:#000000;stroke-width:0.5" />
<path d="M42.385,61.466L46.385,61.466" style="fill:none;stroke:#000000;stroke-width:0.5" />
<path d="M42.385,80.223L46.385,80.223" style="fill:none;stroke:#000000;stroke-width:0.5" />
<path d="M42.385,98.979L46.385,98.979" style="fill:none;stroke:#000000;stroke-width:0.5" />
<path d="M42.385,117.74L46.385,117.74" style="fill:none;stroke:#000000;stroke-width:0.5" />
<path d="M42.385,155.25L46.385,155.25" style="fill:none;stroke:#000000;stroke-width:0.5" />
<path d="M42.385,174.01L46.385,174.01" style="fill:none;stroke:#000000;stroke-width:0.5" />
<path d="M42.385,192.76L46.385,192.76" style="fill:none;stroke:#000000;stroke-width:0.5" />
<path d="M42.385,211.52L46.385,211.52" style="fill:none;stroke:#000000;stroke-width:0.5" />
<path d="M42.385,249.03L46.385,249.03" style="fill:none;stroke:#000000;stroke-width:0.5" />
<path d="M42.385,267.79L46.385,267.79" style="fill:none;stroke:#000000;stroke-width:0.5" />
<path d="M42.385,286.55L46.385,286.55" style="fill:none;stroke:#000000;stroke-width:0.5" />
<path d="M42.385,305.3L46.385,305.3" style="fill:none;stroke:#000000;stroke-width:0.5" />
<path d="M42.385,342.82L46.385,342.82" style="fill:none;stroke:#000000;stroke-width:0.5" />
<path d="M46.385,42.709L46.385,347.88" style="fill:none;stroke:#000000;stroke-width:0.5" />
<path d="M54.635,42.709L105.61,42.709L156.59,42.709L207.57,45.522L258.55,50.212L309.53,46.085L360.51,49.649L411.49,122.99L462.47,150.37L513.45,208.89L564.43,347.88" style="fill:none;stroke:#F15A60" />
<path d="M57.135,42.709A2.5,2.5 0 1 1 52.135,42.709A2.5,2.5 0 1 1 57.135,42.709Z" style="fill:none;stroke:#F15A60;stroke-width:0.5" />
<path d="M108.11,42.709A2.5,2.5 0 1 1 103.11,42.709A2.5,2.5 0 1 1 108.11,42.709Z" style="fill:none;stroke:#F15A60;stroke-width:0.5" />
<path d="M159.09,42.709A2.5,2.5 0 1 1 154.09,42.709A2.5,2.5 0 1 1 159.09,42.709Z" style="fill:none;stroke:#F15A60;stroke-width:0.5" />
<path d="M210.07,45.522A2.5,2.5 0 1 1 205.07,45.522A2.5,2.5 0 1 1 210.07,45.522Z" style="fill:none;stroke:#F15A60;stroke-width:0.5" />
<path d="M261.05,50.212A2.5,2.5 0 1 1 256.05,50.212A2.5,2.5 0 1 1 261.05,50.212Z" style="fill:none;stroke:#F15A60;stroke-width:0.5" />
<path d="M312.03,46.085A2.5,2.5 0 1 1 307.03,46.085A2.5,2.5 0 1 1 312.03,46.085Z" style="fill:none;stroke:#F15A60;stroke-width:0.5" />
<path d="M363.01,49.649A2.5,2.5 0 1 1 358.01,49.649A2.5,2.5 0 1 1 363.01,49.649Z" style="fill:none;stroke:#F15A60;stroke-width:0.5" />
<path d="M413.99,122.99A2.5,2.5 0 1 1 408.99,122.99A2.5,2.5 0 1 1 413.99,122.99Z" style="fill:none;stroke:#F15A60;stroke-width:0.5" />
<path d="M464.97,150.37A2.5,2.5 0 1 1 459.97,150.37A2.5,2.5 0 1 1 464.97,150.37Z" style="fill:none;stroke:#F15A60;stroke-width:0.5" />
<path d="M515.95,208.89A2.5,2.5 0 1 1 510.95,208.89A2.5,2.5 0 1 1 515.95,208.89Z" style="fill:none;stroke:#F15A60;stroke-width:0.5" />
<path d="M566.93,347.88A2.5,2.5 0 1 1 561.93,347.88A2.5,2.5 0 1 1 566.93,347.88Z" style="fill:none;stroke:#F15A60;stroke-width:0.5" />
<path d="M54.635,42.709L105.61,42.709L156.59,42.709L207.57,42.709L258.55,42.709L309.53,42.709L360.51,46.46L411.49,57.527L462.47,49.274L513.45,43.459L564.43,47.773" style="fill:none;stroke:#7AC36A;stroke-dasharray:6,2" />
<path d="M52.501,40.575L56.769,40.575L56.769,44.843L52.501,44.843Z" style="fill:none;stroke:#7AC36A;stroke-width:0.5" />
<path d="M103.48,40.575L107.75,40.575L107.75,44.843L103.48,44.843Z" style="fill:none;stroke:#7AC36A;stroke-width:0.5" />
<path d="M154.46,40.575L158.73,40.575L158.73,44.843L154.46,44.843Z" style="fill:none;stroke:#7AC36A;stroke-width:0.5" />
<path d="M205.44,40.575L209.71,40.575L209.71,44.843L205.44,44.843Z" style="fill:none;stroke:#7AC36A;stroke-width:0.5" />
<path d="M256.42,40.575L260.69,40.575L260.69,44.843L256.42,44.843Z" style="fill:none;stroke:#7AC36A;stroke-width:0.5" />
<path d="M307.4,40.575L311.67,40.575L311.67,44.843L307.4,44.843Z" style="fill:none;stroke:#7AC36A;stroke-width:0.5" />
<path d="M358.38,44.326L362.65,44.326L362.65,48.594L358.38,48.594Z" style="fill:none;stroke:#7AC36A;stroke-width:0.5" />
<path d="M409.36,55.393L413.62,55.393L413.62,59.661L409.36,59.661Z" style="fill:none;stroke:#7AC36A;stroke-width:0.5" />
<path d="M460.34,47.14L464.6,47.14L464.6,51.408L460.34,51.408Z" style="fill:none;stroke:#7AC36A;stroke-width:0.5" />
<path d="M511.32,41.325L515.58,41.325L515.58,45.593L511.32,45.593Z" style="fill:none;stroke:#7AC36A;stroke-width:0.5" />
<path d="M562.3,45.639L566.56,45.639L566.56,49.907L562.3,49.907Z" style="fill:none;stroke:#7AC36A;stroke-width:0.5" />
<path d="M54.635,42.709L105.61,42.709L156.59,42.709L207.57,42.709L258.55,42.709L309.53,42.897L360.51,49.837L411.49,67.28L462.47,64.467L513.45,57.714L564.43,104.42" style="fill:none;stroke:#5A9BD4;stroke-dasharray:2,2" />
<path d="M54.635,45.834L51.928,41.146L57.341,41.146Z" style="fill:none;stroke:#5A9BD4;stroke-width:0.5" />
<path d="M105.61,45.834L102.91,41.146L108.32,41.146Z" style="fill:none;stroke:#5A9BD4;stroke-width:0.5" />
<path d="M156.59,45.834L153.89,41.146L159.3,41.146Z" style="fill:none;stroke:#5A9BD4;stroke-width:0.5" />
<path d="M207.57,45.834L204.87,41.146L210.28,41.146Z" style="fill:none;stroke:#5A9BD4;stroke-width:0.5" />
<path d="M258.55,45.834L255.85,41.146L261.26,41.146Z" style="fill:none;stroke:#5A9BD4;stroke-width:0.5" />
<path d="M309.53,46.022L306.83,41.334L312.24,41.334Z" style="fill:none;stroke:#5A9BD4;stroke-width:0.5" />
<path d="M360.51,52.962L357.81,48.274L363.22,48.274Z" style="fill:none;stroke:#5A9BD4;stroke-width:0.5" />
<path d="M411.49,70.405L408.78,65.718L414.2,65.718Z" style="fill:none;stroke:#5A9BD4;stroke-width:0.5" />
<path d="M462.47,67.592L459.76,62.904L465.18,62.904Z" style="fill:none;stroke:#5A9BD4;stroke-width:0.5" />
<path d="M513.45,60.839L510.74,56.152L516.16,56.152Z" style="fill:none;stroke:#5A9BD4;stroke-width:0.5" />
<path d="M564.43,107.54L561.72,102.86L567.14,102.86Z" style="fill:none;stroke:#5A9BD4;stroke-width:0.5" />
<path d="M54.635,42.709L105.61,42.709L156.59,42.709L207.57,42.709L258.55,42.709L309.53,42.709L360.51,42.709L411.49,42.709L462.47,43.272L513.45,43.647L564.43,76.284" style="fill:none;stroke:#FAA75B;stroke-dasharray:1,1" />
<path d="M52.867,40.941L56.403,44.477" style="fill:none;stroke:#FAA75B;stroke-width:0.5" />
<path d="M52.867,44.477L56.403,40.941" style="fill:none;stroke:#FAA75B;stroke-width:0.5" />
<path d="M103.85,40.941L107.38,44.477" style="fill:none;stroke:#FAA75B;stroke-width:0.5" />
<path d="M103.85,44.477L107.38,40.941" style="fill:none;stroke:#FAA75B;stroke-width:0.5" />
<path d="M154.83,40.941L158.36,44.477" style="fill:none;stroke:#FAA75B;stroke-width:0.5" />
<path d="M154.83,44.477L158.36,40.941" style="fill:none;stroke:#FAA75B;stroke-width:0.5" />
<path d="M205.81,40.941L209.34,44.477" style="fill:none;stroke:#FAA75B;stroke-width:0.5" />
<path d="M205.81,44.477L209.34,40.941" style="fill:none;stroke:#FAA75B;stroke-width:0.5" />
<path d="M256.78,40.941L260.32,44.477" style="fill:none;stroke:#FAA75B;stroke-width:0.5" />
<path d="M256.78,44.477L260.32,40.941" style="fill:none;stroke:#FAA75B;stroke-width:0.5" />
<path d="M307.76,40.941L311.3,44.477" style="fill:none;stroke:#FAA75B;stroke-width:0.5" />
<path d="M307.76,44.477L311.3,40.941" style="fill:none;stroke:#FAA75B;stroke-width:0.5" />
<path d="M358.74,40.941L362.28,44.477" style="fill:none;stroke:#FAA75B;stroke-width:0.5" />
<path d="M358.74,44.477L362.28,40.941" style="fill:none;stroke:#FAA75B;stroke-width:0.5" />
<path d="M409.72,40.941L413.26,44.477" style="fill:none;stroke:#FAA75B;stroke-width:0.5" />
<path d="M409.72,44.477L413.26,40.941" style="fill:none;stroke:#FAA75B;stroke-width:0.5" />
<path d="M460.7,41.504L464.24,45.039" style="fill:none;stroke:#FAA75B;stroke-width:0.5" />
<path d="M460.7,45.039L464.24,41.504" style="fill:none;stroke:#FAA75B;stroke-width:0.5" />
<path d="M511.68,41.879L515.22,45.415" style="fill:none;stroke:#FAA75B;stroke-width:0.5" />
<path d="M511.68,45.415L515.22,41.879" style="fill:none;stroke:#FAA75B;stroke-width:0.5" />
<path d="M562.66,74.516L566.2,78.051" style="fill:none;stroke:#FAA75B;stroke-width:0.5" />
<path d="M562.66,78.051L566.2,74.516" style="fill:none;stroke:#FAA75B;stroke-width:0.5" />
<path d="M546.93,75.852L566.93,75.852" style="fill:none;stroke:#F15A60" />
<path d="M559.43,75.852A2.5,2.5 0 1 1 554.43,75.852A2.5,2.5 0 1 1 559.43,75.852Z" style="fill:none;stroke:#F15A60;stroke-width:0.5" />
<text x="502.6" y="-73.364" transform="scale(1, -1)"
	style="font-family:Liberation Serif;font-variant:normal;font-weight:normal;font-style:normal;font-size:12px">commits</text>
<path d="M546.93,65.668L566.93,65.668" style="fill:none;stroke:#7AC36A;stroke-dasharray:6,2" />
<path d="M554.8,63.534L559.06,63.534L559.06,67.802L554.8,67.802Z" style="fill:none;stroke:#7AC36A;stroke-width:0.5" />
<text x="515.26" y="-63.181" transform="scale(1, -1)"
	style="font-family:Liberation Serif;font-variant:normal;font-weight:normal;font-style:normal;font-size:12px">issues</text>
<path d="M546.93,55.484L566.93,55.484" style="fill:none;stroke:#5A9BD4;stroke-dasharray:2,2" />
<path d="M556.93,58.609L554.22,53.922L559.64,53.922Z" style="fill:none;stroke:#5A9BD4;stroke-width:0.5" />
<text x="524.58" y="-52.997" transform="scale(1, -1)"
	style="font-family:Liberation Serif;font-variant:normal;font-weight:normal;font-style:normal;font-size:12px">PRs</text>
<path d="M546.93,45.301L566.93,45.301" style="fill:none;stroke:#FAA75B;stroke-dasharray:1,1" />
<path d="M555.16,43.533L558.7,47.069" style="fill:none;stroke:#FAA75B;stroke-width:0.5" />
<path d="M555.16,47.069L558.7,43.533" style="fill:none;stroke:#FAA75B;stroke-width:0.5" />
<text x="506.61" y="-42.813" transform="scale(1, -1)"
	style="font-family:Liberation Serif;font-variant:normal;font-weight:normal;font-style:normal;font-size:12px">reviews</text>
</g>
</svg>
