<?xml version="1.0"?>
<!-- Generated by SVGo and Plotinum VG -->
<svg width="566.93pt" height="350.38pt" viewBox="0 0 566.93 350.38"
	xmlns="http://www.w3.org/2000/svg"
	xmlns:xlink="http://www.w3.org/1999/xlink">
<g transform="scale(1, -1) translate(0, -350.38)">
<path d="M0,0L566.93,0L566.93,350.38L0,350.38Z" style="fill:#FFFFFF" />
<text x="298.48" y="-3.9023" transform="scale(1, -1)"
	style="font-family:Liberation Serif;font-variant:normal;font-weight:normal;font-style:normal;font-size:12px">Year</text>
<text x="95.614" y="-16.541" transform="scale(1, -1)"
	style="font-family:Liberation Serif;font-variant:normal;font-weight:normal;font-style:normal;font-size:10px">2014</text>
<text x="299.53" y="-16.541" transform="scale(1, -1)"
	style="font-family:Liberation Serif;font-variant:normal;font-weight:normal;font-style:normal;font-size:10px">2018</text>
<text x="503.45" y="-16.541" transform="scale(1, -1)"
	style="font-family:Liberation Serif;font-variant:normal;font-weight:normal;font-style:normal;font-size:10px">2022</text>
<path d="M105.61,24.363L105.61,32.363" style="fill:none;stroke:#000000;stroke-width:0.5" />
<path d="M309.53,24.363L309.53,32.363" style="fill:none;stroke:#000000;stroke-width:0.5" />
<path d="M513.45,24.363L513.45,32.363" style="fill:none;stroke:#000000;stroke-width:0.5" />
<path d="M156.59,28.363L156.59,32.363" style="fill:none;stroke:#000000;stroke-width:0.5" />
<path d="M207.57,28.363L207.57,32.363" style="fill:none;stroke:#000000;stroke-width:0.5" />
<path d="M258.55,28.363L258.55,32.363" style="fill:none;stroke:#000000;stroke-width:0.5" />
<path d="M360.51,28.363L360.51,32.363" style="fill:none;stroke:#000000;stroke-width:0.5" />
<path d="M411.49,28.363L411.49,32.363" style="fill:none;stroke:#000000;stroke-width:0.5" />
<path d="M462.47,28.363L462.47,32.363" style="fill:none;stroke:#000000;stroke-width:0.5" />
<path d="M564.43,28.363L564.43,32.363" style="fill:none;stroke:#000000;stroke-width:0.5" />
<path d="M54.635,32.363L564.43,32.363" style="fill:none;stroke:#000000;stroke-width:0.5" />
<g transform="rotate(90)">
<text x="149.8" y="9.3867" transform="scale(1, -1)"
	style="font-family:Liberation Serif;font-variant:normal;font-weight:normal;font-style:normal;font-size:12px">Contribution count</text>
</g>
<text x="30.885" y="-40.424" transform="scale(1, -1)"
	style="font-family:Liberation Serif;font-variant:normal;font-weight:normal;font-style:normal;font-size:10px">0</text>
<text x="20.885" y="-132.83" transform="scale(1, -1)"
	style="font-family:Liberation Serif;font-variant:normal;font-weight:normal;font-style:normal;font-size:10px">400</text>
<text x="20.885" y="-225.24" transform="scale(1, -1)"
	style="font-family:Liberation Serif;font-variant:normal;font-weight:normal;font-style:normal;font-size:10px">800</text>
<text x="15.885" y="-317.64" transform="scale(1, -1)"
	style="font-family:Liberation Serif;font-variant:normal;font-weight:normal;font-style:normal;font-size:10px">1200</text>
<path d="M38.385,42.709L46.385,42.709" style="fill:none;stroke:#000000;stroke-width:0.5" />
<path d="M38.385,135.12L46.385,135.12" style="fill:none;stroke:#000000;stroke-width:0.5" />
<path d="M38.385,227.52L46.385,227.52" style="fill:none;stroke:#000000;stroke-width:0.5" />
<path d="M38.385,319.93L46.385,319.93" style="fill:none;stroke:#000000;stroke-width:0.5" />
<path d="M42.385,65.811L46.385,65.811" style="fill:none;stroke:#000000;stroke-width:0.5" />
<path d="M42.385,88.912L46.385,88.912" style="fill:none;stroke:#000000;stroke-width:0.5" />
<path d="M42.385,112.01L46.385,112.01" style="fill:none;stroke:#000000;stroke-width:0.5" />
<path d="M42.385,158.22L46.385,158.22" style="fill:none;stroke:#000000;stroke-width:0.5" />
<path d="M42.385,181.32L46.385,181.32" style="fill:none;stroke:#000000;stroke-width:0.5" />
<path d="M42.385,204.42L46.385,204.42" style="fill:none;stroke:#000000;stroke-width:0.5" />
<path d="M42.385,250.62L46.385,250.62" style="fill:none;stroke:#000000;stroke-width:0.5" />
<path d="M42.385,273.73L46.385,273.73" style="fill:none;stroke:#000000;stroke-width:0.5" />
<path d="M42.385,296.83L46.385,296.83" style="fill:none;stroke:#000000;stroke-width:0.5" />
<path d="M42.385,343.03L46.385,343.03" style="fill:none;stroke:#000000;stroke-width:0.5" />
<path d="M46.385,42.709L46.385,347.88" style="fill:none;stroke:#000000;stroke-width:0.5" />
<path d="M54.635,42.709L105.61,42.709L156.59,42.709L207.57,46.174L258.55,51.95L309.53,46.867L360.51,51.257L411.49,141.58L462.47,175.31L513.45,247.39L564.43,347.88" style="fill:none;stroke:#F15A60" />
<path d="M57.135,42.709A2.5,2.5 0 1 1 52.135,42.709A2.5,2.5 0 1 1 57.135,42.709Z" style="fill:none;stroke:#F15A60;stroke-width:0.5" />
<path d="M108.11,42.709A2.5,2.5 0 1 1 103.11,42.709A2.5,2.5 0 1 1 108.11,42.709Z" style="fill:none;stroke:#F15A60;stroke-width:0.5" />
<path d="M159.09,42.709A2.5,2.5 0 1 1 154.09,42.709A2.5,2.5 0 1 1 159.09,42.709Z" style="fill:none;stroke:#F15A60;stroke-width:0.5" />
<path d="M210.07,46.174A2.5,2.5 0 1 1 205.07,46.174A2.5,2.5 0 1 1 210.07,46.174Z" style="fill:none;stroke:#F15A60;stroke-width:0.5" />
<path d="M261.05,51.95A2.5,2.5 0 1 1 256.05,51.95A2.5,2.5 0 1 1 261.05,51.95Z" style="fill:none;stroke:#F15A60;stroke-width:0.5" />
<path d="M312.03,46.867A2.5,2.5 0 1 1 307.03,46.867A2.5,2.5 0 1 1 312.03,46.867Z" style="fill:none;stroke:#F15A60;stroke-width:0.5" />
<path d="M363.01,51.257A2.5,2.5 0 1 1 358.01,51.257A2.5,2.5 0 1 1 363.01,51.257Z" style="fill:none;stroke:#F15A60;stroke-width:0.5" />
<path d="M413.99,141.58A2.5,2.5 0 1 1 408.99,141.58A2.5,2.5 0 1 1 413.99,141.58Z" style="fill:none;stroke:#F15A60;stroke-width:0.5" />
<path d="M464.97,175.31A2.5,2.5 0 1 1 459.97,175.31A2.5,2.5 0 1 1 464.97,175.31Z" style="fill:none;stroke:#F15A60;stroke-width:0.5" />
<path d="M515.95,247.39A2.5,2.5 0 1 1 510.95,247.39A2.5,2.5 0 1 1 515.95,247.39Z" style="fill:none;stroke:#F15A60;stroke-width:0.5" />
<path d="M566.93,347.88A2.5,2.5 0 1 1 561.93,347.88A2.5,2.5 0 1 1 566.93,347.88Z" style="fill:none;stroke:#F15A60;stroke-width:0.5" />
<path d="M54.635,42.709L105.61,42.709L156.59,42.709L207.57,42.709L258.55,42.709L309.53,42.709L360.51,47.329L411.49,60.959L462.47,50.795L513.45,43.633L564.43,48.946" style="fill:none;stroke:#7AC36A;stroke-dasharray:6,2" />
<path d="M52.501,40.575L56.769,40.575L56.769,44.843L52.501,44.843Z" style="fill:none;stroke:#7AC36A;stroke-width:0.5" />
<path d="M103.48,40.575L107.75,40.575L107.75,44.843L103.48,44.843Z" style="fill:none;stroke:#7AC36A;stroke-width:0.5" />
<path d="M154.46,40.575L158.73,40.575L158.73,44.843L154.46,44.843Z" style="fill:none;stroke:#7AC36A;stroke-width:0.5" />
<path d="M205.44,40.575L209.71,40.575L209.71,44.843L205.44,44.843Z" style="fill:none;stroke:#7AC36A;stroke-width:0.5" />
<path d="M256.42,40.575L260.69,40.575L260.69,44.843L256.42,44.843Z" style="fill:none;stroke:#7AC36A;stroke-width:0.5" />
<path d="M307.4,40.575L311.67,40.575L311.67,44.843L307.4,44.843Z" style="fill:none;stroke:#7AC36A;stroke-width:0.5" />
<path d="M358.38,45.195L362.65,45.195L362.65,49.463L358.38,49.463Z" style="fill:none;stroke:#7AC36A;stroke-width:0.5" />
<path d="M409.36,58.825L413.62,58.825L413.62,63.093L409.36,63.093Z" style="fill:none;stroke:#7AC36A;stroke-width:0.5" />
<path d="M460.34,48.661L464.6,48.661L464.6,52.928L460.34,52.928Z" style="fill:none;stroke:#7AC36A;stroke-width:0.5" />
<path d="M511.32,41.499L515.58,41.499L515.58,45.767L511.32,45.767Z" style="fill:none;stroke:#7AC36A;stroke-width:0.5" />
<path d="M562.3,46.813L566.56,46.813L566.56,51.08L562.3,51.08Z" style="fill:none;stroke:#7AC36A;stroke-width:0.5" />
<path d="M54.635,42.709L105.61,42.709L156.59,42.709L207.57,42.709L258.55,42.709L309.53,42.94L360.51,51.488L411.49,72.972L462.47,69.507L513.45,61.19L564.43,103.7" style="fill:none;stroke:#5A9BD4;stroke-dasharray:2,2" />
<path d="M54.635,45.834L51.928,41.146L57.341,41.146Z" style="fill:none;stroke:#5A9BD4;stroke-width:0.5" />
<path d="M105.61,45.834L102.91,41.146L108.32,41.146Z" style="fill:none;stroke:#5A9BD4;stroke-width:0.5" />
<path d="M156.59,45.834L153.89,41.146L159.3,41.146Z" style="fill:none;stroke:#5A9BD4;stroke-width:0.5" />
<path d="M207.57,45.834L204.87,41.146L210.28,41.146Z" style="fill:none;stroke:#5A9BD4;stroke-width:0.5" />
<path d="M258.55,45.834L255.85,41.146L261.26,41.146Z" style="fill:none;stroke:#5A9BD4;stroke-width:0.5" />
<path d="M309.53,46.065L306.83,41.378L312.24,41.378Z" style="fill:none;stroke:#5A9BD4;stroke-width:0.5" />
<path d="M360.51,54.613L357.81,49.925L363.22,49.925Z" style="fill:none;stroke:#5A9BD4;stroke-width:0.5" />
<path d="M411.49,76.097L408.78,71.41L414.2,71.41Z" style="fill:none;stroke:#5A9BD4;stroke-width:0.5" />
<path d="M462.47,72.632L459.76,67.944L465.18,67.944Z" style="fill:none;stroke:#5A9BD4;stroke-width:0.5" />
<path d="M513.45,64.315L510.74,59.628L516.16,59.628Z" style="fill:none;stroke:#5A9BD4;stroke-width:0.5" />
<path d="M564.43,106.82L561.72,102.13L567.14,102.13Z" style="fill:none;stroke:#5A9BD4;stroke-width:0.5" />
<path d="M54.635,42.709L105.61,42.709L156.59,42.709L207.57,42.709L258.55,42.709L309.53,42.709L360.51,42.709L411.49,42.709L462.47,43.402L513.45,43.864L564.43,73.896" style="fill:none;stroke:#FAA75B;stroke-dasharray:1,1" />
<path d="M52.867,40.941L56.403,44.477" style="fill:none;stroke:#FAA75B;stroke-width:0.5" />
<path d="M52.867,44.477L56.403,40.941" style="fill:none;stroke:#FAA75B;stroke-width:0.5" />
<path d="M103.85,40.941L107.38,44.477" style="fill:none;stroke:#FAA75B;stroke-width:0.5" />
<path d="M103.85,44.477L107.38,40.941" style="fill:none;stroke:#FAA75B;stroke-width:0.5" />
<path d="M154.83,40.941L158.36,44.477" style="fill:none;stroke:#FAA75B;stroke-width:0.5" />
<path d="M154.83,44.477L158.36,40.941" style="fill:none;stroke:#FAA75B;stroke-width:0.5" />
<path d="M205.81,40.941L209.34,44.477" style="fill:none;stroke:#FAA75B;stroke-width:0.5" />
<path d="M205.81,44.477L209.34,40.941" style="fill:none;stroke:#FAA75B;stroke-width:0.5" />
<path d="M256.78,40.941L260.32,44.477" style="fill:none;stroke:#FAA75B;stroke-width:0.5" />
<path d="M256.78,44.477L260.32,40.941" style="fill:none;stroke:#FAA75B;stroke-width:0.5" />
<path d="M307.76,40.941L311.3,44.477" style="fill:none;stroke:#FAA75B;stroke-width:0.5" />
<path d="M307.76,44.477L311.3,40.941" style="fill:none;stroke:#FAA75B;stroke-width:0.5" />
<path d="M358.74,40.941L362.28,44.477" style="fill:none;stroke:#FAA75B;stroke-width:0.5" />
<path d="M358.74,44.477L362.28,40.941" style="fill:none;stroke:#FAA75B;stroke-width:0.5" />
<path d="M409.72,40.941L413.26,44.477" style="fill:none;stroke:#FAA75B;stroke-width:0.5" />
<path d="M409.72,44.477L413.26,40.941" style="fill:none;stroke:#FAA75B;stroke-width:0.5" />
<path d="M460.7,41.634L464.24,45.17" style="fill:none;stroke:#FAA75B;stroke-width:0.5" />
<path d="M460.7,45.17L464.24,41.634" style="fill:none;stroke:#FAA75B;stroke-width:0.5" />
<path d="M511.68,42.096L515.22,45.632" style="fill:none;stroke:#FAA75B;stroke-width:0.5" />
<path d="M511.68,45.632L515.22,42.096" style="fill:none;stroke:#FAA75B;stroke-width:0.5" />
<path d="M562.66,72.128L566.2,75.664" style="fill:none;stroke:#FAA75B;stroke-width:0.5" />
<path d="M562.66,75.664L566.2,72.128" style="fill:none;stroke:#FAA75B;stroke-width:0.5" />
<path d="M546.93,75.852L566.93,75.852" style="fill:none;stroke:#F15A60" />
<path d="M559.43,75.852A2.5,2.5 0 1 1 554.43,75.852A2.5,2.5 0 1 1 559.43,75.852Z" style="fill:none;stroke:#F15A60;stroke-width:0.5" />
<text x="502.6" y="-73.364" transform="scale(1, -1)"
	style="font-family:Liberation Serif;font-variant:normal;font-weight:normal;font-style:normal;font-size:12px">commits</text>
<path d="M546.93,65.668L566.93,65.668" style="fill:none;stroke:#7AC36A;stroke-dasharray:6,2" />
<path d="M554.8,63.534L559.06,63.534L559.06,67.802L554.8,67.802Z" style="fill:none;stroke:#7AC36A;stroke-width:0.5" />
<text x="515.26" y="-63.181" transform="scale(1, -1)"
	style="font-family:Liberation Serif;font-variant:normal;font-weight:normal;font-style:normal;font-size:12px">issues</text>
<path d="M546.93,55.484L566.93,55.484" style="fill:none;stroke:#5A9BD4;stroke-dasharray:2,2" />
<path d="M556.93,58.609L554.22,53.922L559.64,53.922Z" style="fill:none;stroke:#5A9BD4;stroke-width:0.5" />
<text x="524.58" y="-52.997" transform="scale(1, -1)"
	style="font-family:Liberation Serif;font-variant:normal;font-weight:normal;font-style:normal;font-size:12px">PRs</text>
<path d="M546.93,45.301L566.93,45.301" style="fill:none;stroke:#FAA75B;stroke-dasharray:1,1" />
<path d="M555.16,43.533L558.7,47.069" style="fill:none;stroke:#FAA75B;stroke-width:0.5" />
<path d="M555.16,47.069L558.7,43.533" style="fill:none;stroke:#FAA75B;stroke-width:0.5" />
<text x="506.61" y="-42.813" transform="scale(1, -1)"
	style="font-family:Liberation Serif;font-variant:normal;font-weight:normal;font-style:normal;font-size:12px">reviews</text>
</g>
</svg>
