<?xml version="1.0"?>
<!-- Generated by SVGo and Plotinum VG -->
<svg width="566.93pt" height="350.38pt" viewBox="0 0 566.93 350.38"
	xmlns="http://www.w3.org/2000/svg"
	xmlns:xlink="http://www.w3.org/1999/xlink">
<g transform="scale(1, -1) translate(0, -350.38)">
<path d="M0,0L566.93,0L566.93,350.38L0,350.38Z" style="fill:#FFFFFF" />
<text x="298.48" y="-3.9023" transform="scale(1, -1)"
	style="font-family:Liberation Serif;font-variant:normal;font-weight:normal;font-style:normal;font-size:12px">Year</text>
<text x="44.635" y="-16.541" transform="scale(1, -1)"
	style="font-family:Liberation Serif;font-variant:normal;font-weight:normal;font-style:normal;font-size:10px">2013</text>
<text x="183.67" y="-16.541" transform="scale(1, -1)"
	style="font-family:Liberation Serif;font-variant:normal;font-weight:normal;font-style:normal;font-size:10px">2016</text>
<text x="322.7" y="-16.541" transform="scale(1, -1)"
	style="font-family:Liberation Serif;font-variant:normal;font-weight:normal;font-style:normal;font-size:10px">2019</text>
<text x="461.74" y="-16.541" transform="scale(1, -1)"
	style="font-family:Liberation Serif;font-variant:normal;font-weight:normal;font-style:normal;font-size:10px">2022</text>
<path d="M54.635,24.363L54.635,32.363" style="fill:none;stroke:#000000;stroke-width:0.5" />
<path d="M193.67,24.363L193.67,32.363" style="fill:none;stroke:#000000;stroke-width:0.5" />
<path d="M332.7,24.363L332.7,32.363" style="fill:none;stroke:#000000;stroke-width:0.5" />
<path d="M471.74,24.363L471.74,32.363" style="fill:none;stroke:#000000;stroke-width:0.5" />
<path d="M100.98,28.363L100.98,32.363" style="fill:none;stroke:#000000;stroke-width:0.5" />
<path d="M147.32,28.363L147.32,32.363" style="fill:none;stroke:#000000;stroke-width:0.5" />
<path d="M240.01,28.363L240.01,32.363" style="fill:none;stroke:#000000;stroke-width:0.5" />
<path d="M286.36,28.363L286.36,32.363" style="fill:none;stroke:#000000;stroke-width:0.5" />
<path d="M379.05,28.363L379.05,32.363" style="fill:none;stroke:#000000;stroke-width:0.5" />
<path d="M425.39,28.363L425.39,32.363" style="fill:none;stroke:#000000;stroke-width:0.5" />
<path d="M518.08,28.363L518.08,32.363" style="fill:none;stroke:#000000;stroke-width:0.5" />
<path d="M564.43,28.363L564.43,32.363" style="fill:none;stroke:#000000;stroke-width:0.5" />
<path d="M54.635,32.363L564.43,32.363" style="fill:none;stroke:#000000;stroke-width:0.5" />
<g transform="rotate(90)">
<text x="149.8" y="9.3867" transform="scale(1, -1)"
	style="font-family:Liberation Serif;font-variant:normal;font-weight:normal;font-style:normal;font-size:12px">Contribution count</text>
</g>
<text x="30.885" y="-40.424" transform="scale(1, -1)"
	style="font-family:Liberation Serif;font-variant:normal;font-weight:normal;font-style:normal;font-size:10px">0</text>
<text x="20.885" y="-166.27" transform="scale(1, -1)"
	style="font-family:Liberation Serif;font-variant:normal;font-weight:normal;font-style:normal;font-size:10px">600</text>
<text x="15.885" y="-292.11" transform="scale(1, -1)"
	style="font-family:Liberation Serif;font-variant:normal;font-weight:normal;font-style:normal;font-size:10px">1200</text>
<path d="M38.385,42.709L46.385,42.709" style="fill:none;stroke:#000000;stroke-width:0.5" />
<path d="M38.385,168.55L46.385,168.55" style="fill:none;stroke:#000000;stroke-width:0.5" />
<path d="M38.385,294.4L46.385,294.4" style="fill:none;stroke:#000000;stroke-width:0.5" />
<path d="M42.385,105.63L46.385,105.63" style="fill:none;stroke:#000000;stroke-width:0.5" />
<path d="M42.385,231.48L46.385,231.48" style="fill:none;stroke:#000000;stroke-width:0.5" />
<path d="M46.385,42.709L46.385,347.88" style="fill:none;stroke:#000000;stroke-width:0.5" />
<path d="M54.635,42.709L100.98,42.709L147.32,42.709L193.67,45.855L240.01,51.099L286.36,46.484L332.7,50.469L379.05,132.48L425.39,163.1L471.74,228.54L518.08,328.38L564.43,347.88" style="fill:none;stroke:#F15A60" />
<path d="M57.135,42.709A2.5,2.5 0 1 1 52.135,42.709A2.5,2.5 0 1 1 57.135,42.709Z" style="fill:none;stroke:#F15A60;stroke-width:0.5" />
<path d="M103.48,42.709A2.5,2.5 0 1 1 98.48,42.709A2.5,2.5 0 1 1 103.48,42.709Z" style="fill:none;stroke:#F15A60;stroke-width:0.5" />
<path d="M149.82,42.709A2.5,2.5 0 1 1 144.82,42.709A2.5,2.5 0 1 1 149.82,42.709Z" style="fill:none;stroke:#F15A60;stroke-width:0.5" />
<path d="M196.17,45.855A2.5,2.5 0 1 1 191.17,45.855A2.5,2.5 0 1 1 196.17,45.855Z" style="fill:none;stroke:#F15A60;stroke-width:0.5" />
<path d="M242.51,51.099A2.5,2.5 0 1 1 237.51,51.099A2.5,2.5 0 1 1 242.51,51.099Z" style="fill:none;stroke:#F15A60;stroke-width:0.5" />
<path d="M288.86,46.484A2.5,2.5 0 1 1 283.86,46.484A2.5,2.5 0 1 1 288.86,46.484Z" style="fill:none;stroke:#F15A60;stroke-width:0.5" />
<path d="M335.2,50.469A2.5,2.5 0 1 1 330.2,50.469A2.5,2.5 0 1 1 335.2,50.469Z" style="fill:none;stroke:#F15A60;stroke-width:0.5" />
<path d="M381.55,132.48A2.5,2.5 0 1 1 376.55,132.48A2.5,2.5 0 1 1 381.55,132.48Z" style="fill:none;stroke:#F15A60;stroke-width:0.5" />
<path d="M427.89,163.1A2.5,2.5 0 1 1 422.89,163.1A2.5,2.5 0 1 1 427.89,163.1Z" style="fill:none;stroke:#F15A60;stroke-width:0.5" />
<path d="M474.24,228.54A2.5,2.5 0 1 1 469.24,228.54A2.5,2.5 0 1 1 474.24,228.54Z" style="fill:none;stroke:#F15A60;stroke-width:0.5" />
<path d="M520.58,328.38A2.5,2.5 0 1 1 515.58,328.38A2.5,2.5 0 1 1 520.58,328.38Z" style="fill:none;stroke:#F15A60;stroke-width:0.5" />
<path d="M566.93,347.88A2.5,2.5 0 1 1 561.93,347.88A2.5,2.5 0 1 1 566.93,347.88Z" style="fill:none;stroke:#F15A60;stroke-width:0.5" />
<path d="M54.635,42.709L100.98,42.709L147.32,42.709L193.67,42.709L240.01,42.709L286.36,42.709L332.7,46.904L379.05,59.278L425.39,50.05L471.74,43.548L518.08,46.484L564.43,42.709" style="fill:none;stroke:#7AC36A;stroke-dasharray:6,2" />
<path d="M52.501,40.575L56.769,40.575L56.769,44.843L52.501,44.843Z" style="fill:none;stroke:#7AC36A;stroke-width:0.5" />
<path d="M98.846,40.575L103.11,40.575L103.11,44.843L98.846,44.843Z" style="fill:none;stroke:#7AC36A;stroke-width:0.5" />
<path d="M145.19,40.575L149.46,40.575L149.46,44.843L145.19,44.843Z" style="fill:none;stroke:#7AC36A;stroke-width:0.5" />
<path d="M191.54,40.575L195.8,40.575L195.8,44.843L191.54,44.843Z" style="fill:none;stroke:#7AC36A;stroke-width:0.5" />
<path d="M237.88,40.575L242.15,40.575L242.15,44.843L237.88,44.843Z" style="fill:none;stroke:#7AC36A;stroke-width:0.5" />
<path d="M284.23,40.575L288.49,40.575L288.49,44.843L284.23,44.843Z" style="fill:none;stroke:#7AC36A;stroke-width:0.5" />
<path d="M330.57,44.77L334.84,44.77L334.84,49.038L330.57,49.038Z" style="fill:none;stroke:#7AC36A;stroke-width:0.5" />
<path d="M376.92,57.145L381.18,57.145L381.18,61.412L376.92,61.412Z" style="fill:none;stroke:#7AC36A;stroke-width:0.5" />
<path d="M423.26,47.916L427.53,47.916L427.53,52.184L423.26,52.184Z" style="fill:none;stroke:#7AC36A;stroke-width:0.5" />
<path d="M469.61,41.414L473.87,41.414L473.87,45.682L469.61,45.682Z" style="fill:none;stroke:#7AC36A;stroke-width:0.5" />
<path d="M515.95,44.35L520.22,44.35L520.22,48.618L515.95,48.618Z" style="fill:none;stroke:#7AC36A;stroke-width:0.5" />
<path d="M562.3,40.575L566.56,40.575L566.56,44.843L562.3,44.843Z" style="fill:none;stroke:#7AC36A;stroke-width:0.5" />
<path d="M54.635,42.709L100.98,42.709L147.32,42.709L193.67,42.709L240.01,42.709L286.36,42.919L332.7,50.679L379.05,70.185L425.39,67.039L471.74,59.488L518.08,77.106L564.43,52.147" style="fill:none;stroke:#5A9BD4;stroke-dasharray:2,2" />
<path d="M54.635,45.834L51.928,41.146L57.341,41.146Z" style="fill:none;stroke:#5A9BD4;stroke-width:0.5" />
<path d="M100.98,45.834L98.273,41.146L103.69,41.146Z" style="fill:none;stroke:#5A9BD4;stroke-width:0.5" />
<path d="M147.32,45.834L144.62,41.146L150.03,41.146Z" style="fill:none;stroke:#5A9BD4;stroke-width:0.5" />
<path d="M193.67,45.834L190.96,41.146L196.38,41.146Z" style="fill:none;stroke:#5A9BD4;stroke-width:0.5" />
<path d="M240.01,45.834L237.31,41.146L242.72,41.146Z" style="fill:none;stroke:#5A9BD4;stroke-width:0.5" />
<path d="M286.36,46.044L283.65,41.356L289.07,41.356Z" style="fill:none;stroke:#5A9BD4;stroke-width:0.5" />
<path d="M332.7,53.804L330,49.117L335.41,49.117Z" style="fill:none;stroke:#5A9BD4;stroke-width:0.5" />
<path d="M379.05,73.31L376.34,68.622L381.76,68.622Z" style="fill:none;stroke:#5A9BD4;stroke-width:0.5" />
<path d="M425.39,70.164L422.69,65.476L428.1,65.476Z" style="fill:none;stroke:#5A9BD4;stroke-width:0.5" />
<path d="M471.74,62.613L469.03,57.926L474.45,57.926Z" style="fill:none;stroke:#5A9BD4;stroke-width:0.5" />
<path d="M518.08,80.231L515.38,75.544L520.79,75.544Z" style="fill:none;stroke:#5A9BD4;stroke-width:0.5" />
<path d="M564.43,55.272L561.72,50.585L567.14,50.585Z" style="fill:none;stroke:#5A9BD4;stroke-width:0.5" />
<path d="M54.635,42.709L100.98,42.709L147.32,42.709L193.67,42.709L240.01,42.709L286.36,42.709L332.7,42.709L379.05,42.709L425.39,43.338L471.74,43.758L518.08,61.166L564.43,44.387" style="fill:none;stroke:#FAA75B;stroke-dasharray:1,1" />
<path d="M52.867,40.941L56.403,44.477" style="fill:none;stroke:#FAA75B;stroke-width:0.5" />
<path d="M52.867,44.477L56.403,40.941" style="fill:none;stroke:#FAA75B;stroke-width:0.5" />
<path d="M99.212,40.941L102.75,44.477" style="fill:none;stroke:#FAA75B;stroke-width:0.5" />
<path d="M99.212,44.477L102.75,40.941" style="fill:none;stroke:#FAA75B;stroke-width:0.5" />
<path d="M145.56,40.941L149.09,44.477" style="fill:none;stroke:#FAA75B;stroke-width:0.5" />
<path d="M145.56,44.477L149.09,40.941" style="fill:none;stroke:#FAA75B;stroke-width:0.5" />
<path d="M191.9,40.941L195.44,44.477" style="fill:none;stroke:#FAA75B;stroke-width:0.5" />
<path d="M191.9,44.477L195.44,40.941" style="fill:none;stroke:#FAA75B;stroke-width:0.5" />
<path d="M238.25,40.941L241.78,44.477" style="fill:none;stroke:#FAA75B;stroke-width:0.5" />
<path d="M238.25,44.477L241.78,40.941" style="fill:none;stroke:#FAA75B;stroke-width:0.5" />
<path d="M284.59,40.941L288.13,44.477" style="fill:none;stroke:#FAA75B;stroke-width:0.5" />
<path d="M284.59,44.477L288.13,40.941" style="fill:none;stroke:#FAA75B;stroke-width:0.5" />
<path d="M330.94,40.941L334.47,44.477" style="fill:none;stroke:#FAA75B;stroke-width:0.5" />
<path d="M330.94,44.477L334.47,40.941" style="fill:none;stroke:#FAA75B;stroke-width:0.5" />
<path d="M377.28,40.941L380.82,44.477" style="fill:none;stroke:#FAA75B;stroke-width:0.5" />
<path d="M377.28,44.477L380.82,40.941" style="fill:none;stroke:#FAA75B;stroke-width:0.5" />
<path d="M423.63,41.57L427.16,45.106" style="fill:none;stroke:#FAA75B;stroke-width:0.5" />
<path d="M423.63,45.106L427.16,41.57" style="fill:none;stroke:#FAA75B;stroke-width:0.5" />
<path d="M469.97,41.99L473.51,45.525" style="fill:none;stroke:#FAA75B;stroke-width:0.5" />
<path d="M469.97,45.525L473.51,41.99" style="fill:none;stroke:#FAA75B;stroke-width:0.5" />
<path d="M516.32,59.398L519.85,62.934" style="fill:none;stroke:#FAA75B;stroke-width:0.5" />
<path d="M516.32,62.934L519.85,59.398" style="fill:none;stroke:#FAA75B;stroke-width:0.5" />
<path d="M562.66,42.619L566.2,46.155" style="fill:none;stroke:#FAA75B;stroke-width:0.5" />
<path d="M562.66,46.155L566.2,42.619" style="fill:none;stroke:#FAA75B;stroke-width:0.5" />
<path d="M546.93,75.852L566.93,75.852" style="fill:none;stroke:#F15A60" />
<path d="M559.43,75.852A2.5,2.5 0 1 1 554.43,75.852A2.5,2.5 0 1 1 559.43,75.852Z" style="fill:none;stroke:#F15A60;stroke-width:0.5" />
<text x="502.6" y="-73.364" transform="scale(1, -1)"
	style="font-family:Liberation Serif;font-variant:normal;font-weight:normal;font-style:normal;font-size:12px">commits</text>
<path d="M546.93,65.668L566.93,65.668" style="fill:none;stroke:#7AC36A;stroke-dasharray:6,2" />
<path d="M554.8,63.534L559.06,63.534L559.06,67.802L554.8,67.802Z" style="fill:none;stroke:#7AC36A;stroke-width:0.5" />
<text x="515.26" y="-63.181" transform="scale(1, -1)"
	style="font-family:Liberation Serif;font-variant:normal;font-weight:normal;font-style:normal;font-size:12px">issues</text>
<path d="M546.93,55.484L566.93,55.484" style="fill:none;stroke:#5A9BD4;stroke-dasharray:2,2" />
<path d="M556.93,58.609L554.22,53.922L559.64,53.922Z" style="fill:none;stroke:#5A9BD4;stroke-width:0.5" />
<text x="524.58" y="-52.997" transform="scale(1, -1)"
	style="font-family:Liberation Serif;font-variant:normal;font-weight:normal;font-style:normal;font-size:12px">PRs</text>
<path d="M546.93,45.301L566.93,45.301" style="fill:none;stroke:#FAA75B;stroke-dasharray:1,1" />
<path d="M555.16,43.533L558.7,47.069" style="fill:none;stroke:#FAA75B;stroke-width:0.5" />
<path d="M555.16,47.069L558.7,43.533" style="fill:none;stroke:#FAA75B;stroke-width:0.5" />
<text x="506.61" y="-42.813" transform="scale(1, -1)"
	style="font-family:Liberation Serif;font-variant:normal;font-weight:normal;font-style:normal;font-size:12px">reviews</text>
</g>
</svg>
